<?xml version="1.0" encoding="utf-8"?>
<svg width="100%" height="100%" viewBox="-597 -417 1194 834" xmlns="http://www.w3.org/2000/svg">
  <style>
      svg { 
          background-color: rgba(0, 0, 0, 0.0);
      }

      #looom {
          --version:3;
          --tempo:120;
          --musicTime:0;
          --gridEnabled:0;
          --imageAlpha:0.00; 
      }

      #t0a {
          --visible:1;
          --timeOffset:3.333334;
          --speed:6;
          --bookmarkIndex:-1;
          --latched:0;
          --playMode:0;
          --masked:0;
          --blendMode:0;
          --pressureEnabled:0; 
          stroke:#D8484D;
          stroke-opacity:1;
          fill-opacity:0;
          stroke-width:10;
          stroke-linecap:round;
          stroke-linejoin:round;
      }
      @keyframes t0a { 0% { opacity: 1; } 25% { opacity: 0; } }
      #t0a .frame { animation:t0a 0.6666667s calc(var(--index) * 0.1666667s) steps(1) infinite; }

      #t1a {
          --visible:1;
          --timeOffset:3.333334;
          --speed:6;
          --bookmarkIndex:-1;
          --latched:0;
          --playMode:0;
          --masked:0;
          --blendMode:0; 
          --pressureEnabled:0; 
          stroke:#48CED8;
          stroke-opacity:1;
          fill-opacity:0;
          stroke-width:10;
          stroke-linecap:round;
          stroke-linejoin:round;
      }
      @keyframes t1a { 0% { opacity: 1; } 25% { opacity: 0; } }
      #t1a .frame { animation:t1a 0.6666667s calc(var(--index) * 0.1666667s) steps(1) infinite; }

      #t2a {
          --visible:1; 
          --timeOffset:2.5; 
          --speed:6; 
          --bookmarkIndex:-1; 
          --latched:0; 
          --playMode:0; 
          --masked:0; 
          --blendMode:0; 
          --pressureEnabled:0; 
          stroke:#FEFFFF; 
          stroke-opacity:1; 
          fill-opacity:0;
          stroke-width:5;
          stroke-linecap:round; 
          stroke-linejoin:round;
      }
      @keyframes t2a { 0% { opacity: 1; } 20% { opacity: 0; } }
      #t2a .frame { animation:t2a 0.8333334s calc(var(--index) * 0.1666667s) steps(1) infinite; }
  </style>
      <g id="w0" transform="translate(-14.33 306.85) scale(0.64 0.64) rotate(-359.78)" class="weave">
          <g id="t0a" class="thread">
              <g id="f0" style="--index:0; opacity:1;" class="frame">
                  <path d="M348.35,-340.41L344.97,-340.46L339.51,-331.86L338.48,-328.01L337.42,-293.74L340.17,-285.00L340.57,-279.68L341.93,-274.83L348.99,-263.60L356.11,-256.23L360.83,-249.87L369.89,-242.96L376.06,-236.09L383.24,-232.59L389.04,-232.49L396.33,-235.27L402.67,-239.03L410.53,-246.62L411.56,-250.47L410.11,-250.49L410.13,-251.46" />
                  <path d="M400.86,-303.30L400.27,-297.03L402.47,-284.43L407.91,-263.09L409.80,-260.64" />
                  <path d="M351.76,-341.80L349.37,-343.77L353.78,-347.08L363.52,-352.23" />
                  <path d="M341.28,-350.67L342.78,-353.54L343.44,-364.16L346.90,-368.93L353.27,-374.13" />
                  <path d="M335.73,-380.10L332.79,-381.61L328.89,-386.60L314.72,-400.59L305.96,-412.55L303.03,-415.05L294.25,-425.53L290.36,-431.01L281.65,-446.91L275.33,-456.37L272.88,-458.38L268.02,-464.85L263.66,-473.30L255.38,-483.28L246.09,-492.28L237.36,-506.70L227.63,-519.66L221.35,-532.57L215.52,-541.53L214.54,-542.04L214.65,-551.43L217.18,-557.33L220.18,-560.26L222.20,-563.69L227.69,-569.06L243.25,-590.13" />
                  <path d="M210.46,-574.20L207.50,-574.73L197.88,-597.56L185.75,-617.96L175.15,-641.79L164.01,-661.68L156.86,-684.49L145.82,-713.27L144.05,-731.08L149.58,-739.91L156.08,-746.75L155.61,-748.24L156.60,-748.72L169.15,-722.39L178.84,-705.48L190.86,-676.20L203.45,-653.82L209.23,-640.42L214.07,-631.47L218.45,-625.99L225.21,-612.08" />
                  <path d="M243.49,-611.87L241.04,-613.38L225.57,-643.69L223.20,-652.12L211.21,-684.86L204.67,-718.04L194.12,-745.83L192.33,-762.64L187.60,-781.47L187.35,-803.21L185.60,-823.00L185.66,-827.94L188.70,-834.82L190.76,-842.21L196.84,-855.48L196.99,-869.31L200.00,-872.73L202.48,-874.19L206.92,-873.64L210.40,-875.58L215.51,-890.35L217.07,-897.25L218.58,-899.20L230.55,-909.44L235.02,-911.37L239.46,-911.32" />
                  <path d="M244.82,-904.84L242.37,-905.85L242.88,-907.33L251.31,-910.69L253.17,-900.30L259.86,-879.96L266.49,-854.69L274.02,-821.50L281.73,-804.12L287.91,-782.32L293.65,-765.95L297.49,-755.53L308.61,-734.65L313.37,-718.29L317.73,-710.83L323.58,-703.36L326.95,-695.91L329.87,-692.41L331.80,-687.95" />
                  <path d="M317.64,-614.98L319.59,-612.99L325.02,-612.92L327.48,-611.91L334.33,-605.41L340.20,-600.90L342.17,-600.38L342.50,-629.53L341.12,-638.43L340.84,-656.72L339.91,-662.16L340.20,-687.85L338.36,-699.73L333.97,-748.69L334.09,-759.56L335.16,-766.96L334.92,-789.20L338.03,-802.01L339.63,-812.86L340.80,-828.65L339.37,-833.12L339.41,-836.58L341.93,-840.99L343.93,-842.95L352.38,-847.30L356.86,-850.71L360.83,-852.14L371.71,-853.50L374.20,-854.96L378.64,-854.41L382.57,-852.39L389.40,-844.41L391.33,-840.44L393.93,-808.29L395.79,-798.39L397.56,-780.09L401.32,-762.75L403.24,-757.30L404.12,-747.90L405.58,-745.91L406.04,-743.43" />
                  <path d="M406.60,-749.35L406.47,-737.50L408.80,-724.63L411.65,-715.21L414.85,-691.95L419.13,-677.57L422.40,-660.74L424.81,-655.28L424.78,-652.31L422.75,-647.89L421.18,-640.49L425.09,-636.00L427.50,-630.54L427.93,-625.10L429.88,-622.61L436.15,-609.20L438.11,-607.69L441.00,-601.24L444.40,-596.26L447.24,-584.86L447.66,-578.93L448.65,-578.43" />
                  <path d="M444.73,-581.93L443.67,-575.02L443.56,-565.64L440.92,-550.35L441.37,-546.39L439.86,-544.43" />
                  <path d="M403.44,-513.23L401.93,-510.77L404.40,-510.74L419.34,-520.95L421.83,-522.90L420.84,-522.91" />
                  <path d="M444.44,-555.75L442.02,-560.22L442.04,-562.69L443.04,-563.67L445.43,-556.23L449.80,-549.26L450.78,-548.76" />
                  <path d="M453.40,-562.07L448.99,-565.08L447.02,-565.60L450.86,-555.67L455.19,-545.25L472.13,-513.93L484.28,-496.01L507.56,-457.70L513.42,-451.71L522.68,-440.24L539.29,-423.75L547.53,-409.82L553.37,-401.85L555.73,-391.94" />
                  <path d="M429.32,-310.86L426.85,-311.38L426.87,-312.37L435.34,-318.70L452.25,-329.37L463.19,-335.18L482.55,-342.87L490.97,-345.24" />
                  <path d="M554.23,-390.48L553.93,-364.29L552.86,-356.89L552.76,-347.51L555.09,-335.13L555.02,-285.23L543.66,-198.40L538.52,-181.17L537.46,-174.76" />
                  <path d="M335.24,-248.68L334.75,-249.18L332.59,-233.40L330.31,-206.25L328.16,-190.96L327.55,-180.59L324.90,-164.31L324.84,-158.88" />
                  <path d="M334.75,-249.18L332.80,-251.18L333.81,-253.64L334.80,-253.63L334.75,-249.18" />
                  <path d="M227.61,-780.53L227.06,-775.59L233.58,-740.44L239.22,-714.68L245.87,-691.39" />
              </g>
              <g id="f1" style="--index:1; opacity:0;" class="frame">
                  <path d="M313.24,-106.73L313.18,-102.05L312.47,-99.38L311.79,-98.72L311.81,-100.06L313.95,-109.39L317.05,-139.44L321.36,-160.77L321.44,-166.12L323.64,-180.13L326.47,-190.79L328.00,-204.14L330.85,-216.81L331.64,-225.49L334.47,-236.15L334.52,-240.16L335.23,-242.82L335.90,-242.81L337.96,-246.80L337.98,-248.13L337.31,-248.14" />
                  <path transform="translate(0.00 0.00)" d="M309.64,-88.72L309.64,-88.06L309.64,-88.72" />
                  <path d="M309.65,-89.39L309.64,-88.72L309.65,-89.39" />
                  <path d="M309.66,-90.06L309.65,-89.39L309.66,-90.06" />
                  <path d="M311.79,-98.72L311.75,-96.05L309.66,-90.06L311.79,-98.72" />
                  <path d="M385.21,-230.75L380.59,-234.83L370.64,-240.98L364.69,-245.75L359.46,-253.85L346.27,-266.74L337.08,-278.91L333.89,-289.65L332.11,-305.72L332.30,-319.09L332.98,-319.75L333.76,-327.76L340.59,-337.70L350.06,-345.59L354.83,-352.21" />
                  <path d="M389.90,-231.35L404.01,-236.50L407.43,-241.80L408.88,-249.80L408.95,-254.48L411.07,-262.48L411.30,-278.52L409.46,-290.58L409.57,-298.61L407.11,-313.35L407.35,-330.73" />
                  <path d="M356.98,-362.21L355.57,-356.88L354.21,-355.56L354.40,-368.93L355.78,-371.58L361.88,-377.52L365.24,-378.81L366.61,-380.79L378.77,-389.98L382.89,-397.28L386.40,-409.26L386.51,-417.29L388.73,-431.97L389.61,-446.66L391.04,-453.33L392.74,-479.38L393.52,-486.73L394.92,-491.39L395.13,-506.10L395.83,-508.76" />
                  <path d="M341.85,-379.81L339.90,-383.85L337.26,-385.89L333.32,-391.29L310.25,-415.02L303.69,-423.81L299.14,-432.57L280.75,-456.23L267.68,-477.81L264.43,-484.55L251.97,-501.44L240.26,-524.34L225.80,-542.60L225.17,-545.28L219.97,-555.39L220.00,-557.39L216.73,-562.79L216.15,-569.48L218.20,-572.13L224.99,-579.39L227.00,-580.03L230.39,-583.32L233.09,-584.62L233.77,-585.95L241.19,-590.52L246.62,-595.80L248.67,-599.11L250.69,-600.42L252.07,-603.07" />
                  <path d="M212.18,-572.21L199.03,-587.78L192.49,-598.57L183.44,-620.09L176.90,-630.22L165.83,-651.77L162.63,-661.85L161.31,-663.20L160.68,-665.89L159.37,-667.24L154.83,-677.34L154.86,-679.34L153.56,-682.04L152.23,-682.72L147.65,-690.14L143.20,-706.25L140.60,-711.64L138.87,-731.06L139.60,-735.06L140.94,-735.71L148.45,-746.30L148.48,-748.31L151.80,-746.92L161.61,-731.40L172.68,-710.52L180.56,-700.38L185.79,-691.61L195.54,-672.08L202.66,-655.26L207.91,-648.50L219.60,-623.59L227.46,-612.12L234.04,-604.67L233.97,-599.99L233.30,-600.00" />
                  <path d="M250.84,-610.45" />
                  <path d="M253.45,-606.40L250.21,-613.13L245.73,-627.24L233.47,-658.84L223.72,-679.04L217.27,-695.17L216.65,-698.53L210.80,-710.65L207.60,-720.72L197.84,-739.58L192.71,-755.03L190.85,-765.76L185.76,-783.88L185.80,-786.56L182.03,-804.00L182.35,-826.73L181.70,-828.07L181.86,-839.44L181.21,-840.12L181.24,-842.79L184.70,-850.77L188.77,-854.72L192.87,-861.35L200.33,-868.60L203.06,-872.57L205.13,-877.22L205.16,-879.23L205.83,-879.22L205.87,-881.89L213.48,-899.84L222.92,-905.72L227.75,-916.35L232.50,-920.97L235.85,-921.59L239.82,-918.19L246.93,-901.37L248.91,-899.34L248.89,-898.00L254.11,-888.57L256.09,-886.53L256.07,-885.19L263.90,-871.71L278.75,-834.05L286.56,-819.23L287.19,-816.55L294.38,-805.08L300.22,-792.29L313.73,-754.66L314.99,-749.29L326.63,-721.04L329.77,-706.95L330.31,-697.59" />
                  <path d="M323.07,-611.43L317.05,-611.52L329.80,-614.68L339.23,-619.89L339.92,-621.22L344.60,-621.16L344.75,-631.85L343.47,-635.88L342.33,-649.94L342.69,-675.34L341.52,-686.73L341.82,-708.12L338.74,-726.89L338.85,-734.24L338.21,-736.26L338.53,-758.99L340.01,-769.00L340.34,-792.39L339.26,-810.46L341.40,-819.79L341.47,-825.14L342.19,-828.48L346.33,-837.78L363.20,-848.24L368.55,-848.16L387.09,-835.86L391.70,-830.45L395.60,-822.37L395.56,-819.70L400.60,-798.23L401.20,-792.87L402.50,-790.18L407.54,-768.71L414.37,-731.83L415.66,-728.47L423.16,-690.92L426.00,-655.44L427.26,-650.07L429.00,-631.33L430.89,-623.28L430.80,-616.59L433.29,-603.85L434.59,-601.16L434.55,-598.48L437.14,-592.43" />
                  <path d="M309.67,-609.61L309.00,-609.62L309.67,-609.61" />
                  <path d="M317.05,-611.52L313.04,-611.57L309.68,-610.28L309.67,-609.61L317.05,-611.52" />
                  <path d="M437.76,-589.08L437.04,-585.08L447.96,-554.16L453.03,-534.03L453.57,-525.33L468.75,-511.07L472.70,-506.34L472.68,-505.00L476.59,-498.26L479.90,-495.54L485.14,-488.11L490.44,-484.69L504.27,-469.11L507.51,-462.38L516.02,-449.55L525.23,-438.73L535.64,-418.52L538.94,-415.13L543.52,-407.71L544.18,-407.70L544.16,-406.36" />
                  <path d="M536.15,-407.14L539.49,-406.43L544.78,-402.34L550.67,-393.56L551.95,-389.53L551.83,-380.84L551.15,-380.18L550.37,-372.17L549.85,-335.40L547.65,-322.06L547.42,-306.02L545.92,-294.00L543.78,-284.67L542.93,-271.98L539.99,-253.30L539.83,-241.93L538.42,-236.60L537.49,-218.56L536.04,-210.56L535.68,-185.15L534.99,-183.83L534.79,-169.12L535.44,-167.77L536.56,-152.38L536.61,-108.91L537.74,-94.19L537.41,-71.46L539.16,-53.38L539.56,-33.98" />
                  <path d="M534.90,-177.14L534.91,-177.81L534.90,-177.14" />
                  <path d="M539.55,-33.31L539.54,-32.64L539.55,-33.31" />
                  <path d="M439.92,-316.90L434.57,-316.98L430.54,-315.70L427.87,-315.73L423.16,-313.79L421.83,-313.81L422.50,-314.47L429.91,-318.38L454.90,-335.41L463.65,-339.97L477.77,-345.12L496.55,-349.53L503.24,-349.44L505.23,-348.74L505.23,-348.07L507.90,-348.03L507.89,-347.36" />
                  <path d="M421.83,-313.81L421.16,-313.82L421.83,-313.81" />
              </g>
              <g id="f2" style="--index:2; opacity:0;" class="frame">
                  <path d="M330.68,-393.34L315.54,-410.27L305.73,-425.79L285.35,-450.82L265.75,-483.19L251.97,-501.44L239.59,-524.35L234.97,-529.09L229.77,-539.20L223.19,-546.65L221.27,-552.69L219.30,-555.39L219.32,-556.73L218.65,-556.74L218.69,-559.42L224.86,-570.03L230.30,-576.64L237.76,-583.89L244.59,-594.49L248.74,-603.79L248.77,-606.46L250.17,-610.46L250.28,-618.48L249.66,-621.83L243.81,-633.28" />
                  <path d="M245.63,-620.55L235.36,-650.79L223.73,-679.70L217.97,-697.84L216.73,-704.54L210.98,-723.35L207.93,-744.12L206.01,-750.16L204.23,-766.24L200.35,-775.65L199.73,-779.01L195.67,-822.53L193.77,-829.91L193.33,-846.63L194.02,-847.96L194.10,-853.31L196.19,-859.30L200.94,-864.58L202.35,-869.24L202.43,-875.26L203.11,-875.91L203.76,-874.57L206.29,-864.50L212.53,-832.99L216.38,-821.57L216.96,-814.87" />
                  <path d="M218.83,-852.96L214.14,-852.36L211.45,-851.06L206.77,-851.12L205.45,-852.48L205.52,-857.16L213.13,-875.10L222.74,-893.02L226.21,-901.67L230.98,-908.28L233.06,-912.94L233.72,-912.93L240.26,-902.14L247.51,-894.68L252.74,-886.58L261.79,-864.39L264.98,-853.64L266.29,-851.62L267.52,-844.24L270.71,-833.50L276.50,-817.37L285.63,-800.52L290.81,-789.08L299.95,-773.57L301.93,-771.54L311.01,-751.35L321.97,-723.11L323.29,-721.76L325.22,-716.38L327.84,-712.33L331.65,-698.24L333.47,-684.84L334.14,-684.83" />
                  <path d="M233.72,-912.93L233.73,-913.59L233.72,-912.93" />
                  <path d="M210.19,-573.58L205.59,-578.99L195.12,-595.19L175.60,-632.91L169.12,-647.71L163.87,-655.14L161.31,-662.53L152.19,-680.05L151.57,-683.40L145.09,-698.20L143.21,-706.92L139.98,-714.99L140.01,-717.00L138.69,-718.35L138.80,-725.71L140.20,-730.37L144.32,-737.67L147.03,-740.30L151.81,-747.59L160.86,-725.40L166.07,-715.96L171.88,-701.17L182.37,-686.31L186.92,-676.88L193.50,-669.43L194.14,-667.42L200.04,-659.31L201.33,-655.95L205.93,-649.87" />
                  <path d="M151.81,-747.59L151.82,-748.26L151.81,-747.59" />
                  <path d="M312.45,-616.93L315.16,-619.57L329.84,-617.35L344.55,-617.14L348.55,-616.42L349.22,-617.08" />
                  <path d="M346.65,-623.80L345.93,-620.47L345.28,-621.81L343.32,-671.99L339.07,-702.81L338.87,-783.05L337.02,-793.78L336.53,-806.49L335.25,-810.52L336.17,-828.56L336.84,-828.55L340.93,-833.84L353.76,-843.02L363.25,-852.25L365.27,-852.89L368.61,-852.84L368.60,-852.17L373.24,-848.76L381.77,-837.94L386.33,-829.19L396.95,-776.21L400.78,-763.45L401.65,-730.68L404.24,-724.62" />
                  <path d="M410.34,-730.55L409.07,-735.25L408.40,-735.26L408.76,-713.19L412.86,-672.34L415.90,-650.90L417.79,-642.85L420.37,-636.13L423.49,-620.04L428.55,-599.91L429.84,-596.54L431.17,-595.86L432.31,-581.80L435.55,-574.40L436.87,-573.71L440.12,-566.98L441.37,-560.94" />
                  <path d="M439.66,-581.69L436.95,-579.06L436.87,-573.71L438.12,-567.01L452.25,-526.02L460.69,-508.51L473.87,-494.95L476.48,-490.23L483.08,-484.12L488.98,-476.02L492.96,-473.28L496.91,-469.22L506.71,-453.03L515.23,-440.87L525.10,-429.37L528.36,-423.30L534.93,-415.19L536.23,-412.49L546.76,-400.98L546.71,-396.96L549.26,-388.24L549.76,-376.19L552.17,-358.10L551.67,-322.67L547.99,-298.65L545.16,-287.99L535.74,-236.64L530.86,-175.19L530.93,-133.06L531.56,-130.38L531.06,-47.47L531.72,-46.80" />
                  <path d="M337.39,-253.49L338.10,-256.82L337.44,-256.83L336.74,-254.84L335.26,-244.83L335.19,-240.15L329.22,-196.10L328.25,-174.72L325.31,-156.04L322.51,-147.38L321.06,-139.38L320.24,-128.69L313.74,-94.68L312.12,-74.65L307.18,-56.66L307.11,-51.31L305.70,-45.99" />
                  <path d="M397.31,-235.26L393.98,-235.97L386.02,-240.77L378.05,-244.22L371.42,-248.33L370.08,-248.35L360.81,-254.50L356.18,-258.57L353.58,-263.96L347.02,-272.75L343.71,-274.80L337.79,-281.57L334.55,-288.97L333.94,-292.99L332.64,-295.68L330.14,-308.42L330.20,-312.44L332.33,-321.10L336.46,-329.73L347.99,-340.94L352.81,-350.90L352.84,-352.90L349.57,-358.30L347.64,-363.68L347.72,-369.02L349.07,-370.34L349.09,-371.68L353.15,-374.97L357.19,-376.91L363.89,-378.16L369.32,-383.43L371.37,-386.74L372.72,-387.39L375.48,-393.37L376.26,-401.38L375.67,-406.74L380.46,-414.70L383.23,-421.35L383.54,-443.41L385.72,-455.41L385.87,-466.11L390.13,-483.43" />
                  <path d="M388.95,-353.06L395.58,-348.96L402.26,-348.86L404.26,-348.16L404.13,-338.80L407.24,-322.71L410.15,-291.91L413.86,-270.46L413.65,-255.75L415.49,-244.36L415.40,-237.68L408.05,-238.45L406.74,-239.80" />
                  <path d="M435.26,-318.30L431.91,-317.68L431.93,-319.02L435.31,-321.65L453.53,-333.42L464.31,-339.29L482.46,-345.72L499.96,-354.16L506.66,-354.74" />
              </g>
              <g id="f3" style="--index:3; opacity:0;" class="frame">
                  <path d="M300.53,-11.96L299.96,-18.65L303.51,-33.31L304.40,-48.68L306.53,-58.01L309.30,-64.66L316.40,-93.31L318.02,-113.35L321.65,-134.02L322.50,-146.72L327.42,-163.36L327.58,-174.73L329.82,-191.41L330.02,-205.45L332.21,-218.13L333.90,-243.51L336.06,-254.18L341.48,-259.45" />
                  <path d="M367.55,-352.70L362.88,-353.43L348.56,-334.24L339.07,-325.01L336.29,-317.70L336.16,-308.34L338.61,-292.26L341.16,-283.53L346.97,-268.74L351.40,-251.29L359.88,-236.46L367.13,-229.00L373.11,-226.24L381.13,-226.13L389.21,-230.02L396.68,-237.94L398.02,-237.92L398.03,-238.59L400.72,-239.89L406.83,-246.49" />
                  <path d="M401.81,-316.77L401.20,-320.79L402.49,-318.10L405.58,-300.00L409.20,-271.87L408.84,-247.13L409.51,-247.12" />
                  <path d="M352.12,-349.57L354.23,-356.90L359.02,-364.18L363.17,-374.15L364.52,-375.47L365.24,-378.81L365.91,-378.80L371.36,-386.07L374.06,-388.04L379.52,-395.32" />
                  <path d="M383.65,-403.95L383.04,-407.98L388.92,-445.34L390.50,-462.70L390.18,-487.45L391.54,-488.76" />
                  <path d="M314.96,-605.53L313.67,-608.89L313.00,-608.90L341.75,-608.49L343.08,-607.80L350.43,-607.70L351.11,-608.36L350.44,-608.37L349.81,-611.05L349.91,-618.41L347.46,-633.82L347.91,-713.38L346.06,-724.11L346.28,-739.49L345.13,-752.87L343.86,-757.57L342.19,-781.67L342.73,-819.78L341.44,-823.14L340.78,-823.15L340.81,-825.82L355.66,-835.64L359.74,-840.26L366.49,-844.85L367.19,-846.84L371.94,-851.46L373.95,-852.10" />
                  <path d="M313.00,-608.90L312.33,-608.91L313.00,-608.90" />
                  <path d="M388.63,-849.88L388.55,-844.54" />
                  <path d="M391.05,-831.80L391.54,-819.08L395.16,-791.62L395.08,-786.27L398.77,-763.48L403.82,-742.01L405.79,-739.31L405.77,-737.97" />
                  <path d="M407.64,-728.59L413.34,-705.77L418.08,-662.91L419.99,-656.20L419.84,-645.50L420.51,-645.49L420.48,-643.48L421.15,-643.47" />
                  <path d="M407.64,-728.59L405.07,-735.98L407.64,-728.59" />
                  <path d="M419.85,-646.17L416.52,-647.55L418.50,-645.52L421.75,-638.79L428.13,-617.30L431.37,-609.90L437.90,-599.10L441.07,-587.02L443.68,-582.31L445.55,-572.25L445.49,-568.24L448.06,-560.85L447.96,-554.16L449.28,-552.81L450.55,-548.11L454.49,-542.70L461.09,-536.59L465.67,-529.84L475.55,-519.00L480.11,-510.24L482.73,-506.86L487.25,-495.43L497.04,-478.58L502.22,-466.47L507.47,-459.04L511.32,-447.62L515.89,-440.20L519.20,-437.47L523.11,-430.73L524.44,-430.04L525.04,-425.36L528.31,-419.96L531.60,-416.57L531.56,-413.23L532.23,-413.22L533.52,-409.86" />
                  <path d="M538.11,-403.77L536.77,-403.79L537.41,-401.78L542.65,-393.68L546.48,-380.92L548.21,-361.50L546.82,-357.51L544.33,-323.44L541.40,-305.43L541.30,-298.75L537.69,-279.41L537.61,-274.06L535.42,-261.38L533.93,-155.76L530.81,-124.37L529.63,-88.28L527.11,-52.21L526.71,-24.13" />
                  <path d="M536.77,-403.79L534.77,-403.82L534.81,-406.49L536.77,-403.79" />
                  <path d="M439.97,-320.24" />
                  <path d="M437.29,-319.61L433.92,-317.65L433.25,-317.66L435.28,-319.64L451.50,-331.45L459.59,-336.68L472.38,-342.52L476.43,-345.14L488.53,-349.64L491.21,-349.61L493.21,-349.58L492.48,-344.91" />
                  <path d="M329.99,-722.33L329.27,-719.00L328.60,-719.01L328.63,-721.01L326.05,-727.74L311.14,-760.71L305.33,-775.50L296.23,-793.69L289.12,-811.17L282.61,-823.97L280.68,-829.35L276.30,-850.14L274.37,-855.51L265.94,-874.36L262.66,-878.41L256.24,-897.23L253.63,-901.95L249.67,-906.01L249.04,-908.70L247.72,-909.38L246.42,-912.08L241.11,-914.83L240.46,-916.17L238.44,-915.53L231.61,-904.93L226.16,-898.32L224.11,-895.01L223.39,-891.68L219.98,-887.04L219.31,-886.38L213.95,-885.79L212.56,-882.47L211.22,-881.82L211.72,-869.78L210.29,-863.78L210.17,-855.09L211.41,-848.38L212.48,-829.64L215.00,-818.24L214.95,-814.90L216.24,-811.54L216.19,-808.19L219.89,-786.08L223.68,-770.64L224.21,-760.61L226.17,-757.23" />
                  <path d="M210.30,-864.45L211.69,-867.77L211.05,-869.78L210.39,-870.46L205.04,-870.54L194.94,-865.33L191.56,-862.71L188.15,-858.07L184.69,-850.10L184.63,-846.09L181.86,-838.77L181.02,-826.75L181.51,-814.04L182.07,-806.67L183.94,-797.28L189.68,-777.14L190.85,-765.76L199.14,-737.56L202.29,-723.47L213.97,-698.56L221.62,-672.38L222.93,-670.35L222.90,-667.68L227.31,-648.89L230.55,-641.49L235.67,-625.37L238.94,-619.98L240.19,-613.94L241.47,-609.91L242.79,-608.56L246.60,-594.46L246.56,-591.79L244.56,-591.81L238.48,-587.89L237.14,-587.91L226.37,-582.71L224.37,-582.74" />
                  <path d="M211.30,-651.80L212.56,-646.43L209.27,-649.82L200.73,-660.64L195.49,-668.74L188.99,-681.53L187.71,-685.56L172.05,-713.20L162.39,-739.42L161.18,-748.13L161.26,-753.47L159.96,-756.17" />
                  <path d="M158.63,-756.85L154.61,-756.24L144.49,-749.70L138.40,-745.10L137.01,-741.11L136.26,-735.77L135.60,-735.78L136.13,-726.41L139.93,-710.98L142.51,-704.93L142.46,-700.92L148.92,-684.78L152.10,-673.36L162.52,-653.82L164.40,-645.11L168.31,-637.69L172.15,-625.60L174.78,-622.22L174.76,-620.89L182.67,-612.75L189.21,-602.63L193.83,-598.55L198.37,-588.46L200.99,-584.41L202.90,-577.69L204.23,-577.01" />
                  <path d="M134.89,-733.12L134.88,-732.45L134.89,-733.12" />
                  <path d="M134.90,-733.79L134.89,-733.12L134.90,-733.79" />
                  <path d="M135.57,-733.78L134.90,-733.79L135.57,-733.78" />
                  <path d="M135.58,-734.45L135.57,-733.78L135.58,-734.45" />
                  <path d="M135.59,-735.11L135.58,-734.45L135.59,-735.11" />
                  <path d="M135.59,-735.11L135.60,-735.78L135.59,-735.11" />
                  <path d="M212.82,-570.20L210.90,-576.24L210.23,-576.25L210.26,-578.26L209.60,-578.94L208.92,-578.28L208.17,-572.27L207.91,-553.55L209.13,-545.51L211.06,-540.13L213.03,-537.43L212.96,-532.75L215.50,-523.35L223.40,-514.55L229.28,-505.10L235.89,-499.66L242.47,-491.54L248.43,-487.45L250.37,-483.41" />
                  <path d="M209.60,-578.94L209.61,-579.60L209.60,-578.94" />
                  <path d="M260.40,-483.27L254.47,-489.37L270.15,-463.07L277.94,-446.91L287.14,-435.41L292.99,-423.29L297.56,-415.87L305.47,-407.74L310.78,-404.99L316.73,-400.22L320.06,-399.51L322.05,-398.14L327.98,-392.04L330.60,-387.99" />
                  <path d="M254.47,-489.37L253.81,-490.05L254.47,-489.37" />
                  <path d="M254.47,-489.37L254.47,-489.37" />
              </g>
          </g>
          <g id="t1a" class="thread">
              <g id="f0" style="--index:0; opacity:1;" class="frame">
                  <path d="M-391.58,-364.49L-396.63,-349.30L-404.27,-315.78L-407.65,-305.14L-411.96,-297.60" />
                  <path d="M-399.68,-315.13L-403.35,-312.17L-410.26,-303.18L-415.12,-294.63L-416.85,-288.03L-419.42,-287.60L-421.11,-282.02L-403.00,-254.90L-402.05,-252.32L-401.06,-251.26L-400.02,-251.74" />
                  <path d="M-417.36,-288.05L-417.37,-287.53L-417.36,-288.05" />
                  <path d="M-395.95,-251.11L-393.32,-253.59L-376.81,-258.73L-363.28,-266.51L-351.28,-274.85" />
                  <path d="M-350.77,-274.83L-350.24,-275.33L-350.77,-274.83" />
                  <path d="M-350.77,-274.83L-350.77,-274.83" />
                  <path d="M-353.32,-274.91L-345.75,-289.00L-340.77,-301.64L-335.60,-320.91L-334.79,-331.11" />
                  <path d="M-368.78,-409.32L-370.69,-409.76L-366.43,-402.61L-356.83,-381.36L-352.58,-369.47L-348.22,-361.16L-342.35,-352.30L-338.64,-339.41L-335.75,-333.19" />
                  <path d="M-370.69,-409.76L-371.32,-409.91L-370.69,-409.76" />
                  <path d="M-379.60,-441.34L-379.76,-453.11L-365.83,-526.83L-366.11,-534.51" />
                  <path d="M-468.07,-388.73L-467.64,-386.16L-453.56,-378.08L-448.60,-372.82L-448.16,-370.25L-444.80,-362.99L-441.30,-360.33L-424.55,-356.26L-416.49,-351.93L-411.93,-350.77L-406.92,-347.05" />
                  <path d="M-527.57,-399.69L-527.66,-396.63L-529.87,-391.07L-530.08,-383.92" />
                  <path d="M-550.61,-121.21L-557.79,-172.55L-559.86,-206.35L-559.86,-241.12L-558.29,-294.25L-558.80,-294.27L-558.60,-300.91L-559.46,-306.56L-559.25,-313.71L-556.77,-328.46L-555.75,-345.82L-552.21,-361.56L-544.23,-389.45L-537.00,-409.17L-533.59,-420.83L-530.60,-435.57L-523.46,-452.23L-522.23,-459.36L-520.12,-461.34" />
                  <path d="M-549.68,-118.11L-549.71,-117.09L-549.68,-118.11" />
                  <path d="M-550.61,-121.21L-549.68,-118.11L-550.61,-121.21" />
                  <path d="M-521.67,-443.49L-524.75,-443.07L-525.30,-442.06L-525.23,-444.11L-515.09,-458.63L-506.99,-473.22L-489.50,-494.18L-482.54,-504.71L-470.34,-519.69L-461.20,-534.76L-455.89,-541.76L-442.66,-556.71L-431.33,-576.83L-429.77,-577.80L-427.03,-583.86L-424.96,-584.82" />
                  <path d="M-414.20,-585.52L-414.79,-582.98L-416.32,-583.03L-417.15,-589.70L-415.87,-615.74L-411.90,-628.91L-408.11,-635.96L-398.52,-648.97L-397.41,-652.01" />
                  <path d="M-398.04,-647.94L-398.96,-651.54L-393.94,-665.71L-387.55,-691.60L-382.52,-706.28L-379.62,-717.95L-375.24,-744.92L-368.78,-773.36L-358.22,-836.45L-357.74,-852.80L-356.72,-852.77L-346.29,-859.62L-335.82,-868.00L-332.18,-869.94L-325.53,-870.25L-321.89,-872.19L-314.24,-871.45L-311.28,-867.79L-308.53,-856.97L-305.88,-825.70L-302.33,-807.19L-301.72,-775.98L-302.76,-740.73L-302.03,-713.61L-300.81,-702.84L-300.32,-667.55" />
                  <path d="M-298.65,-672.10L-298.56,-675.17L-299.55,-676.22L-299.60,-674.68L-298.35,-647.55L-283.58,-645.58L-279.03,-643.91L-275.46,-643.81L-272.84,-645.77" />
                  <path d="M-293.76,-716.44L-295.87,-714.46L-295.79,-717.01L-289.72,-732.17L-272.66,-790.46L-258.23,-828.90L-250.36,-853.21L-246.51,-862.30L-242.50,-877.00L-235.34,-894.18L-231.06,-900.70" />
                  <path d="M-230.38,-880.89L-233.06,-882.67L-232.80,-888.17L-229.66,-896.30L-221.83,-910.27L-211.85,-923.04L-210.02,-926.81L-203.83,-929.28L-200.38,-932.42L-196.24,-938.30L-192.86,-939.79L-189.56,-939.64L-178.02,-926.96L-176.58,-922.48L-171.93,-915.64L-170.54,-910.06L-168.44,-907.75L-162.02,-903.59L-154.87,-903.25L-154.34,-902.68L-149.36,-891.41L-145.39,-870.27L-146.06,-844.37L-148.20,-833.99L-149.40,-820.26L-152.72,-808.28L-153.63,-800.60L-155.67,-792.43L-160.07,-781.05L-160.85,-776.12L-175.42,-724.41L-182.28,-707.63L-193.53,-667.90L-197.87,-657.62L-202.66,-637.99" />
                  <path d="M-209.44,-927.34L-209.99,-927.36L-209.44,-927.34" />
                  <path d="M-220.65,-618.98L-209.46,-610.73L-208.23,-613.43L-198.40,-622.90L-194.22,-629.87L-189.11,-644.53L-186.10,-649.90L-176.07,-663.77L-168.85,-676.67L-164.53,-686.39L-138.00,-722.65L-134.39,-729.10L-132.68,-730.12L-127.99,-735.97L-126.79,-738.12L-126.69,-740.32L-125.04,-740.24L-122.41,-737.36L-118.11,-734.95L-106.47,-724.47L-105.48,-722.22L-105.66,-718.37L-109.53,-706.41L-111.15,-695.46L-116.80,-680.83L-120.73,-667.78L-146.85,-616.61L-154.29,-599.31L-164.39,-583.79L-170.73,-578.02L-180.66,-566.36" />
                  <path d="M-181.34,-563.63L-181.66,-564.56L-185.48,-557.76L-199.09,-537.99L-204.54,-527.77L-218.63,-509.68L-231.20,-488.76L-245.73,-472.89L-256.37,-457.95L-268.02,-444.71L-282.82,-423.34L-292.09,-413.85L-300.34,-402.66L-308.98,-394.79L-318.33,-383.65L-319.46,-383.15L-323.12,-375.60L-324.25,-375.10L-324.90,-372.93L-326.03,-372.43L-327.23,-370.28" />
                  <path d="M-181.66,-564.56L-182.26,-567.53L-179.30,-571.81L-179.46,-568.50L-181.66,-564.56" />
                  <path d="M-318.01,-378.67L-320.92,-375.50L-324.30,-362.42" />
                  <path d="M-333.92,-275.17L-334.94,-265.29L-335.75,-224.51L-333.86,-206.22L-333.35,-181.93L-330.68,-144.85" />
                  <path d="M-330.74,-143.57L-330.78,-142.65L-330.74,-143.57" />
              </g>
              <g id="f1" style="--index:1; opacity:0;" class="frame">
                  <path d="M-334.25,-43.68L-335.52,-48.38L-333.72,-127.93L-334.33,-132.62L-333.97,-158.02L-334.53,-165.38L-334.01,-202.15L-332.47,-216.84L-332.16,-238.24L-330.66,-249.58L-330.41,-267.63" />
                  <path d="M-394.63,-360.15L-394.21,-342.09L-400.55,-319.44L-408.15,-302.17L-413.76,-284.19L-416.48,-280.89L-417.82,-280.91L-419.85,-278.93L-419.89,-276.25L-409.96,-268.76L-397.43,-256.54L-394.11,-255.16L-385.42,-255.04L-379.35,-258.29L-368.51,-268.17L-364.47,-270.79L-360.45,-271.40L-355.69,-276.68L-354.99,-278.68L-338.72,-294.50L-334.63,-299.79L-336.65,-299.15" />
                  <path d="M-329.98,-345.19L-330.15,-333.16L-332.36,-318.48L-333.25,-303.11" />
                  <path d="M-355.34,-395.70L-355.51,-397.04L-354.02,-394.34L-347.55,-379.54L-339.70,-366.73L-325.92,-348.48L-326.59,-348.49" />
                  <path d="M-355.51,-397.04L-355.91,-402.39L-358.51,-407.78L-358.54,-405.78L-355.51,-397.04" />
                  <path d="M-325.92,-348.48L-325.93,-347.81L-325.92,-348.48" />
                  <path d="M-406.08,-354.29L-403.44,-351.58L-405.45,-351.61L-412.09,-354.38L-422.08,-357.19L-439.32,-367.47L-446.63,-370.91L-451.91,-375.67L-464.42,-389.89L-473.03,-395.36L-480.36,-397.47L-489.72,-397.60" />
                  <path d="M-557.70,-82.96L-559.15,-169.23L-557.85,-260.82L-556.25,-279.52L-554.04,-293.53L-553.14,-310.24L-549.47,-333.59L-549.25,-348.97L-547.76,-359.64L-545.67,-365.63L-544.64,-391.03L-543.96,-391.69L-543.20,-398.36L-539.05,-407.66L-527.44,-424.88L-527.42,-426.22L-520.54,-440.17L-507.58,-458.04L-500.04,-471.30L-493.80,-487.26L-485.58,-500.52L-478.02,-515.12L-475.99,-517.10L-471.18,-525.72L-469.15,-527.70L-462.30,-538.97L-451.42,-552.19L-443.90,-563.45L-438.47,-569.39L-426.87,-585.95L-422.81,-589.23L-422.11,-591.23L-418.73,-593.85L-416.68,-597.17" />
                  <path d="M-411.50,-585.06L-414.84,-585.11L-415.47,-588.46L-415.32,-598.49L-415.26,-603.17L-410.90,-627.18L-399.78,-657.11L-394.99,-665.06L-392.95,-667.04L-388.08,-681.01L-387.27,-690.36L-383.08,-703.01L-379.51,-719.01L-378.14,-721.66L-375.94,-735.00L-375.87,-740.35L-370.22,-761.67L-369.33,-777.04L-360.85,-809.01L-356.43,-838.37L-353.64,-846.36L-353.57,-851.04L-351.48,-857.02L-350.11,-859.68L-348.09,-860.32L-348.08,-860.99L-343.39,-861.59L-322.57,-867.98L-317.24,-866.57L-315.97,-861.87L-316.02,-858.53L-314.73,-855.17L-313.56,-843.11L-313.41,-807.00L-304.34,-739.34L-304.61,-719.95L-303.36,-713.92L-303.64,-693.86L-302.39,-687.83L-302.63,-671.11L-301.98,-669.77L-302.38,-641.02L-301.04,-641.67L-295.69,-641.59L-287.64,-643.48L-280.29,-643.38L-276.97,-641.33L-275.66,-639.30" />
                  <path d="M-286.00,-711.66L-289.37,-710.38L-289.33,-713.05L-280.15,-747.02L-273.62,-783.71L-268.03,-800.34L-258.09,-841.66L-250.38,-866.29L-245.56,-876.25L-240.69,-889.56L-234.54,-898.83L-233.11,-905.50L-226.93,-916.78L-226.23,-919.44L-225.56,-919.43L-221.46,-925.39L-212.72,-928.61L-208.00,-931.22L-201.90,-937.15L-197.23,-936.42L-195.24,-935.72L-193.26,-933.69L-188.01,-926.92L-187.37,-924.91L-180.81,-915.46L-176.19,-911.38L-175.56,-908.69L-170.30,-902.60L-168.30,-901.90L-157.60,-901.75L-154.97,-899.04L-148.45,-886.91L-147.83,-883.56L-147.22,-879.54L-147.57,-854.80L-148.26,-853.48L-151.40,-820.76L-152.83,-814.09L-153.68,-801.40L-155.09,-796.07L-157.33,-779.38L-163.69,-755.40L-166.62,-737.39L-170.86,-721.40L-170.89,-718.73L-180.70,-687.44L-186.24,-674.14L-187.59,-672.83L-191.76,-661.52L-193.12,-660.20L-196.60,-650.89L-199.33,-646.91L-204.86,-633.62L-207.67,-624.30L-210.35,-623.67L-210.40,-620.32L-207.13,-615.60L-204.49,-612.89L-196.53,-608.09L-196.54,-607.42L-196.53,-608.09" />
                  <path d="M-205.22,-608.21L-207.85,-611.60L-203.19,-610.19L-187.95,-600.61" />
                  <path d="M-187.28,-600.61L-187.29,-599.94L-187.28,-600.61" />
                  <path d="M-185.44,-636.02L-186.83,-632.03L-186.06,-639.37L-173.59,-669.95L-159.22,-693.15L-153.68,-706.45L-142.76,-722.34L-140.67,-728.33L-140.62,-731.67L-138.59,-733.65L-129.19,-736.19L-110.47,-735.93L-107.12,-736.55L-106.46,-735.87L-106.49,-733.86L-110.67,-721.89L-114.21,-707.89L-117.14,-689.88L-118.53,-686.56L-118.58,-682.55L-119.99,-677.89L-120.80,-667.87L-124.98,-655.89L-125.65,-655.90L-125.67,-654.56L-127.02,-653.25L-127.05,-651.24L-129.80,-645.93L-130.52,-642.60" />
                  <path d="M-127.03,-652.58L-126.99,-655.25L-134.56,-640.65L-145.49,-624.09L-152.41,-607.47L-161.97,-593.56L-162.64,-593.57L-166.08,-586.26L-171.55,-578.32L-172.95,-573.66L-174.31,-572.34L-177.07,-565.69L-181.14,-561.74L-182.53,-558.41L-184.53,-558.44L-196.77,-543.90L-208.39,-526.68L-211.83,-519.38L-227.51,-498.20L-232.31,-489.58L-233.66,-488.93L-234.36,-486.93L-243.23,-474.35L-247.32,-469.06L-256.81,-459.83L-262.25,-453.22L-264.95,-451.26L-281.98,-429.43L-294.20,-416.23L-299.68,-406.95L-301.72,-404.97L-301.74,-403.63L-310.61,-391.05L-314.67,-387.10L-316.06,-383.78" />
                  <path d="M-126.99,-655.25L-126.98,-655.92L-126.99,-655.25" />
                  <path d="M-327.58,-278.29L-327.53,-282.30L-328.84,-283.66L-331.23,-256.94L-331.76,-219.51L-332.56,-210.16L-332.72,-198.79L-331.02,-177.37L-332.11,-100.49L-330.40,-79.07L-330.84,-48.32" />
              </g>
              <g id="f2" style="--index:2; opacity:0;" class="frame">
                  <path d="M-556.69,-59.54L-556.73,-103.67L-557.74,-127.09L-559.50,-144.50L-560.34,-179.28L-559.68,-226.08L-556.38,-270.16L-551.98,-297.52L-551.14,-309.54L-545.38,-338.88L-544.57,-348.90L-538.20,-373.55L-538.77,-380.24L-535.28,-390.89L-529.78,-401.51L-520.08,-425.45L-511.80,-443.39L-500.12,-465.29L-484.37,-491.81L-481.66,-494.45L-474.82,-505.05L-463.15,-526.28L-441.99,-556.74L-436.48,-568.03L-429.65,-578.63L-427.56,-583.95L-422.12,-590.56L-419.36,-596.54L-416.65,-599.17L-413.91,-603.82" />
                  <path d="M-537.40,-382.90L-537.39,-383.57L-537.40,-382.90" />
                  <path d="M-412.08,-591.75L-415.41,-592.47L-416.05,-594.48L-415.90,-605.18L-414.48,-610.51L-408.93,-625.14L-408.20,-629.14L-397.80,-655.07L-395.69,-662.40L-392.96,-666.37L-391.56,-671.03L-384.00,-685.64L-383.92,-690.99L-377.71,-704.94L-374.20,-716.26L-364.94,-756.25L-359.41,-769.54L-352.39,-792.85L-350.15,-809.53L-350.02,-818.22L-346.48,-832.21L-346.41,-837.56L-343.61,-846.21L-343.52,-852.90L-342.10,-858.23L-342.04,-862.91L-341.36,-863.57L-339.35,-863.54L-326.71,-859.35L-321.40,-856.60L-321.44,-853.26L-322.12,-852.60L-322.54,-823.18L-320.73,-809.11L-320.39,-786.37L-317.34,-765.60L-316.85,-752.89L-314.98,-743.50L-310.92,-699.31L-309.04,-690.59L-309.09,-687.25L-307.79,-684.56L-307.82,-681.88L-302.79,-659.75L-300.83,-656.38L-300.89,-652.36" />
                  <path d="M-291.33,-713.08L-289.29,-715.72L-287.82,-725.06L-281.47,-748.38L-279.29,-761.05L-268.09,-796.33L-254.73,-842.28L-233.40,-884.77L-232.00,-889.43L-231.23,-896.78L-228.45,-904.09L-225.72,-908.07L-222.21,-919.38L-218.81,-923.35L-218.10,-926.68L-216.07,-927.99L-212.06,-927.93L-204.09,-924.48L-202.08,-924.45L-192.77,-920.97L-188.77,-920.25L-174.16,-913.35L-174.34,-900.65L-175.71,-898.00L-177.17,-889.33L-178.55,-886.67L-181.37,-876.01L-187.81,-846.01L-189.90,-840.02L-192.09,-827.35L-197.72,-807.37L-199.23,-795.36L-207.79,-757.36L-207.83,-754.69L-209.93,-748.03L-210.69,-741.36L-214.94,-724.70L-216.30,-723.38" />
                  <path d="M-174.51,-888.62L-175.13,-891.97L-175.80,-891.98L-162.43,-891.12L-154.43,-889.67L-151.85,-882.95L-151.24,-878.93L-151.56,-856.20L-152.33,-848.85L-155.92,-831.52L-156.02,-824.83L-160.28,-806.84L-161.10,-796.15L-166.18,-768.14L-174.58,-741.51L-176.08,-730.17L-179.67,-712.83L-179.73,-708.82L-183.97,-692.83L-185.46,-681.49L-190.32,-668.85L-192.44,-660.86L-195.19,-655.55L-200.78,-638.91L-202.13,-637.59" />
                  <path d="M-176.46,-891.99L-177.13,-892.00L-176.46,-891.99" />
                  <path d="M-175.80,-891.98L-176.46,-891.99L-175.80,-891.98" />
                  <path d="M-237.85,-665.51L-244.17,-644.21L-246.33,-632.87L-250.99,-634.27L-254.31,-636.33L-253.68,-633.64L-251.71,-630.94L-246.41,-627.52L-242.45,-623.45" />
                  <path d="M-185.91,-650.07L-174.34,-664.61L-164.76,-679.86L-155.93,-689.09L-150.48,-696.37L-149.09,-700.36L-133.46,-718.20L-132.06,-722.19L-129.35,-724.83L-123.19,-734.77L-123.82,-737.45L-122.47,-738.77L-121.13,-738.75L-121.12,-739.42L-118.45,-739.38L-113.80,-736.64L-109.18,-732.56L-112.83,-711.22L-119.81,-690.59L-123.34,-677.26L-128.84,-666.64L-137.19,-643.36L-146.17,-623.43L-151.68,-612.14L-163.33,-591.57L-166.10,-584.93L-166.13,-582.92" />
                  <path d="M-166.80,-582.93L-170.17,-580.97L-172.21,-578.33L-184.54,-557.77L-189.32,-551.15L-196.11,-543.89L-206.34,-529.33L-222.77,-502.81L-225.53,-496.17L-240.52,-476.99L-245.33,-467.69L-251.46,-459.76L-260.27,-451.19L-268.46,-439.94L-269.84,-436.61L-291.57,-413.52L-309.98,-388.37L-310.71,-383.70" />
                  <path d="M-355.16,-408.40L-349.95,-398.30L-332.23,-375.31L-321.16,-354.43L-320.49,-354.42L-320.59,-347.06L-322.74,-337.06L-327.62,-323.09L-333.10,-313.81L-343.33,-299.24L-346.72,-295.95L-358.99,-279.40L-367.14,-270.83L-374.57,-265.58L-380.67,-259.65L-383.41,-255.01L-384.75,-255.03L-388.68,-260.43L-390.68,-261.13L-393.32,-263.84L-399.96,-266.61L-404.63,-267.35L-407.27,-270.06L-409.76,-283.47L-411.05,-286.16L-410.97,-292.18L-399.21,-320.09L-395.11,-326.05L-391.64,-334.70L-389.52,-343.36L-389.38,-352.72L-388.69,-354.71L-388.57,-362.74L-389.22,-364.08" />
                  <path d="M-465.57,-402.61L-468.22,-404.65L-470.22,-404.68L-471.59,-402.70L-474.26,-402.73" />
                  <path d="M-478.30,-400.78L-473.62,-400.72L-464.33,-395.91L-460.38,-391.84L-453.15,-382.37L-448.00,-368.93L-440.10,-360.12L-436.17,-354.05L-430.90,-348.63L-420.94,-343.80L-407.57,-343.61" />
                  <path d="M-339.02,-273.10L-338.90,-281.79L-339.56,-282.47L-341.13,-265.78L-341.05,-224.32L-343.31,-206.30L-343.51,-192.26L-342.39,-176.86L-343.66,-134.75L-341.96,-112.66L-341.56,-93.94L-339.23,-69.83L-339.51,-49.78L-338.31,-40.40L-338.50,-27.03" />
                  <path d="M-339.56,-282.47L-339.55,-283.14L-339.56,-282.47" />
                  <path d="M-338.51,-26.36L-338.52,-25.69L-338.51,-26.36" />
              </g>
              <g id="f3" style="--index:3; opacity:0;" class="frame">
                  <path d="M254.47,-489.37L253.81,-490.05L254.47,-489.37" />
                  <path d="M254.47,-489.37L254.47,-489.37" />
                  <path d="M-402.76,-635.75L-406.86,-629.79L-415.89,-605.85L-419.40,-593.86L-424.49,-565.18L-425.18,-563.19L-425.85,-563.20L-427.27,-557.87L-436.12,-546.63L-439.55,-539.99L-462.00,-513.56L-463.38,-510.23L-477.04,-489.70L-494.79,-464.54L-501.66,-451.27L-513.95,-433.39L-522.18,-418.79L-527.69,-407.50L-527.71,-406.17L-529.75,-403.52L-531.15,-399.53L-531.81,-399.54L-532.55,-394.87L-536.02,-385.55L-538.92,-370.22L-539.26,-346.15L-540.61,-344.83L-546.26,-323.51L-547.05,-315.50L-547.43,-288.09L-551.18,-260.06L-553.63,-228.67L-556.67,-202.63L-559.27,-160.54L-559.85,-119.76L-559.25,-115.07L-559.63,-88.33L-557.64,-86.97" />
                  <path d="M-486.59,-382.18L-487.21,-385.53L-487.88,-385.54L-487.20,-386.20L-476.48,-388.05L-469.79,-387.96L-457.80,-385.12L-453.82,-382.38L-452.51,-380.36L-451.18,-380.34L-447.21,-376.94L-439.26,-372.15L-435.98,-367.42L-417.52,-349.11L-413.55,-345.71L-410.89,-345.00" />
                  <path d="M-487.88,-385.54L-488.54,-386.22L-487.88,-385.54" />
                  <path d="M-405.30,-362.31L-406.58,-365.67L-407.19,-322.88L-408.60,-317.55L-408.76,-306.19L-410.11,-305.54L-411.49,-302.88L-412.20,-299.55L-416.32,-292.25L-417.02,-289.59L-423.86,-278.99L-427.25,-275.69L-425.25,-275.66L-419.33,-268.22L-409.45,-258.05L-404.81,-254.64L-400.15,-253.24L-398.19,-250.54L-397.56,-247.85L-393.54,-247.80L-392.87,-248.46" />
                  <path d="M-427.25,-275.69L-427.93,-275.03L-427.25,-275.69" />
                  <path d="M-388.09,-255.08L-367.11,-272.83L-356.94,-282.72L-346.05,-296.61L-335.18,-308.49L-333.79,-311.81L-333.79,-312.48L-335.12,-312.50" />
                  <path d="M-334.93,-373.34L-335.00,-368.66L-332.52,-354.59L-331.39,-339.86L-331.13,-311.11" />
                  <path d="M-332.89,-375.99L-334.18,-379.35L-340.76,-386.80L-357.32,-397.73L-361.26,-402.47L-360.59,-403.13" />
                  <path d="M-353.95,-399.69L-358.63,-399.76L-364.52,-408.53L-367.73,-417.94L-370.88,-431.36L-373.95,-450.79L-374.62,-450.80L-374.05,-490.92L-372.54,-503.60" />
                  <path d="M-373.95,-450.79L-373.94,-451.46L-373.95,-450.79" />
                  <path d="M-406.15,-632.46L-401.87,-651.12L-400.51,-653.11L-394.87,-673.09L-381.61,-712.35L-380.78,-723.71L-377.94,-735.70L-371.00,-753.66L-366.06,-771.64L-365.32,-776.98L-365.88,-784.34L-360.95,-802.33L-361.59,-804.34L-361.47,-812.37L-359.98,-823.71L-358.58,-827.70L-358.27,-849.77L-352.14,-857.70L-348.08,-860.99L-345.41,-860.95L-331.96,-866.11L-326.54,-871.38L-323.86,-871.34L-323.20,-870.67L-321.33,-861.28L-319.58,-843.20L-319.26,-818.45L-315.27,-769.58L-315.39,-761.56L-312.43,-734.11L-306.15,-705.93L-305.05,-689.20L-302.61,-672.45L-302.79,-659.75L-301.54,-653.71L-300.86,-654.37" />
                  <path d="M-298.79,-705.83L-297.37,-711.83L-293.23,-721.13L-281.39,-754.39L-256.09,-840.96L-254.00,-846.95L-237.46,-881.49L-233.96,-892.80L-227.05,-908.75L-226.25,-917.44L-222.12,-926.07L-218.05,-930.02L-212.70,-929.95L-207.36,-929.20L-199.38,-926.42L-192.70,-925.65L-191.40,-923.63L-188.84,-914.90L-182.96,-905.46L-182.33,-902.77L-179.02,-900.72L-174.40,-895.97L-174.46,-891.96L-176.54,-886.64L-178.79,-869.29L-179.46,-869.30L-179.55,-862.61L-181.03,-852.60L-186.72,-828.61L-186.74,-827.28L-185.37,-829.93" />
                  <path d="M-186.74,-827.28L-186.75,-826.61L-186.74,-827.28" />
                  <path d="M-177.66,-854.56" />
                  <path d="M-173.34,-876.57L-174.63,-879.93L-174.54,-885.94L-171.76,-893.93L-169.10,-892.55L-157.75,-891.73L-147.79,-886.23L-146.49,-883.54" />
                  <path d="M-139.23,-876.75L-143.23,-878.15L-144.53,-880.84L-144.49,-883.51L-145.17,-882.85L-149.53,-858.18L-154.03,-823.47L-161.94,-784.13L-162.83,-768.76L-167.83,-746.10L-168.63,-736.75L-171.41,-729.43L-171.44,-727.43" />
                  <path d="M-170.64,-736.78L-169.88,-742.78L-176.10,-728.83L-185.21,-699.54L-194.93,-674.27L-198.47,-660.28L-200.00,-646.92L-202.02,-645.61L-202.04,-644.28L-202.71,-644.29L-208.90,-631.67L-211.02,-623.68L-211.69,-623.69L-212.39,-621.69L-212.45,-617.68L-213.12,-617.02L-212.53,-611.66L-211.19,-611.64L-209.88,-610.29L-197.93,-604.10L-190.60,-601.99L-190.61,-601.32L-191.95,-601.34" />
                  <path d="M-189.55,-628.72L-186.09,-637.37L-181.30,-645.32L-175.09,-658.61L-162.75,-679.83L-151.13,-697.72L-146.29,-709.02L-131.97,-728.87L-131.24,-732.88L-127.81,-739.51L-127.71,-746.20L-121.03,-746.10L-112.46,-737.29" />
                  <path d="M-113.33,-722.59L-111.94,-726.58L-112.01,-721.90L-114.26,-704.55L-120.78,-669.20L-130.61,-635.91" />
                  <path d="M-111.94,-726.58L-110.52,-732.58L-110.47,-735.93L-111.13,-736.60L-111.80,-736.61L-111.94,-726.58" />
                  <path d="M-130.51,-643.26L-134.54,-641.98L-140.73,-629.37L-144.15,-624.07L-152.43,-606.13L-165.41,-586.92L-175.70,-568.35L-177.05,-567.70L-177.74,-565.70L-179.09,-565.05L-183.19,-559.09L-184.53,-558.44L-185.92,-555.12L-202.26,-533.95L-210.50,-518.69L-211.86,-517.37L-213.94,-512.05L-221.45,-501.46L-229.58,-493.55L-238.44,-481.64L-238.46,-480.30L-241.86,-476.34L-242.56,-474.34L-261.57,-453.88L-273.83,-438.01L-290.81,-419.53L-298.31,-409.60L-300.37,-405.62L-305.13,-400.34L-305.16,-397.66L-306.53,-395.68" />
                  <path d="M-330.96,-275.66L-331.57,-280.35L-332.24,-279.69L-334.09,-243.61L-334.57,-210.19L-332.85,-189.43L-333.10,-172.05L-335.36,-154.03L-334.86,-141.99L-335.59,-90.51L-334.48,-74.44L-330.80,-50.99L-330.31,-38.28L-329.65,-38.27" />
              </g>
          </g>
          <g id="t2a" class="thread">
              <g id="f0" style="--index:0; opacity:1;" class="frame">
                  <path d="M-413.69,-572.39L-414.29,-577.07L-413.64,-575.73L-413.07,-569.03L-413.66,-526.92L-412.63,-505.50L-412.96,-482.11L-412.48,-468.72L-410.69,-453.32L-410.80,-398.49L-409.47,-397.80" />
                  <path d="M-414.29,-577.07L-414.28,-577.74L-414.29,-577.07" />
                  <path d="M-279.02,-638.01L-274.33,-638.62L-223.53,-637.90L-214.83,-638.44L-210.16,-637.71L-205.50,-635.63L-195.48,-635.49L-189.44,-636.74L-169.39,-636.46L-151.98,-637.55" />
                  <path d="M-99.18,-636.13L-87.13,-637.30L-32.98,-636.53L19.78,-631.77L45.19,-631.41L63.22,-629.82L129.40,-628.88L133.40,-628.16L164.15,-627.05L171.48,-625.61" />
                  <path d="M218.96,-625.61L235.01,-626.05L296.45,-620.50" />
                  <path d="M428.52,-597.90L433.19,-596.50L433.83,-595.15L435.83,-594.45L440.45,-590.38L445.05,-584.29L448.93,-574.88L448.14,-566.86L444.04,-560.24L438.60,-553.63L423.75,-543.81L417.02,-541.23L392.09,-527.54L382.01,-524.34L361.89,-519.94L318.88,-504.50" />
                  <path d="M248.42,-486.78L243.09,-488.19L241.06,-486.88L220.92,-481.15L202.11,-474.73L173.25,-467.11L141.72,-460.21L112.90,-455.27L104.17,-452.71L73.99,-446.45L33.04,-435.00L5.48,-424.69L-9.28,-420.89L-20.04,-417.03L-74.41,-402.42" />
                  <path d="M-144.91,-381.35L-150.27,-380.76L-167.74,-374.99L-181.83,-371.84L-222.12,-359.71L-242.89,-356.66L-265.70,-350.97L-286.52,-344.58" />
                  <path d="M-389.07,-374.78L-392.40,-375.50L-392.36,-378.84L-385.53,-388.77L-381.47,-392.06L-376.08,-394.66L-349.89,-402.98L-337.14,-406.14L-326.39,-410.00L-298.87,-416.97L-288.12,-420.83L-274.03,-423.97" />
                  <path d="M-211.63,-439.13L-206.92,-441.07L-204.92,-441.04L-196.84,-444.94L-169.32,-451.91L-131.10,-459.39L-115.67,-463.18L-69.45,-469.22L-48.64,-474.94L-31.16,-481.38L-8.36,-486.40L25.20,-495.29" />
                  <path d="M86.31,-513.82L133.95,-525.18L149.40,-530.31L155.44,-531.56L163.51,-534.79L181.61,-538.54L187.68,-541.80L193.72,-543.72L207.13,-546.21L230.64,-553.23L245.38,-555.69L256.83,-561.55L269.59,-565.38" />
                  <path d="M300.43,-570.96L305.15,-573.57L312.54,-576.14L333.31,-579.19L346.08,-583.69" />
                  <path d="M-240.74,-602.70L-216.13,-593.66L-194.14,-588.00L-172.85,-580.34L-163.52,-578.20L-150.22,-573.33L-146.90,-571.28L-124.95,-563.61L-109.68,-556.04L-85.74,-546.34" />
                  <path d="M-53.12,-536.52L-43.13,-533.70L-31.19,-526.85L3.39,-512.98L25.31,-502.64L39.27,-497.10L49.88,-490.93L70.49,-482.61L84.42,-474.39L99.72,-468.83L109.65,-462.00L116.96,-458.55" />
                  <path d="M152.85,-443.33L186.78,-430.82L208.69,-420.47L228.59,-408.83L263.79,-392.28L285.69,-379.93L310.97,-370.88L312.95,-369.52L324.94,-366.00L329.58,-363.26L355.50,-352.20L380.05,-338.48L383.34,-335.09L384.64,-332.39L391.89,-324.94" />
                  <path d="M-407.20,-605.73L-409.16,-608.43L-409.15,-609.77L-410.48,-609.79L-413.28,-601.13L-413.43,-590.44L-412.81,-587.08L-408.89,-580.34L-401.62,-574.89L-379.04,-563.87L-359.73,-557.58L-343.12,-550.66L-319.13,-544.30L-299.85,-536.67L-272.56,-527.59L-261.93,-522.76L-247.27,-519.21L-212.65,-508.69L-199.36,-503.15L-160.75,-490.57L-148.80,-485.05L-129.49,-478.76L-124.18,-476.01L-101.55,-469.00L-86.26,-462.77L-80.93,-461.35L-75.62,-458.60" />
                  <path d="M-42.36,-446.10L-3.10,-432.84L20.17,-423.15" />
                  <path d="M121.97,-387.60L137.24,-380.03L158.52,-371.70L171.13,-364.84L212.33,-346.87L218.96,-342.76L234.92,-336.52L253.51,-326.90L262.83,-324.09L269.47,-320.65L272.10,-317.94" />
                  <path d="M315.16,-289.25L310.44,-286.64L305.74,-285.37L295.03,-284.18L284.33,-284.33L240.26,-288.30L233.59,-289.73L205.55,-292.80L184.82,-293.10L144.08,-296.35L34.44,-297.90L31.76,-297.27L-13.03,-297.91L-33.78,-296.86L-57.17,-297.19L-125.98,-302.18L-182.80,-302.99L-183.46,-303.66L-188.80,-304.41L-212.20,-304.74" />
                  <path d="M-246.32,-303.22L-290.44,-303.84L-296.45,-304.60L-303.11,-306.70L-313.80,-307.52L-318.46,-308.92" />
                  <path d="M436.22,-575.06L438.85,-571.68L439.45,-566.99L440.61,-554.27L440.40,-539.56L438.21,-526.22L437.93,-506.83L435.70,-490.81L435.50,-476.77L432.68,-466.11L432.47,-451.41L430.26,-437.40L430.15,-429.37L431.42,-424.68L431.34,-419.33L424.38,-400.03L423.67,-396.70L423.52,-386.00" />
                  <path d="M425.05,-352.55L422.99,-348.57L422.88,-341.21L419.30,-324.55L419.24,-319.87L416.42,-309.88L415.65,-302.53L413.57,-297.21" />
              </g>
              <g id="f1" style="--index:1; opacity:0;" class="frame">
                  <path d="M-396.79,-348.81L-402.81,-348.90L-402.73,-354.91L-400.67,-358.23L-395.90,-364.85L-392.51,-368.14L-376.99,-377.95L-358.17,-385.04L-327.30,-392.63L-295.68,-406.22L-293.68,-406.19L-288.96,-408.80L-274.18,-413.27L-265.43,-417.83L-247.96,-423.60L-229.12,-432.03L-217.04,-435.20L-198.88,-442.30L-186.79,-446.14L-184.12,-446.10L-175.39,-448.65L-162.61,-453.82L-141.11,-460.87L-133.74,-462.10L-120.30,-466.59L-103.53,-470.37L-84.73,-476.12L-82.06,-476.08L-67.97,-479.22L-60.57,-482.46L-19.66,-490.58L9.87,-498.85L44.14,-510.40L58.93,-516.21L73.71,-520.68L85.16,-526.54L97.93,-531.04L114.75,-538.82L132.22,-544.59L138.27,-547.18L139.63,-548.50L147.69,-551.06L149.05,-552.38L189.34,-564.51L207.48,-570.94L228.29,-576.66L235.67,-577.90L251.79,-583.02L262.51,-584.87L270.59,-588.77L279.31,-590.65L290.07,-595.18L306.17,-598.96L311.57,-602.23L324.33,-606.06" />
                  <path d="M335.90,-620.61L339.29,-623.91L339.32,-625.91L337.98,-625.93L336.66,-627.29L328.64,-627.40L305.96,-631.06L292.60,-631.92L278.59,-634.13L214.41,-635.04L211.74,-635.74L199.04,-635.92L184.35,-637.47L173.66,-637.62L151.63,-640.61L103.52,-642.62L70.14,-646.44L60.78,-646.57L16.03,-650.55L-5.36,-650.85L-22.72,-652.44L-123.00,-653.86L-196.54,-654.90L-199.22,-654.27L-221.28,-654.58L-223.30,-653.94L-255.39,-654.39L-256.72,-655.08L-279.44,-656.07L-286.10,-657.50L-287.44,-657.52L-286.78,-656.85" />
                  <path d="M-388.34,-615.49L-390.30,-618.19L-390.33,-616.19L-389.03,-613.49L-386.56,-599.42L-385.25,-597.39L-384.00,-591.36L-380.74,-585.29L-374.83,-577.85L-370.19,-574.44L-358.25,-568.26L-343.68,-558.02L-334.37,-554.55L-325.75,-549.07L-314.44,-544.90L-304.48,-540.08L-295.83,-537.28L-282.55,-530.41L-267.91,-525.52L-265.93,-524.15L-239.28,-517.09L-229.31,-512.94L-215.99,-509.40L-204.69,-504.56L-191.36,-501.03L-176.73,-495.48L-136.11,-483.53L-124.14,-478.68L-122.83,-477.33L-90.22,-466.17L-75.60,-459.94L-58.28,-455.02L-39.69,-446.06L-33.06,-441.95L-30.39,-441.25L-12.48,-431.63L-0.55,-424.11L14.74,-417.20L22.69,-412.41L65.29,-398.43L85.22,-389.46L101.88,-385.21L109.18,-381.76L135.16,-374.71L149.13,-369.83L160.43,-364.99L169.05,-359.52L176.36,-356.07L199.00,-349.73L200.99,-348.37L206.32,-346.96L225.60,-339.33L256.11,-321.51L276.69,-311.19L283.98,-306.40L301.90,-297.46L303.24,-297.44L309.20,-293.34L316.53,-291.90L318.53,-291.20L318.52,-290.54" />
                  <path d="M446.47,-590.29L444.53,-595.00L445.11,-588.97L444.84,-569.59L444.12,-566.25L443.93,-552.88L440.27,-530.20L440.10,-518.17L435.85,-501.51L434.28,-484.81L434.07,-470.11L431.10,-449.42L429.38,-422.03L426.47,-405.35L426.19,-385.97L424.12,-381.32L423.31,-371.30L422.62,-369.97L422.50,-361.28L421.82,-360.62L420.32,-349.27L418.22,-342.62" />
                  <path d="M444.53,-595.00L444.54,-595.67L444.53,-595.00" />
                  <path d="M-317.67,-316.93L-313.01,-315.53L-304.32,-315.41L-297.62,-316.65L-275.42,-325.70L-272.07,-326.32L-265.34,-329.56L-241.82,-337.92L-231.72,-342.46L-221.66,-344.99L-193.44,-354.62L-182.70,-357.15L-177.32,-359.74L-155.17,-365.45L-149.12,-368.04L-117.57,-376.28L-98.13,-380.02L-68.60,-387.63L-47.15,-391.33L-31.71,-395.80L5.19,-403.97L7.88,-405.27L44.10,-413.44L54.86,-417.30L67.61,-420.47L80.37,-424.97L83.75,-426.93L99.18,-430.72L130.76,-441.64L138.18,-446.21L159.02,-453.94L171.81,-459.78L190.59,-464.19L214.78,-472.54L223.50,-474.43L258.43,-485.30L273.18,-488.43L287.29,-492.91L310.77,-498.60L339.64,-506.88L398.81,-530.12L417.63,-536.54L428.41,-542.40L435.12,-544.31L440.48,-544.91" />
                  <path d="M-276.32,-309.66L-272.96,-310.95L-264.28,-310.16L-219.49,-309.52L-190.77,-307.11L-149.99,-306.53L-96.54,-303.10L-77.15,-302.83L-12.34,-299.23L294.50,-294.22L307.22,-295.38" />
                  <path d="M-399.21,-602.94L-401.36,-592.94L-402.88,-580.26L-403.13,-562.21L-405.44,-540.84L-405.66,-525.46L-407.94,-506.11L-408.31,-480.03L-409.01,-478.04L-409.24,-461.32L-410.76,-448.64L-411.16,-420.56L-411.84,-419.23" />
                  <path d="M-409.51,-395.13L-410.90,-391.81L-411.22,-369.08" />
                  <path d="M-272.47,-628.56L-267.14,-627.15L-262.50,-624.41L-262.49,-625.07L-260.49,-625.05L-250.50,-621.56L-228.60,-609.88L-201.99,-600.81L-172.74,-588.36L-169.41,-587.65L-134.21,-570.43L-130.88,-569.72L-120.93,-564.23L-94.35,-552.48L-93.03,-551.13L-73.74,-544.17L-59.13,-536.60L-48.49,-532.44L-30.57,-523.50L-12.62,-515.89L-9.29,-515.17L26.60,-499.28L33.92,-497.17L52.54,-489.55L64.52,-486.04L89.78,-474.98L99.77,-472.17L108.40,-468.03L135.02,-458.96L142.32,-455.52L166.28,-447.15L180.93,-442.93L182.92,-441.57L184.92,-441.54L192.90,-438.08L206.21,-433.88L236.80,-422.08L238.81,-422.05L254.07,-413.81L266.71,-409.62L279.33,-403.43L287.98,-400.63L293.95,-397.20L296.62,-396.49L297.94,-395.14L299.27,-395.12L301.92,-393.08L303.26,-393.06L305.23,-391.02L309.22,-388.96L322.52,-384.09L325.84,-382.04L325.16,-381.38" />
                  <path d="M325.84,-382.04L326.50,-382.03L325.84,-382.04" />
                  <path d="M347.73,-369.69L351.76,-370.97L367.65,-360.05L382.27,-353.82L392.86,-345.65L396.81,-341.58L415.35,-328.62L419.30,-324.55L422.56,-318.48L422.47,-311.80L423.73,-306.43L425.04,-304.41" />
              </g>
              <g id="f2" style="--index:2; opacity:0;" class="frame">
                  <path d="M-401.98,-360.25L-404.68,-358.28L-405.26,-364.98L-399.11,-374.25L-393.02,-379.52L-370.84,-387.23L-367.47,-389.18L-365.46,-389.16L-356.73,-392.38L-339.24,-399.48" />
                  <path d="M-276.86,-413.31L-282.87,-413.40L-278.17,-415.34L-233.15,-430.75L-231.12,-432.05L-223.07,-433.95L-198.19,-444.29L-189.46,-446.84" />
                  <path d="M-284.22,-412.75L-284.89,-412.76L-284.22,-412.75" />
                  <path d="M-282.87,-413.40L-284.22,-412.75L-282.87,-413.40" />
                  <path d="M-123.68,-463.97L-120.30,-466.59L-112.92,-468.49L-84.02,-478.78L-63.16,-488.52L-49.05,-493.00L-34.25,-499.48L-30.23,-500.09L-2.68,-509.73" />
                  <path d="M46.98,-522.40L51.00,-522.34L66.44,-526.80L79.85,-529.29L112.11,-540.87L136.96,-548.54L147.69,-551.06L154.41,-553.64" />
                  <path d="M214.82,-569.50L223.56,-572.72L242.99,-575.79L277.22,-584.66L300.09,-594.37L308.14,-596.26L312.18,-598.21" />
                  <path d="M333.82,-615.29L335.20,-618.61L333.89,-619.97L323.89,-622.12L319.88,-622.17L319.22,-622.85L293.14,-623.22L291.15,-623.92L281.79,-624.05L271.11,-625.54L266.45,-626.94L243.05,-627.27L240.39,-627.98" />
                  <path d="M209.69,-632.43L205.03,-633.83L187.66,-634.75L186.33,-635.43L130.18,-636.90L108.84,-640.54L98.18,-643.37L78.82,-645.65" />
                  <path d="M12.66,-648.59L7.98,-648.66L4.62,-647.37L1.28,-647.42L-4.09,-646.15L-31.50,-646.54L-62.22,-648.98L-64.22,-649.68L-77.59,-649.87L-78.92,-650.56L-92.28,-651.42" />
                  <path d="M-159.80,-652.37L-163.12,-653.76L-177.83,-653.96L-193.86,-655.53L-227.22,-660.68L-233.23,-660.77L-233.91,-660.11L-237.25,-660.16L-245.97,-658.27L-252.66,-658.37" />
                  <path d="M-268.48,-627.16L-264.52,-623.10L-234.66,-607.29L-214.03,-600.32L-200.75,-593.44L-188.10,-589.92L-178.14,-585.10L-158.82,-579.47L-141.57,-570.54" />
                  <path d="M-99.00,-554.55L-94.33,-553.82L-41.80,-533.02L-36.50,-529.60L6.05,-512.28L11.36,-509.53L14.00,-506.82L18.64,-504.08" />
                  <path d="M77.80,-479.17L81.81,-479.11L87.13,-477.03L108.36,-465.36L131.65,-457.01L149.56,-447.39L158.88,-443.92L169.50,-438.42L190.79,-430.76L198.74,-425.97" />
                  <path d="M261.30,-405.02L264.64,-404.97L273.26,-399.50L286.54,-393.29L293.88,-391.85L299.86,-389.09L335.70,-370.53L349.00,-364.99L358.29,-360.18L359.61,-358.83L369.59,-355.34L369.58,-354.67L372.24,-353.97L374.22,-351.93" />
                  <path d="M406.68,-330.08L409.98,-327.35L413.26,-322.63L413.20,-318.62L411.83,-315.96L411.08,-310.62" />
                  <path d="M318.60,-295.88L317.32,-299.91L303.34,-304.79L276.78,-317.87L256.16,-325.52L248.21,-330.31L219.62,-342.09L211.00,-346.89L202.35,-350.35L187.68,-353.24L184.37,-355.29L175.04,-357.43L161.73,-362.30L148.45,-368.50L121.85,-378.91L109.90,-385.10L107.23,-385.14L103.25,-387.87L97.26,-389.96L85.98,-396.13L68.71,-403.74L66.06,-405.78L49.43,-412.03L34.16,-419.60L23.49,-421.76" />
                  <path d="M-1.79,-430.81L-6.43,-433.55L-22.38,-440.46L-38.30,-449.38L-50.89,-457.59L-69.51,-465.20L-85.44,-473.45L-118.00,-487.29L-120.01,-487.32L-122.00,-488.68L-125.33,-489.40L-127.32,-490.76L-129.32,-490.79L-131.31,-492.16L-133.31,-492.19L-145.95,-497.05L-147.96,-497.07L-175.88,-508.17L-177.90,-507.53" />
                  <path d="M-201.23,-512.54L-205.87,-515.28L-211.87,-516.70L-219.18,-520.15L-238.47,-527.11L-273.66,-544.32L-275.67,-544.35L-288.31,-549.21L-290.31,-549.24L-317.59,-558.99L-332.87,-565.89L-357.50,-573.60L-360.15,-575.64L-370.13,-579.12L-371.45,-580.48L-374.78,-581.20L-382.09,-584.64L-382.08,-585.31L-387.38,-588.73L-391.28,-596.14L-391.95,-596.15L-391.93,-597.49L-392.60,-597.50L-394.54,-602.20L-399.81,-607.63L-401.11,-610.32L-402.44,-611.01L-402.42,-612.35L-403.09,-612.35L-403.73,-614.37L-403.48,-631.75L-402.82,-631.74L-402.08,-636.41L-400.73,-637.06" />
                  <path d="M-319.14,-307.59L-319.10,-310.93L-319.76,-311.61L-302.37,-311.37L-298.37,-310.64L-252.24,-309.99L-242.23,-308.51L-230.87,-308.35L-208.84,-306.03L-198.14,-305.88L-186.79,-304.38L-164.07,-303.39L-149.38,-301.84L-75.86,-299.47L-61.84,-297.93L0.33,-297.05L11.71,-298.22L68.55,-298.09L71.23,-298.72L102.65,-298.27L113.33,-296.79L137.40,-296.44L139.39,-295.75L160.78,-294.78" />
                  <path d="M224.23,-289.86L255.64,-288.75L283.01,-285.69L292.37,-285.56L313.72,-281.91L321.74,-281.80L322.43,-283.12" />
                  <path d="M-312.97,-318.87L-304.92,-320.76L-290.80,-325.91L-274.70,-329.70L-257.87,-337.48L-243.10,-341.95L-230.98,-347.80L-214.19,-352.91L-198.73,-358.71L-192.69,-359.96L-166.47,-370.29L-160.43,-371.54L-158.41,-372.85L-156.40,-372.82L-140.95,-377.95L-106.06,-386.15L-98.00,-388.71L-92.61,-391.98L-87.23,-393.91" />
                  <path d="M-37.59,-405.24L-28.85,-408.46L-14.77,-411.60L-7.37,-414.17L-6.70,-414.83L-7.36,-414.84" />
                  <path d="M49.08,-434.10L52.45,-436.06L68.53,-438.51L88.01,-444.92L99.42,-447.43L103.45,-448.71L105.48,-450.69" />
                  <path d="M181.29,-468.34L177.30,-469.73L178.64,-470.38L202.80,-476.73L207.49,-477.33L231.00,-484.35L241.72,-486.20L247.77,-488.13L250.44,-488.09L265.21,-491.89L274.61,-495.10L302.79,-502.06L306.83,-504.01L308.84,-503.98L310.86,-505.29L317.57,-506.53L320.26,-507.83L330.99,-509.68L346.43,-514.14L361.17,-515.94L363.87,-517.91L392.07,-526.20L397.48,-530.80L401.51,-532.09L401.52,-532.75L406.21,-533.36L409.58,-535.31" />
                  <path d="M441.23,-597.72L445.90,-596.99L450.51,-592.24L453.78,-586.84L453.64,-577.48L450.89,-572.17L450.17,-568.17L444.62,-554.21L443.27,-552.89" />
              </g>
              <g id="f3" style="--index:3; opacity:0;" class="frame">
                  <path d="M-403.42,-352.92L-406.13,-350.28L-407.47,-350.30L-407.40,-355.65L-404.61,-363.63L-400.50,-370.26L-398.47,-372.24L-384.96,-381.41L-380.93,-383.36L-372.86,-386.59L-370.85,-386.56L-362.79,-389.12" />
                  <path d="M-315.17,-399.14L-311.79,-401.77L-304.39,-405.01L-272.18,-413.24L-247.32,-421.58" />
                  <path d="M-185.55,-439.43L-180.13,-444.71L-170.71,-448.58L-151.90,-455.00L-139.11,-460.84L-112.25,-468.48" />
                  <path d="M-57.18,-485.76L-50.43,-490.34L-41.03,-492.88L-39.00,-494.19L-26.91,-498.03L-19.50,-501.94L-14.14,-503.20" />
                  <path d="M16.04,-509.46L20.09,-512.08L32.16,-514.58" />
                  <path d="M71.12,-526.74L75.84,-529.34L104.01,-535.63" />
                  <path d="M145.61,-545.74L156.36,-549.60L187.90,-557.18" />
                  <path d="M226.21,-571.35L230.22,-571.29L240.99,-575.82L256.41,-578.94L271.86,-584.07" />
                  <path d="M296.72,-592.41L317.56,-600.14" />
                  <path d="M321.19,-620.82L317.89,-623.54L307.89,-625.69L281.82,-626.06L265.74,-624.28" />
                  <path d="M227.65,-625.49L232.33,-625.42L231.68,-626.77L228.34,-627.48L186.22,-627.41L184.22,-628.11L175.53,-628.23L135.47,-632.14" />
                  <path d="M80.07,-639.61L76.75,-641.00L39.98,-641.52L24.63,-643.74L11.27,-644.60L4.60,-646.03L-5.42,-646.17" />
                  <path d="M-72.91,-649.80L-76.24,-650.52L-128.38,-651.93" />
                  <path d="M-188.50,-656.12L-242.65,-656.89L-246.68,-655.61" />
                  <path d="M-274.79,-654.00L-280.79,-654.75L-292.19,-652.91" />
                  <path d="M-401.50,-630.39L-400.11,-633.71L-400.09,-635.05L-401.41,-636.40L-402.75,-636.42L-405.46,-633.79L-409.58,-626.49L-411.61,-624.51L-417.79,-613.23L-417.89,-605.88L-416.60,-602.52L-416.01,-597.16L-412.75,-591.09L-408.81,-586.36L-400.16,-582.89L-394.86,-579.47L-382.85,-577.97" />
                  <path d="M-340.34,-557.97L-330.38,-553.15L-324.43,-548.39L-308.49,-540.14L-295.25,-531.26L-280.60,-527.04L-277.92,-527.00L-264.62,-522.13L-263.30,-520.77L-257.97,-519.36" />
                  <path d="M-213.40,-503.35" />
                  <path d="M-208.73,-502.62L-202.74,-500.52L-199.40,-500.48L-188.74,-497.65L-166.04,-494.66L-139.40,-487.59L-136.06,-487.54L-126.73,-484.74L-125.42,-483.38L-118.11,-479.93L-110.11,-478.48L-102.80,-475.04L-98.80,-474.31" />
                  <path d="M-56.95,-455.00L-53.63,-452.94L-48.29,-452.20L-29.66,-445.92L-27.65,-445.89L-7.03,-438.24L0.96,-436.12L9.58,-430.65" />
                  <path d="M50.79,-413.35L56.76,-409.92L64.76,-408.47L76.05,-402.96L86.05,-400.81L100.69,-395.93L111.32,-391.10L112.64,-389.74L129.94,-383.48L134.56,-379.40" />
                  <path d="M155.78,-367.06L163.09,-363.62L163.74,-362.27L168.38,-359.53L191.67,-351.84L200.31,-347.71L204.31,-346.98L208.96,-344.91L214.26,-341.49L222.25,-338.71L224.89,-336.66L226.23,-336.64L240.84,-329.75L247.46,-324.98" />
                  <path d="M280.00,-309.13L289.32,-306.33L297.29,-302.20L309.27,-298.02L318.60,-295.88" />
                  <path d="M408.22,-297.29L404.21,-297.35L407.57,-298.64L413.65,-303.23L418.45,-311.85L418.52,-316.53L415.93,-322.59L412.00,-327.99L410.71,-331.36L399.50,-342.88L380.93,-353.17L369.63,-358.02L366.98,-360.06L355.02,-365.58L324.38,-373.37L307.07,-378.96L307.08,-379.63" />
                  <path d="M269.82,-392.86L270.54,-396.20L269.21,-396.88L253.90,-401.78L238.62,-408.68L221.30,-413.61L206.01,-419.84L200.05,-423.94" />
                  <path d="M142.86,-446.15L140.23,-449.53L137.58,-450.90L118.95,-457.19L117.63,-458.54L106.98,-462.04L88.36,-469.65L85.06,-472.38L83.72,-472.39L76.42,-476.51" />
                  <path d="M23.90,-497.98L20.62,-502.04L19.28,-502.06L11.32,-506.19L7.31,-506.91L6.00,-508.27L-5.30,-513.11L-17.95,-517.30L-37.20,-526.93L-38.54,-526.95L-41.19,-528.99" />
                  <path d="M-91.76,-546.43L-95.73,-549.16L-107.71,-553.34L-112.35,-556.08L-126.33,-560.29L-132.30,-563.72L-133.64,-563.74L-134.96,-565.09L-144.94,-568.58L-150.25,-571.33L-158.24,-573.45L-170.87,-578.98L-183.53,-581.83" />
                  <path d="M-208.81,-590.88L-210.76,-594.92L-224.06,-600.46L-228.06,-601.18L-241.33,-608.73L-244.66,-609.44L-255.25,-616.95L-263.88,-621.08L-269.17,-625.84L-271.82,-627.21L-273.83,-627.24" />
                  <path d="M-398.08,-541.41L-398.86,-533.39L-398.44,-516.00L-400.67,-499.99L-400.80,-490.63L-402.30,-479.28L-402.60,-457.89L-403.29,-456.56L-403.47,-443.86L-401.50,-441.15" />
                  <path d="M-398.01,-404.33L-396.91,-387.60L-395.64,-382.90L-393.66,-381.53" />
                  <path d="M-310.37,-313.49L-313.72,-312.86L-313.06,-312.19L-304.37,-312.06L-294.30,-314.60L-270.09,-324.28L-257.30,-330.79L-241.16,-337.25L-225.00,-345.04L-221.65,-345.66L-208.19,-351.49L-200.14,-353.38" />
                  <path d="M-147.05,-372.02L-139.68,-373.25L-122.21,-379.02L-105.44,-382.80L-102.75,-384.10L-100.08,-384.06L-85.96,-389.21L-68.51,-393.64" />
                  <path d="M-22.90,-403.70L-12.82,-407.56L13.37,-415.22L22.12,-419.11L39.58,-424.21L56.39,-431.32L77.20,-437.05" />
                  <path d="M121.58,-454.47L126.97,-457.07L168.55,-465.84L171.24,-467.14L173.92,-467.11L175.94,-468.41L198.77,-475.45L216.89,-479.87L225.60,-481.08" />
                  <path d="M267.17,-489.19L271.23,-492.47L273.91,-492.44L276.60,-493.73L298.06,-498.11L318.23,-505.85L325.60,-507.08L332.32,-509.66L334.33,-509.63L335.69,-510.95" />
                  <path d="M361.22,-519.95L363.92,-521.92L383.40,-527.66L395.51,-532.84L406.92,-536.02L411.64,-538.63L430.56,-553.07L435.96,-556.34L438.67,-558.97L440.09,-564.97L442.13,-566.95" />
                  <path d="M436.92,-529.58L434.21,-526.94L429.96,-510.28L429.09,-496.26L424.80,-476.26L424.01,-468.24L422.60,-462.91L422.46,-452.89L421.78,-452.23" />
                  <path d="M428.01,-420.04L426.63,-416.72L423.45,-381.32L422.04,-376.00" />
                  <path d="M421.17,-361.97L419.79,-358.64L419.67,-350.62" />
                  <path d="M-250.31,-304.61L-246.28,-305.89L-220.23,-304.18L-202.82,-305.94L-188.11,-305.74L-179.40,-306.95L-165.37,-306.08L-150.63,-308.55L-147.28,-308.50L-144.63,-307.13" />
                  <path d="M-97.88,-303.12L-12.31,-301.91L-6.97,-301.16" />
                  <path d="M43.80,-297.77L47.83,-299.05L55.19,-298.95L61.86,-298.18L98.63,-297.66L109.98,-296.16L132.72,-296.51" />
                  <path d="M195.51,-292.28L199.54,-293.56L214.25,-293.35L242.96,-290.27L269.02,-289.23" />
                  <path d="M297.66,-281.47L300.37,-283.44L312.39,-282.60L313.72,-281.91" />
              </g>
              <g id="f4" style="--index:4; opacity:0;" class="frame">
                  <path d="M-412.24,-627.20L-411.64,-622.51L-413.02,-619.18L-414.49,-609.84L-414.77,-590.45L-412.36,-571.70L-409.80,-563.64" />
                  <path d="M-403.55,-532.79L-404.26,-529.46L-404.60,-506.06L-403.42,-494.67L-401.50,-488.63L-400.92,-482.60" />
                  <path d="M-402.00,-453.20L-402.73,-449.20L-403.23,-413.76L-403.92,-412.44" />
                  <path d="M-406.09,-400.43L-407.50,-395.77L-407.55,-391.76L-405.76,-377.02L-404.47,-373.66" />
                  <path d="M-293.11,-304.55L-262.39,-301.44L-252.37,-301.30L-241.65,-302.48" />
                  <path d="M-194.94,-295.80L-179.54,-296.92" />
                  <path d="M-122.69,-298.12L-95.28,-297.73L-77.26,-295.47L-61.21,-295.25L-57.19,-295.86" />
                  <path d="M-10.39,-295.86L20.37,-295.43" />
                  <path d="M46.44,-295.06L69.83,-294.06" />
                  <path d="M100.57,-292.95L123.97,-292.62" />
                  <path d="M152.06,-292.89L160.07,-292.11L194.17,-291.63L196.16,-290.93" />
                  <path d="M208.85,-290.08L226.90,-289.83L228.23,-289.14" />
                  <path d="M246.28,-288.88L265.65,-287.27L279.65,-284.40" />
                  <path d="M401.72,-310.75L405.80,-315.38L405.85,-318.72L404.56,-322.08L398.64,-329.52L392.69,-334.29L384.79,-343.09L381.48,-345.14" />
                  <path d="M347.58,-359.00L347.64,-363.68L346.99,-365.02L345.65,-365.04L343.01,-367.09L323.04,-373.39L315.73,-376.83L299.76,-382.41L294.42,-383.15L273.11,-388.80" />
                  <path d="M243.16,-399.26L241.88,-402.62L235.23,-405.39L217.24,-410.32L192.65,-420.70L180.05,-428.24L173.40,-431.00" />
                  <path d="M106.38,-467.39L106.43,-470.74L105.11,-472.09L99.11,-472.85L85.79,-477.05L67.84,-483.99L46.53,-490.31L39.89,-493.74L23.91,-498.65L12.63,-504.83L0.01,-510.36" />
                  <path d="M-40.53,-528.32L-45.14,-533.06L-51.77,-537.17L-70.40,-543.45L-89.69,-551.08L-102.30,-557.28L-110.29,-560.06L-112.29,-560.09" />
                  <path d="M-140.95,-567.18L-144.93,-569.25L-151.59,-570.68L-162.88,-576.19L-173.53,-579.68L-181.49,-584.48L-197.45,-590.72L-202.08,-594.13L-217.34,-602.37L-242.61,-612.76" />
                  <path d="M-257.85,-622.33L-263.83,-625.09L-273.10,-631.24L-286.43,-634.77L-289.08,-636.15" />
                  <path d="M-260.77,-651.80L-257.42,-652.42L-236.03,-652.11L-224.68,-650.62L-195.29,-648.86L-185.95,-647.39L-162.56,-646.39" />
                  <path d="M-103.14,-639.53L-79.05,-641.20L-63.00,-640.97L-60.32,-641.60L-33.58,-641.22L-23.58,-639.08" />
                  <path d="M13.83,-636.54L33.89,-636.26" />
                  <path d="M61.29,-635.20L84.02,-634.88L103.36,-631.26L130.10,-630.88" />
                  <path d="M154.80,-627.86L158.81,-627.80" />
                  <path d="M192.21,-625.99L207.58,-625.10" />
                  <path d="M237.01,-625.35L285.80,-623.99L299.14,-621.80L299.80,-621.12" />
                  <path d="M451.21,-594.24L447.89,-596.29L451.09,-586.21L451.59,-574.17L448.78,-564.18L446.04,-560.21L441.30,-555.59L432.52,-549.70L423.10,-545.15L406.29,-538.70" />
                  <path d="M369.93,-521.17L365.95,-523.23L318.93,-508.51L309.55,-506.64L296.10,-501.48L273.96,-496.45" />
                  <path d="M233.00,-484.32L229.67,-485.04L209.51,-477.97L172.62,-469.80L140.47,-466.24L133.09,-464.34L131.06,-463.03" />
                  <path d="M97.42,-448.13L86.66,-443.60L61.13,-435.27L20.89,-427.15L18.20,-425.85L-6.62,-420.18L-20.06,-415.69" />
                  <path d="M-93.92,-394.00L-109.37,-388.87L-140.24,-380.62L-182.50,-371.19" />
                  <path d="M-238.41,-342.56L-242.39,-344.62L-271.28,-335.00L-283.35,-332.49L-293.39,-331.97L-301.44,-330.08" />
                  <path d="M-387.23,-363.39L-389.15,-369.43L-388.35,-378.11L-386.95,-382.77L-384.21,-387.42L-378.80,-392.02L-357.24,-403.08L-345.83,-406.26L-337.13,-406.81L-327.06,-409.34L-318.99,-412.57L-312.29,-413.81" />
                  <path d="M-251.93,-426.33L-247.87,-429.62L-237.79,-433.49L-204.26,-440.37" />
                  <path d="M-162.67,-449.81L-146.54,-455.60L-123.72,-461.29" />
                  <path d="M-44.51,-482.90L-11.60,-493.14" />
                  <path d="M33.39,-506.54L63.59,-514.81L91.76,-520.42" />
                  <path d="M113.27,-528.81L120.67,-532.05L138.13,-537.15" />
                  <path d="M170.33,-544.72L177.06,-547.30L186.45,-549.17L201.22,-553.65L211.27,-554.84L219.32,-556.73L231.43,-561.91L242.83,-564.42L248.22,-567.02" />
                  <path d="M276.43,-575.98L282.48,-578.57L287.85,-579.83L309.97,-583.53L311.99,-584.84L332.81,-591.23L340.16,-591.13" />
                  <path d="M-403.96,-598.33L-395.39,-589.51L-394.12,-584.81L-386.85,-578.69L-384.19,-577.99L-377.56,-573.88L-364.92,-569.02L-342.95,-562.69L-338.30,-559.95" />
                  <path d="M-301.71,-547.40L-295.69,-547.31L-289.03,-545.21L-265.79,-533.51L-259.17,-529.41L-247.21,-523.89" />
                  <path d="M-201.98,-506.53L-187.32,-502.98L-174.03,-497.44L-162.71,-493.94" />
                  <path d="M-117.49,-476.58L-105.51,-472.40L-93.56,-466.21L-78.92,-461.33" />
                  <path d="M-51.63,-452.25L-43.64,-450.13L-13.73,-437.67L-10.41,-435.61" />
                  <path d="M34.09,-414.92L42.09,-412.80L71.34,-401.02" />
                  <path d="M94.62,-392.00L111.91,-385.74L127.20,-378.83" />
                  <path d="M143.82,-371.91L151.16,-371.14L157.82,-369.04L189.02,-353.22" />
                  <path d="M212.94,-342.18L234.90,-335.18L244.87,-331.03L258.80,-322.81L269.43,-317.98" />
                  <path d="M275.43,-316.56L291.39,-310.31L321.91,-293.83" />
                  <path d="M437.54,-526.23L437.64,-533.58L438.31,-533.57L438.22,-526.88L437.45,-520.21L429.62,-486.22" />
                  <path d="M431.32,-464.80L431.23,-458.78L429.83,-454.12L430.22,-434.05" />
                  <path d="M429.17,-407.32L430.46,-403.96L430.41,-400.62L426.20,-386.64L424.02,-374.63L423.08,-355.25L419.53,-340.59L419.46,-335.91" />
              </g>
          </g>
      </g>
</svg>