<?xml version="1.0" encoding="utf-8"?>
<svg width="100%" height="100%" viewBox="-597 -417 1194 834" xmlns="http://www.w3.org/2000/svg">
    <style>
    svg { background-color: rgba(0, 0, 0, 0.0); }

    #looom {
    --version:3; --tempo:120; --musicTime:0; --gridEnabled:0; --imageAlpha:1.00; 
    }

    #t0 {
    --visible:1; --timeOffset:14.08333; --speed:4; --bookmarkIndex:-1; --latched:0; --playMode:0; --masked:0; --blendMode:0; --pressureEnabled:1; 
    stroke:#FFFEFE; stroke-opacity:1; fill-opacity:0; stroke-width:10; stroke-linecap:round; stroke-linejoin:round;
    }
    @keyframes t0 { 0% { opacity: 1; } 25% { opacity: 0; } }
    #t0 .frame { animation:t0 1s calc(var(--index) * 0.25s) steps(1) infinite; }

    #t1 {
    --visible:1; --timeOffset:13.5; --speed:8; --bookmarkIndex:-1; --latched:0; --playMode:0; --masked:0; --blendMode:0; --pressureEnabled:1; 
    stroke:#D8484D; stroke-opacity:1; fill-opacity:0; stroke-width:10; stroke-linecap:round; stroke-linejoin:round;
    }
    @keyframes t1 { 0% { opacity: 1; } 33.33333% { opacity: 0; } }
    #t1 .frame { animation:t1 0.375s calc(var(--index) * 0.125s) steps(1) infinite; }

    #t2 {
    --visible:1; --timeOffset:13.75; --speed:8; --bookmarkIndex:-1; --latched:0; --playMode:0; --masked:0; --blendMode:0; --pressureEnabled:1; 
    stroke:#48CED8; stroke-opacity:1; fill-opacity:0; stroke-width:10; stroke-linecap:round; stroke-linejoin:round;
    }
    @keyframes t2 { 0% { opacity: 1; } 20% { opacity: 0; } }
    #t2 .frame { animation:t2 0.625s calc(var(--index) * 0.125s) steps(1) infinite; }

    #t3 {
    --visible:1; --timeOffset:6.75; --speed:4; --bookmarkIndex:-1; --latched:0; --playMode:0; --masked:0; --blendMode:0; --pressureEnabled:1; 
    stroke:#FFFEFE; stroke-opacity:1; fill-opacity:0; stroke-width:10; stroke-linecap:round; stroke-linejoin:round;
    }
    @keyframes t3 { 0% { opacity: 1; } 11.11111% { opacity: 0; } }
    #t3 .frame { animation:t3 2.25s calc(var(--index) * 0.25s) steps(1) infinite; }

    </style>
    <g id="w0" transform="translate(-9.82 22.27) scale(0.59 0.59) rotate(-1.36)" class="weave">
        <g id="t0" class="thread">
        <g id="f0" style="--index:0; opacity:1;" class="frame">
            <path d="M-52.47,43.38L-52.49,44.10L-52.47,43.38" />
            <path d="M-52.44,41.94L-52.47,43.38L-52.44,41.94" />
            <path d="M-52.42,41.22L-52.44,41.94L-52.42,41.22" />
            <path d="M-52.36,39.07L-52.38,39.79L-52.36,39.07" />
            <path d="M-52.32,37.63L-52.36,39.07L-52.32,37.63" />
            <path d="M-52.30,36.91L-52.32,37.63L-52.30,36.91" />
            <path d="M-52.49,44.10L-52.57,46.97L-52.49,44.10" />
            <path d="M-52.38,39.79L-52.42,41.22L-52.38,39.79" />
            <path d="M-55.50,49.05L-55.48,48.34L-55.50,49.05" />
            <path d="M-55.59,52.65L-59.13,50.40L-67.04,50.19L-75.74,52.84L-88.88,60.41L-93.29,63.89L-109.49,78.58L-124.28,94.01L-145.15,122.24L-155.68,139.95L-174.85,185.48L-181.90,207.59L-183.71,221.93L-184.09,236.30L-183.02,250.72L-179.29,273.11L-169.30,303.58L-162.46,317.42L-154.19,331.30L-143.07,345.98L-127.02,365.10L-105.89,382.19L-91.76,391.91L-67.62,404.04L-49.10,411.00L-31.25,415.78L8.19,420.40L37.66,421.17L57.10,420.24L77.32,417.17L97.60,411.95L138.94,398.64L157.83,391.22L175.33,382.32L192.88,371.27L224.42,347.64L231.06,341.34L247.38,322.35L261.59,301.14L269.19,285.51L275.36,269.85L277.74,261.28L281.93,238.37L282.53,215.37L279.74,184.37L276.06,159.82L272.16,143.90L266.79,129.37L259.94,116.25L248.22,96.53L230.87,72.34L221.09,61.29L198.60,41.29L175.23,27.01L161.73,20.91L141.05,13.90L118.88,9.00L103.83,7.17L72.94,5.65L49.16,7.19L13.74,14.18L-5.82,19.42L-11.64,22.15L-17.43,23.43L-34.13,29.47L-64.73,44.50L-93.25,62.46" />
        </g>
        <g id="f1" style="--index:1; opacity:0;" class="frame">
            <path d="M31.01,13.91L28.49,13.84L20.87,16.52L2.81,19.65L-20.36,25.52L-39.12,27.90" />
            <path d="M28.49,13.84L13.76,13.46L0.76,15.28L-34.05,26.60L-50.11,35.53L-52.32,37.63L-56.67,38.95L-89.47,55.36L-101.91,63.67L-107.79,68.55L-118.02,74.76L-126.83,81.72L-149.88,110.61L-165.01,138.98L-166.56,143.26L-168.79,146.08L-176.43,163.14L-181.13,178.12L-182.04,185.29L-184.44,194.58L-187.02,211.05L-187.27,220.40L-188.97,230.42L-189.64,256.30L-188.54,269.27L-186.61,277.95L-179.23,298.29L-177.96,304.79L-171.16,320.07L-165.60,327.41L-162.89,333.95L-156.69,344.19L-151.11,350.80L-141.95,358.23L-123.07,378.87L-106.12,390.81L-97.70,398.95L-90.62,403.45L-79.97,408.76L-67.96,416.98L-48.00,423.98L-33.70,427.22L-25.82,428.15L-12.25,432.10L-4.36,433.02L37.32,434.11L61.91,429.00L81.39,426.63L95.14,423.39L124.89,413.38L157.63,399.12L171.49,391.57L182.50,383.23L191.27,377.70L219.92,354.72L224.31,351.95L227.28,348.43L230.95,345.65L242.08,332.28L257.57,317.58L263.54,309.10L267.31,302.73L280.41,269.26L283.62,256.40L283.75,251.37L287.90,229.90L288.04,224.87L289.72,215.56L290.17,198.31L285.75,174.46L274.23,147.55L272.15,144.62L270.82,140.27L262.55,126.39L253.54,113.21L245.16,103.64L238.94,94.13L228.49,80.91L213.75,66.86L209.59,61.00L206.77,58.76L201.89,52.88L185.66,40.95L175.82,32.06L152.44,18.51L141.05,13.90L126.79,9.21L112.47,6.68L77.27,5.04L46.95,9.29L28.49,13.84" />
        </g>
        <g id="f2" style="--index:2; opacity:0;" class="frame">
            <path d="M-13.61,29.27L-18.03,26.97L-21.76,28.39L-49.49,43.56L-66.76,54.43L-110.40,89.41L-133.80,112.81L-139.86,120.15L-145.18,127.49L-160.44,152.51L-166.59,165.79L-171.36,185.78L-174.46,193.90L-176.95,210.21L-177.54,247.35L-174.16,268.95L-171.32,277.17L-168.56,290.58L-164.33,304.77L-160.76,314.48L-156.44,322.72L-151.46,336.92L-142.09,354.90L-120.99,383.47L-107.84,397.79L-96.09,406.15L-71.74,416.94L-57.01,425.34L-45.20,429.99L-19.30,437.08L-8.17,438.00L31.20,438.62L89.29,429.88L122.90,418.52L152.06,407.10L161.04,402.78L179.79,391.93L185.03,389.78L211.27,374.60L224.78,365.89L250.35,346.24L256.41,338.90L260.18,335.99L273.82,319.12L281.45,305.86L285.32,296.26L291.59,275.56L295.65,254.08L297.38,238.50L297.60,224.39L293.53,199.80L293.59,196.09L291.50,187.14L280.23,148.33L275.96,136.37L268.79,119.91L261.59,104.94L245.60,82.40L227.37,60.56L219.33,52.26L201.74,37.12L192.19,30.29L163.44,15.72L130.88,7.77L107.86,6.66L104.16,5.86L77.42,5.44L29.75,12.86L11.81,19.27L6.57,22.15L3.58,22.85L-13.66,32.98L-22.62,35.81L-26.37,37.98L-34.66,45.28L-36.19,48.23L-42.24,54.82" stroke-profile="0.8462176 0.8656096 0.8508576 0.7337837 0.8173661 0.8145004 0.8280224 0.8232887 0.795389 0.8694834 0.8555087 0.8257567 0.8179182 0.8519649 0.8241821 0.8184042 0.8186906 0.8796962 0.9126726 0.8744913 0.8622705 0.8670821 0.9068216 0.9055194 0.9042126 0.8883631 0.906975 0.9692035 1.001921 1.042238 1.075454 1.064469 1.067242 1.130962 1.163851 1.129218 1.191278 1.198635 1.202367 1.222735 1.230779 1.226888 1.252811 1.291992 1.315231 1.337397 1.324678 1.358397 1.391003 1.436746 1.462253 1.454187 1.426604 1.44902 1.465503 1.457407 1.45974 1.490863 1.434533 1.42388 1.476106 1.456756 1.448708 1.356678 1.338559 1.329197 1.285097 1.217949 1.22449 1.219657 1.212231 1.184413 1.155567 1.123514 0.8545455 0.78541 0.3322269 " />
        </g>
        <g id="f3" style="--index:3; opacity:0;" class="frame">
            <path d="M-56.14,41.22L-53.13,38.30L-54.61,38.28L-58.36,40.45L-77.15,54.27L-84.68,60.09L-95.98,70.32L-98.26,73.25L-102.01,75.42L-112.55,84.17L-117.83,89.29L-119.36,92.24L-128.45,103.24L-135.24,109.82L-143.58,120.09L-152.74,135.55L-158.89,148.82L-169.10,183.58L-172.39,203.59L-172.22,240.00L-167.45,267.57L-165.35,275.77L-158.94,292.96L-156.77,296.71L-156.09,300.44L-138.14,340.10L-127.28,358.10L-111.29,380.65L-106.18,386.67L-95.94,397.24L-85.69,406.31L-66.60,420.73L-56.29,426.84L-23.02,437.02L14.12,437.61L31.98,436.41L69.98,429.58L78.94,426.74L84.89,426.10L94.61,422.53L148.36,406.29L170.06,396.23L173.05,395.54L194.02,384.73L196.29,382.53L209.03,375.30L215.04,370.94L242.88,349.09L254.96,336.65L270.18,313.86L284.68,289.57L293.14,271.87L296.37,255.57L296.82,226.60L294.84,210.97L290.70,190.84L286.41,180.37L276.34,159.41L274.16,156.40L261.22,128.71L257.66,118.99L249.71,104.75L243.88,97.23L235.94,82.99L230.11,75.47L228.67,72.47L225.74,70.20L212.59,55.87L207.46,51.33L198.64,45.25L186.87,37.63L173.60,31.48L158.82,26.04L142.55,21.33L109.16,18.57L63.10,17.85L54.17,19.19L19.97,20.14L1.33,24.30L-7.64,27.87L-18.09,30.68L-23.33,33.57L-26.32,34.27L-51.79,47.98L-61.57,55.26L-66.87,61.86" stroke-profile="0.2813954 0.7680706 0.8220556 0.8296607 0.8409883 0.8390992 0.8208227 0.8227462 0.8167734 0.8381255 0.8652182 0.8715402 0.8788151 0.8842861 0.9009926 0.8418596 0.8129902 0.8291612 0.8360233 0.9000738 0.9009141 0.9167632 0.8999748 0.8976063 0.8945324 0.8959634 0.9189298 0.9354735 0.9441567 0.9751654 0.9940491 1.026814 0.9966046 1.099305 1.190077 1.16867 1.164257 1.179447 1.194374 1.198846 1.211062 1.245281 1.250845 1.265971 1.269633 1.300172 1.293232 1.285925 1.300887 1.29827 1.285439 1.279402 1.350141 1.41468 1.454555 1.420064 1.425137 1.417391 1.417014 1.444782 1.438804 1.435412 1.438368 1.453979 1.413634 1.409505 1.399601 1.423254 1.428873 1.413531 1.382061 1.345253 1.348917 1.287626 1.242443 1.177398 1.17473 1.183521 1.183154 1.168207 1.153115 1.157692 1.15976 1.126571 0.9816937 0.3134283 " />
        </g>
        </g>
        <g id="t1" class="thread">
        <g id="f0" style="--index:0; opacity:1;" class="frame">
            <path d="M-71.15,-123.25L-74.85,-119.03L-78.07,-106.17L-74.74,-123.35L-73.99,-124.76L-68.97,-123.91L-63.35,-118.73L-59.89,-113.61L-51.72,-96.13L-51.73,-95.42L-53.17,-95.45L-56.69,-98.42L-68.06,-103.75L-72.37,-103.86L-73.85,-102.46L-78.53,-88.20L-77.82,-88.18L-73.37,-93.10L-69.74,-94.45L-62.55,-94.26L-60.45,-92.05L-71.22,-93.05L-73.47,-89.51L-73.62,-83.76L-72.90,-83.74L-72.92,-83.02L-70.74,-83.68L-66.84,-67.76L-64.96,-56.92L-64.62,-40.04L-63.03,-48.24L-65.86,-22.42L-66.11,-13.08L-45.26,-12.53L-43.84,-11.78L-43.92,-8.90L-45.36,-8.94L-45.38,-8.22L-56.14,-9.22L-57.67,-5.66L-57.84,0.80L-55.89,8.77L-55.43,18.85L-56.22,49.04L-55.50,49.05L-55.65,54.80" />
            <path d="M-79.73,-97.58L-79.75,-96.86L-79.73,-97.58" />
            <path d="M-79.71,-98.30L-79.73,-97.58L-79.71,-98.30" />
            <path d="M-79.67,-99.74L-79.71,-98.30L-79.67,-99.74" />
            <path d="M-78.90,-101.88L-79.67,-99.74L-78.90,-101.88" />
            <path d="M-78.86,-103.31L-78.90,-101.88L-78.86,-103.31" />
            <path d="M-78.07,-106.17L-78.86,-103.31L-78.07,-106.17" />
            <path d="M-78.53,-88.20L-78.55,-87.48L-78.53,-88.20" />
            <path d="M-52.49,44.10L-52.57,46.97L-52.49,44.10" />
            <path d="M-52.47,43.38L-52.49,44.10L-52.47,43.38" />
            <path d="M-52.44,41.94L-52.47,43.38L-52.44,41.94" />
            <path d="M-52.42,41.22L-52.44,41.94L-52.42,41.22" />
            <path d="M-52.38,39.79L-52.42,41.22L-52.38,39.79" />
            <path d="M-52.36,39.07L-52.38,39.79L-52.36,39.07" />
            <path d="M-52.32,37.63L-52.36,39.07L-52.32,37.63" />
            <path d="M-52.30,36.91L-52.32,37.63L-52.30,36.91" />
            <path d="M-52.93,33.30L-52.30,36.91L-52.93,33.30" />
            <path d="M-52.89,31.86L-52.93,33.30L-52.89,31.86" />
            <path d="M-59.52,-72.60L-59.88,-86.28L-60.60,-86.30L-61.38,-84.16L-62.83,-83.48L-62.93,-79.88L-59.52,-72.60" />
            <path d="M-58.84,-71.15L-59.52,-72.60L-58.84,-71.15" />
            <path d="M-40.58,-26.80L-40.59,-26.08L-40.58,-26.80" />
            <path d="M-41.29,-26.82L-40.58,-26.80L-41.29,-26.82" />
            <path d="M-53.19,-12.02L-52.34,-17.03L-51.87,-35.00L-53.78,-44.40L-56.13,-64.60L-58.84,-71.15L-55.43,-63.86L-48.11,-41.38L-41.29,-26.82L-41.28,-27.53L-39.12,-27.48L-32.10,-20.82L-39.40,-16.70L-48.27,-7.58L-53.19,-12.02" />
            <path d="M-57.03,-30.10L-56.99,-31.54L-57.03,-30.10" />
            <path d="M-62.19,-25.20L-60.43,-10.05L-57.80,-0.63L-54.75,20.30L-54.84,23.90L-52.89,31.86L-53.52,28.25L-53.19,-12.02L-57.31,-19.32L-57.03,-30.10L-58.49,-29.42L-62.19,-25.20" />
            <path d="M-64.62,-40.04L-63.52,-29.55L-62.19,-25.20L-69.61,-16.76L-71.04,-16.80L-70.97,-19.68L-64.62,-40.04" />
            <path d="M-63.03,-48.24L-62.24,-51.10L-62.01,-59.72L-62.73,-59.74L-63.03,-48.24" />
            <path d="M-55.50,49.05L-55.48,48.34L-55.50,49.05" />
        </g>
        <g id="f1" style="--index:1; opacity:0;" class="frame">
            <path d="M-82.51,-124.14L-82.45,-127.85L-80.16,-131.53L-78.67,-132.25L-73.47,-132.17L-70.47,-133.61L-68.99,-133.58L-66.78,-132.06L-65.36,-128.32L-62.44,-124.56L-58.86,-116.33L-57.47,-110.37L-56.02,-108.12L-52.48,-96.91L-48.87,-90.17L-48.13,-90.16L-48.15,-88.67L-52.61,-88.74L-54.96,-89.97L-53.38,-86.53L-51.91,-85.76" stroke-profile="0.4833427 0.859558 0.8636155 0.8528355 0.7598251 0.8133165 0.8621079 0.9104145 0.9207296 0.9000065 0.8730949 0.8540747 0.8182456 0.7524356 0.7420767 0.756782 0.852713 1.009813 1.003882 0.8613536 0.2942306 " />
            <path d="M-77.00,-96.56L-77.01,-95.82L-77.00,-96.56" stroke-profile="0.404972 0.6833569 0.7162693 " />
            <path d="M-82.63,-116.71L-79.15,-101.79L-77.00,-96.56L-79.90,-101.06L-82.03,-107.78L-82.63,-116.71" stroke-profile="0.4379538 0.4040202 0.404972 0.7641832 0.7564421 0.7731743 " />
            <path d="M-82.57,-120.26L-82.63,-116.71L-82.57,-120.26" stroke-profile="0.4644532 0.4379538 0.7886827 " />
            <path d="M-82.51,-124.14L-82.57,-120.26L-82.51,-124.14" stroke-profile="0.4833427 0.4644532 0.8166596 " />
            <path d="M-73.26,-97.99L-73.28,-97.24L-73.26,-97.99" stroke-profile="0.7908078 0.8036656 0.8144243 " />
            <path d="M-72.91,-120.27L-73.26,-97.99L-72.31,-111.34L-72.91,-120.27" stroke-profile="1.058138 0.7908078 0.9729235 1.027614 " />
            <path d="M-73.21,-121.87L-72.91,-120.27L-73.21,-121.87" stroke-profile="1.116085 1.058138 1.03385 " />
            <path d="M-75.42,-102.48L-75.29,-110.65L-73.73,-115.83L-73.21,-121.87L-75.02,-127.73L-75.42,-102.48" stroke-profile="1.049521 1.062654 1.066283 1.116085 1.118113 0.8965505 " />
            <path d="M-74.80,-95.04L-75.54,-95.05L-75.42,-102.48L-74.80,-95.04" stroke-profile="1.125368 1.13258 1.049521 0.7997621 " />
            <path d="M-73.83,-93.54L-74.80,-95.04L-74.83,-92.81L-74.10,-92.06L-73.83,-93.54" stroke-profile="1.120357 1.125368 0.7787548 0.7818117 0.8121644 " />
            <path d="M-69.22,-118.73L-69.20,-120.21L-69.22,-118.73" stroke-profile="1.024683 1.00791 0.9607961 " />
            <path d="M-69.28,-115.01L-69.22,-118.73L-69.28,-115.01" stroke-profile="1.020343 1.024683 0.9528511 " />
            <path d="M-65.19,-91.91L-73.83,-93.54L-70.94,-103.89L-70.05,-113.54L-69.28,-115.01L-69.61,-94.21L-68.87,-94.20L-68.09,-96.42L-65.61,-111.98L-64.86,-112.71L-65.19,-91.91" stroke-profile="1.061806 1.120357 0.983182 1.030422 1.020343 0.8674825 0.8685347 0.8794739 0.9985027 0.9538878 0.8621213 " />
            <path d="M-60.74,-91.10L-65.19,-91.91L-64.53,-86.70L-63.03,-87.42L-60.74,-91.10" stroke-profile="1.042978 1.061806 0.8391774 0.8207974 0.8613185 " />
            <path d="M-54.96,-89.97L-60.74,-91.10L-59.96,-93.32L-58.46,-94.78L-56.97,-94.76L-54.96,-89.97" stroke-profile="1.003882 1.042978 0.9192088 0.9083012 0.9278997 0.9291869 " />
            <path d="M-62.59,-68.10L-64.01,-72.58L-63.95,-76.29L-64.77,-71.10L-69.86,-31.06L-69.30,-19.91L-70.04,-19.92L-70.07,-17.69L-70.83,-16.96L-70.90,-12.50L-70.16,-12.49L-68.64,-14.70L-64.77,-24.30L-61.61,-36.13L-61.14,-65.85L-60.25,-75.49L-57.39,-68.02L-51.85,-42.67L-48.49,-20.32L-44.99,-6.15L-39.26,7.31L-37.16,15.52L-37.28,22.95L-36.59,25.93L-38.74,21.44L-41.04,19.07L-44.12,32.50L-47.45,55.48L-47.20,39.14L-45.50,25.79L-45.37,17.62L-48.56,31.69L-50.30,47.26L-50.73,74.75L-50.07,79.96L-49.34,80.71L-50.13,83.67L-43.44,83.78L-43.43,83.03" stroke-profile="0.4262054 0.5261357 0.734338 0.8115773 0.9681166 1.021587 1.031054 1.070259 1.065042 1.031226 1.003503 0.959897 0.906419 0.8887239 1.048201 1.008843 1.187128 1.425987 1.382492 1.387973 1.420954 1.450452 1.448496 1.429845 1.343136 1.327605 1.300349 1.184666 0.9185783 0.9077128 1.067433 1.132241 1.129272 1.1435 1.166905 1.171061 1.155773 1.353378 0.456513 " />
            <path d="M-63.10,-82.97L-63.08,-84.45L-63.10,-82.97" stroke-profile="0.8025192 0.8458257 0.8049795 " />
            <path d="M-63.67,-78.02L-63.10,-82.97L-63.67,-78.02" stroke-profile="0.8127171 0.8025192 0.8082445 " />
            <path d="M-63.95,-76.29L-63.67,-78.02L-63.95,-76.29" stroke-profile="0.734338 0.8127171 0.8084021 " />
            <path d="M-60.25,-75.49L-60.22,-76.98L-60.25,-75.49" stroke-profile="1.008843 1.270901 1.179131 " />
            <path d="M-36.59,25.93L-36.60,26.67L-36.59,25.93" stroke-profile="1.429845 1.415783 1.39595 " />
            <path d="M-42.99,16.37L-51.86,4.89L-59.06,-9.35L-60.45,-15.31L-61.93,-16.08L-62.71,-13.86L-63.00,4.71L-60.92,14.40L-53.83,36.06L-48.97,57.68L-46.84,63.66L-44.66,66.67L-44.62,64.44L-45.37,64.43L-46.73,56.98L-46.46,39.89L-42.99,16.37" stroke-profile="1.312596 1.294387 1.31759 1.355586 1.472279 1.43597 1.47869 1.470688 1.446094 1.406628 1.365349 1.337473 1.352095 1.340299 1.283534 1.250159 1.217332 " />
            <path d="M-41.04,19.07L-42.99,16.37L-42.29,10.98L-41.55,10.99L-40.83,12.49L-41.04,19.07" stroke-profile="1.327605 1.312596 1.310162 1.12806 1.118899 1.200912 " />
            <path d="M-47.51,59.19L-47.56,62.16L-47.51,59.19" stroke-profile="1.155691 1.13539 1.134657 " />
            <path d="M-47.45,55.48L-47.51,59.19L-47.45,55.48" stroke-profile="1.184666 1.155691 1.197292 " />
            <path d="M-54.99,62.05L-55.02,64.28L-53.60,68.01L-53.63,70.24L-54.37,70.23L-54.39,70.97L-55.13,70.96L-54.99,62.05" stroke-profile="1.276195 1.279034 1.260634 1.30645 1.327918 1.334396 1.395731 1.274212 " />
            <path d="M-57.75,27.42L-57.58,38.23L-54.99,62.05L-54.73,45.71L-57.75,27.42" stroke-profile="1.253319 1.257217 1.276195 1.177138 1.116208 " />
            <path d="M-61.95,15.50L-68.82,-2.81L-68.74,-8.01L-67.96,-10.23L-66.49,-9.46L-64.35,-3.48L-61.95,15.50" stroke-profile="1.118114 1.217698 1.22485 1.203222 1.146718 1.167735 1.237557 " />
            <path d="M-47.29,45.08L-48.58,32.43L-54.75,-0.36L-59.85,-6.39L-59.38,10.71L-57.75,27.42L-61.95,15.50L-60.40,28.53L-60.50,34.47L-55.87,70.95L-53.74,76.93L-52.27,78.44L-51.34,66.56L-47.29,45.08" stroke-profile="1.207632 1.151904 0.9889404 1.299187 1.246999 1.253319 1.118114 1.354084 1.392819 1.397093 1.338728 1.339553 1.187486 0.942094 " />
            <path d="M-45.35,16.13L-45.32,14.65L-45.35,16.13" stroke-profile="1.066428 1.109395 1.11416 " />
            <path d="M-45.35,16.22L-45.35,16.22" stroke-profile="1.06718 1.113802 " />
            <path d="M-45.37,17.62L-45.35,16.22L-45.37,17.62" stroke-profile="1.067433 1.06718 1.108238 " />
            <path d="M-48.62,82.21L-48.63,82.95L-48.62,82.21" stroke-profile="1.163775 1.160662 1.302191 " />
            <path d="M-49.36,82.20L-48.62,82.21L-49.36,82.20" stroke-profile="1.155911 1.163775 1.317143 " />
        </g>
        <g id="f2" style="--index:2; opacity:0;" class="frame">
            <path d="M-78.83,-121.85L-79.32,-120.46L-80.22,-127.82L-80.15,-132.27L-79.40,-133.00L-72.73,-132.16L-69.78,-130.62L-66.86,-126.86L-59.66,-112.63L-54.05,-91.74L-51.88,-87.99L-51.91,-85.76L-57.86,-85.11L-52.00,-79.82L-49.82,-76.81" stroke-profile="0.5020201 0.505769 0.7342914 0.8166921 0.8341398 0.7215176 0.7740077 0.8974554 0.9690521 0.8659602 0.7907149 0.8943427 1.08849 0.7232563 0.1984994 " />
            <path d="M-76.42,-86.15L-76.44,-85.41L-76.42,-86.15" stroke-profile="0.3651587 0.4595898 0.5031604 " />
            <path d="M-79.32,-120.46L-80.39,-117.42L-80.49,-110.73L-76.42,-86.15L-75.46,-100.25L-76.78,-110.67L-79.32,-120.46" stroke-profile="0.505769 0.5140163 0.5338038 0.3651587 0.6651717 0.6939324 0.7142244 " />
            <path d="M-55.58,-88.79L-54.84,-88.78L-55.58,-88.79" stroke-profile="0.8394544 0.9486493 1.003785 " />
            <path d="M-56.32,-88.80L-55.58,-88.79L-56.32,-88.80" stroke-profile="0.7931978 0.8394544 1.067657 " />
            <path d="M-75.19,-117.33L-75.90,-119.57L-76.64,-119.59L-75.19,-117.33" stroke-profile="1.043442 1.048552 1.046874 0.8990507 " />
            <path d="M-73.02,-113.59L-75.19,-117.33L-73.02,-113.59" stroke-profile="1.073768 1.043442 0.8120865 " />
            <path d="M-73.02,-113.59L-73.02,-113.59" stroke-profile="1.073771 0.812085 " />
            <path d="M-63.67,-90.95L-59.27,-90.34L-56.32,-88.80L-64.35,-97.85L-73.02,-113.59L-63.67,-90.95" stroke-profile="0.7093982 0.7622312 0.7931978 1.130242 1.073771 0.8904133 " />
            <path d="M-60.84,-85.16L-71.90,-90.53L-73.38,-90.56L-76.32,-92.83L-69.63,-92.73L-63.67,-90.95L-63.02,-88.17L-60.84,-85.16" stroke-profile="1.08322 1.164783 1.192083 1.217089 0.8274861 0.7093982 0.8415167 0.7364101 " />
            <path d="M-61.50,-90.37L-62.89,-96.34L-71.44,-119.50L-71.50,-115.79L-67.24,-103.09L-62.91,-94.85L-61.50,-90.37" stroke-profile="0.9632845 1.073704 1.072467 0.9495749 0.8509799 0.823385 0.7879139 " />
            <path d="M-57.86,-85.11L-60.84,-85.16L-60.78,-88.87L-61.50,-90.37L-57.86,-85.11" stroke-profile="1.08849 1.08322 0.8740369 0.9632845 0.7540953 " />
            <path d="M-64.07,-68.86L-66.19,-75.58L-66.91,-77.08L-67.65,-77.09L-66.38,-63.70L-67.82,-19.14L-67.26,-7.99L-67.42,2.41L-69.02,9.82L-69.16,18.73L-67.69,19.50L-63.60,19.19L-65.34,12.10L-65.97,4.66L-62.42,15.12L-58.28,35.25L-56.53,65.74L-55.19,74.67L-50.89,85.14L-50.77,76.97L-49.44,87.40L-47.30,92.63L-47.24,88.92" stroke-profile="0.2976469 0.4417793 0.5786331 0.6423731 0.6685034 0.719719 0.6089917 1.019268 1.03346 0.9217275 0.8825385 0.8187581 1.056378 1.076927 1.106822 1.117537 1.048954 1.026062 1.098581 1.029769 1.266049 1.398248 0.6089382 " />
            <path d="M-61.97,-60.66L-61.95,-61.40L-61.97,-60.66" stroke-profile="0.8543453 0.9075891 0.8542301 " />
            <path d="M-61.25,-59.16L-61.97,-60.66L-61.25,-59.16" stroke-profile="0.8486612 0.8543453 0.8125045 " />
            <path d="M-56.46,-32.71L-56.33,-41.25L-61.25,-59.16L-56.46,-32.71" stroke-profile="0.5258425 0.621724 0.8486612 1.015263 " />
            <path d="M-45.35,16.13L-45.36,16.88L-45.35,16.13" stroke-profile="1.002708 0.9974846 1.007141 " />
            <path d="M-47.85,10.15L-45.35,16.13L-47.85,10.15" stroke-profile="1.0438 1.002708 0.9979515 " />
            <path d="M-57.50,-20.45L-56.46,-32.71L-55.75,-30.84L-51.01,-1.79L-47.85,10.15L-53.93,-4.81L-57.50,-20.45" stroke-profile="0.5281069 0.5258425 1.013606 1.055246 1.0438 0.932992 0.9807366 " />
            <path d="M-63.05,-39.13L-63.04,-39.87L-63.05,-39.13" stroke-profile="0.9898792 1.010103 1.039406 " />
            <path d="M-67.35,-2.05L-67.61,14.30L-65.38,14.33L-59.05,-10.09L-57.50,-20.45L-58.78,-27.17L-63.05,-39.13L-64.87,-17.61L-67.35,-2.05" stroke-profile="0.6595162 0.776459 0.6892495 0.5550596 0.5281069 0.9875698 0.9898792 1.001695 1.015168 " />
            <path d="M-50.89,84.93L-50.92,86.63L-50.89,84.93" stroke-profile="1.219706 1.199694 1.025812 " />
            <path d="M-52.23,75.46L-50.89,84.93L-50.80,79.20L-52.23,75.46" stroke-profile="1.203279 1.219706 1.009856 0.9857686 " />
            <path d="M-52.89,70.25L-52.23,75.46L-52.89,70.25" stroke-profile="1.170358 1.203279 0.9278992 " />
            <path d="M-63.60,19.19L-57.93,12.96L-51.84,4.14L-50.36,4.17L-55.23,30.09L-55.48,46.44L-54.06,50.17L-52.89,70.25L-59.74,33.74L-63.60,19.19" stroke-profile="0.8187581 0.8474383 0.8952795 0.9134897 1.092482 1.111078 1.079076 1.170358 0.8642519 1.011099 " />
            <path d="M-65.96,3.92L-65.95,3.18L-65.96,3.92" stroke-profile="1.094417 1.13977 1.149962 " />
            <path d="M-65.97,4.66L-65.96,3.92L-65.97,4.66" stroke-profile="1.076927 1.094417 1.131787 " />
            <path d="M-52.29,79.18L-52.30,79.92L-52.29,79.18" stroke-profile="0.9957314 0.9875757 0.9444508 " />
            <path d="M-55.19,27.80L-55.13,24.15L-55.19,27.80" stroke-profile="1.098818 1.117106 1.244344 " />
            <path d="M-55.23,30.09L-55.19,27.80L-55.23,30.09" stroke-profile="1.089094 1.098818 1.21751 " />
            <path d="M-52.84,79.17L-52.29,79.18L-51.98,59.87L-55.23,30.09L-55.55,50.89L-52.84,79.17" stroke-profile="0.9892946 0.9957314 1.086982 1.089094 1.169077 1.057071 " />
            <path d="M-49.49,90.37L-49.50,91.11L-49.49,90.37" stroke-profile="1.138369 1.190724 1.153988 " />
            <path d="M-50.89,85.14L-49.49,90.37L-50.89,85.14" stroke-profile="1.098581 1.138369 1.082814 " />
            <path d="M-50.62,68.06L-50.60,66.57L-50.62,68.06" stroke-profile="1.067494 1.168645 1.151774 " />
            <path d="M-50.71,73.58L-50.62,68.06L-50.71,73.58" stroke-profile="1.030285 1.067494 1.15663 " />
            <path d="M-50.77,76.97L-50.71,73.58L-50.77,76.97" stroke-profile="1.029769 1.030285 1.163239 " />
            <path d="M-55.54,-44.21L-60.45,-62.86L-61.18,-63.62L-61.25,-59.16L-52.92,-21.88L-52.19,-21.12L-48.47,-21.07L-37.39,-17.18L-31.45,-17.08L-31.46,-16.34L-29.97,-16.32" stroke-profile="0.1 0.5133318 0.7009646 0.6408055 0.6049232 0.6059697 0.8201238 1.028965 1.167733 1.165175 0.785398 " />
        </g>
        </g>
        <g id="t2" class="thread">
        <g id="f0" style="--index:0; opacity:1;" class="frame">
            <path d="M217.78,-84.47L217.84,-88.19L220.13,-92.61L223.18,-97.02L227.70,-101.41L236.68,-104.98L250.06,-105.51L251.50,-102.52L250.68,-98.07L244.62,-90.74L240.14,-89.32L233.46,-89.43L226.73,-86.56L223.75,-86.61L223.02,-87.36L221.51,-85.90L219.27,-85.19L219.30,-86.68L221.59,-90.36L226.10,-94.00L229.84,-95.43L234.30,-95.36L235.03,-94.60" stroke-profile="0.7752992 0.7378429 0.717713 0.7258752 0.7384504 0.8099139 0.8114387 0.8224405 1.005697 0.9350807 0.881403 0.9411321 0.9802862 1.133209 1.170946 0.7140424 0.8538684 0.8994143 1.085369 0.9565714 0.9250168 0.6724713 0.3943406 " />
            <path d="M233.46,-89.43L229.73,-88.74L217.74,-82.25L222.28,-87.37L229.79,-92.46L235.77,-94.59L240.24,-95.26L240.21,-93.78L233.46,-89.43" stroke-profile="0.9411321 0.9065427 0.9802333 0.8692839 0.8844814 0.957058 0.9423782 0.9337038 0.9875723 " />
            <path d="M238.72,-93.06L239.46,-93.05L238.72,-93.06" stroke-profile="1.062542 1.086401 1.069713 " />
            <path d="M237.22,-92.34L238.72,-93.06L237.22,-92.34" stroke-profile="1.063023 1.062542 1.072402 " />
            <path d="M224.53,-88.83L231.27,-91.69L237.22,-92.34L228.25,-88.77L224.53,-88.83" stroke-profile="1.022174 0.9468701 1.063023 1.054855 1.19539 " />
            <path d="M223.02,-87.36L223.04,-88.11L224.53,-88.83L224.58,-91.80L226.11,-94.74L230.67,-101.36L232.16,-101.34L232.13,-99.11L229.83,-94.69L223.02,-87.36" stroke-profile="1.170946 1.134461 1.022174 1.18623 1.138393 1.068644 0.864727 0.5846583 0.608389 0.651005 " />
            <path d="M231.82,-79.79L232.62,-83.50L232.57,-80.53L231.79,-77.57L224.88,-63.56L222.51,-54.68L221.76,-54.69L221.84,-59.15L218.84,-57.71L206.78,-46.75L194.68,-33.57L189.41,-29.20L189.40,-28.45L190.14,-28.44L196.89,-32.05L217.96,-48.81L219.48,-51.01L221.73,-52.46L224.78,-57.62L230.06,-62.73L226.16,-50.91L223.10,-45.01L219.22,-34.67L217.60,-26.52L217.45,-16.87L216.67,-14.65L214.38,-10.23L211.37,-8.05L208.77,-8.09L193.99,10.25L192.48,11.72L192.49,10.97L198.66,-3.05L202.54,-13.39L203.14,-16.16L202.57,-15.62L210.18,-26.64L215.58,-39.19L214.75,-34.00L214.58,-22.86L216.06,-22.83" stroke-profile="0.7150209 0.7998291 0.6984881 0.7344643 0.833357 0.8922034 0.9232162 1.099732 1.108396 1.15717 1.17248 1.122339 1.093549 0.9734232 0.961035 0.8549984 0.8654797 0.8750455 0.9564267 0.9708381 1.120909 1.141425 1.132831 1.095953 1.032623 1.020467 1.012342 1.022294 1.103376 1.158809 1.16071 1.177628 0.9571903 0.8706609 0.8768174 1.133246 1.24767 1.241613 1.112163 0.9469696 0.5554214 " />
            <path d="M232.62,-83.50L232.63,-84.24L232.62,-83.50" stroke-profile="0.7998291 0.8388277 0.7435481 " />
            <path d="M221.76,-54.69L221.75,-53.95L221.76,-54.69" stroke-profile="0.9232162 1.086169 1.127716 " />
            <path d="M196.74,-22.39L196.00,-23.15L193.78,-23.18L193.76,-22.44L196.74,-22.39" stroke-profile="1.203371 1.215251 1.340189 1.109909 1.037865 " />
            <path d="M204.02,-13.36L200.40,-19.36L196.74,-22.39L198.96,-22.36L205.60,-19.28L207.76,-14.79L206.25,-13.33L204.02,-13.36" stroke-profile="1.111393 1.086031 1.203371 1.079596 1.110236 1.111666 1.149232 1.183597 " />
            <path d="M192.26,-20.98L192.27,-21.72L192.26,-20.98" stroke-profile="1.134247 1.224844 1.180712 " />
            <path d="M190.02,2.76L188.91,2.74L189.03,-4.68L192.26,-20.98L192.08,-9.84L190.02,2.76" stroke-profile="1.1892 1.204183 1.141581 1.134247 1.127261 1.113778 " />
            <path d="M205.71,-10.61L204.02,-13.36L201.79,-13.40L198.86,-15.67L196.68,-18.68L193.82,-26.16L193.08,-26.17L192.65,1.32L191.15,2.04L191.14,2.78L190.02,2.76L186.47,16.08L194.05,6.54L197.12,0.64L205.71,-10.61" stroke-profile="1.117997 1.111393 1.216155 1.254867 1.256497 1.241002 1.228782 1.18917 1.17216 1.170495 1.1892 1.108887 1.189533 1.196807 1.151936 " />
            <path d="M208.77,-8.09L206.92,-8.86L205.71,-10.61L212.25,-16.95L213.74,-16.93L213.69,-13.95L212.19,-13.23L211.42,-11.02L208.77,-8.09" stroke-profile="1.103376 1.121215 1.117997 1.10418 1.109293 1.104406 1.104624 1.104319 1.137775 " />
            <path d="M191.73,12.45L191.72,13.19L191.73,12.45" stroke-profile="1.159995 1.177781 1.177986 " />
            <path d="M192.48,11.72L191.73,12.45L192.48,11.72" stroke-profile="1.16071 1.159995 1.17459 " />
            <path d="M205.78,-30.80L205.84,-34.14L205.09,-34.15L200.58,-30.51L200.56,-29.02L205.78,-30.80" stroke-profile="1.056483 1.136094 1.129307 1.019647 0.934721 0.9559929 " />
            <path d="M203.14,-16.16L205.78,-30.80L215.51,-34.73L215.47,-32.50L203.14,-16.16" stroke-profile="0.8768174 1.056483 0.9806268 1.008196 1.119854 " />
            <path d="M202.57,-15.62L202.56,-14.87L202.57,-15.62" stroke-profile="1.133246 1.162567 1.172404 " />
            <path d="M215.58,-39.19L215.59,-39.93L215.58,-39.19" stroke-profile="1.241613 1.240531 1.221311 " />
            <path d="M213.47,0.16L210.46,2.34L208.19,5.28L199.79,19.26L198.24,23.70L198.19,26.67L197.45,26.65L195.16,30.33" stroke-profile="0.6047223 0.6128393 0.6467769 0.6734183 0.6688603 0.7683485 0.7815238 0.5700937 " />
            <path d="M182.97,2.65L185.28,-2.51L185.31,-4.74L188.42,-13.61L188.38,-10.64L185.21,1.94L179.01,18.19L178.98,19.68L179.73,19.69L179.75,18.20L181.26,16.74L183.59,10.09L186.62,6.42L182.72,18.25L182.60,25.68L184.05,27.93L188.50,28.74L189.26,27.27L193.77,24.37L199.82,17.78" stroke-profile="0.2346277 0.263811 0.3812486 0.6757368 0.5781642 0.751446 0.8226747 0.8329191 0.7395621 0.7743399 0.8559772 0.7955461 0.7568426 0.8592251 0.8410874 0.7700706 0.7512785 0.7355935 0.7722628 0.4879754 " />
            <path d="M188.45,-15.10L188.47,-16.58L188.45,-15.10" stroke-profile="0.7489034 0.7528207 0.5790279 " />
            <path d="M188.42,-13.61L188.45,-15.10L188.42,-13.61" stroke-profile="0.6757368 0.7489034 0.5978774 " />
            <path d="M185.22,1.20L179.70,21.17L179.71,20.43L178.97,20.42L179.04,15.96L185.22,1.20" stroke-profile="0.6608199 0.6930862 0.7257419 0.7520781 0.7488658 0.7050707 " />
            <path d="M186.77,-3.23L185.22,1.20L186.77,-3.23" stroke-profile="0.6399908 0.6608199 0.6914379 " />
            <path d="M187.05,-4.72L191.45,-17.28L191.49,-19.51L190.75,-19.52L187.05,-4.72" stroke-profile="0.6293245 0.7353174 0.8704883 0.8182182 0.712227 " />
            <path d="M189.23,29.50L193.69,29.57L193.67,30.31L189.23,29.50" stroke-profile="0.7531224 0.7994964 1.015997 0.9839122 " />
            <path d="M188.50,28.74L189.23,29.50L188.49,29.49L188.50,28.74" stroke-profile="0.7512785 0.7531224 0.9500019 0.8613276 " />
        </g>
        <g id="f1" style="--index:1; opacity:0;" class="frame">
            <path d="M220.69,-80.71L217.67,-77.79L216.94,-78.54L216.98,-80.77L216.23,-80.78L216.34,-87.47L221.64,-94.07L226.15,-96.97L237.34,-99.77L246.99,-99.62L249.92,-96.60L251.40,-96.57L252.12,-95.08L235.79,-96.08L231.31,-94.66L225.31,-91.04L219.26,-84.45L219.25,-83.71L219.99,-83.70L226.00,-87.32L232.73,-90.18L240.16,-90.06L240.10,-86.35L235.51,-78.25L233.15,-70.11L232.41,-70.13L230.85,-65.69L228.46,-55.33L228.40,-51.61L226.87,-48.67L226.02,-41.99L223.68,-34.60L222.92,-33.87L222.24,-37.59L222.36,-45.02L223.17,-49.47L227.01,-57.58L227.03,-59.07L225.55,-59.09L224.78,-57.62L218.04,-54.01L209.01,-46.72L211.30,-50.40L211.31,-51.14L209.80,-49.68L193.79,-23.93L191.47,-18.02L190.64,-12.83L189.90,-12.84L189.86,-10.62L191.31,-8.36L192.06,-8.35L192.74,-4.63L197.35,-14.21L202.69,-23.04L202.71,-24.53L203.46,-24.52L203.44,-23.77L196.49,-6.80L191.13,3.52L188.86,5.72L185.79,12.35L183.51,15.29L183.49,16.78L191.67,16.16L192.38,18.40L194.61,18.44L195.86,17.47L186.98,30.95L186.21,32.42L188.47,30.23" stroke-profile="0.2479011 0.4584448 0.4859661 0.579138 0.6122735 0.6453359 0.6265425 0.633148 0.6757917 0.9402778 0.9119835 0.9123071 0.9097387 1.054419 1.017232 0.9115241 0.8301421 0.8513643 0.8116937 0.7979874 0.8397298 0.6757333 0.6363863 0.6154077 0.7950001 0.7665048 0.7837646 0.7404748 0.7417113 0.7391507 0.7402927 0.8637497 0.8521364 0.1162208 0.5347624 0.5869114 0.7264189 0.8933715 0.8708 0.8620188 0.8278263 0.8388003 0.9502444 0.9672815 0.9692928 0.9450573 0.9154066 0.9140804 0.9158383 0.8628051 0.7843119 0.7674071 0.8105322 0.9144625 0.9492943 1.011101 1.057982 1.056221 0.9365254 0.922381 0.9204118 0.9292168 0.9279333 0.9326659 0.8841155 0.9254576 0.9170196 0.9425713 1.040743 1.035835 0.1665627 " />
            <path d="M250.63,-94.36L248.39,-93.65L246.88,-92.19L240.16,-90.06L234.14,-85.70L232.62,-83.50L230.38,-82.79L226.62,-79.88L219.88,-76.27L215.41,-75.60L215.40,-74.85L214.65,-74.86L217.62,-74.82L230.30,-77.59L242.27,-82.60L250.53,-88.41L250.63,-94.36" stroke-profile="0.2233659 0.224671 0.2788976 0.4757882 0.314129 0.3084814 0.3508901 0.4286879 0.4495297 0.6872509 0.669615 0.7047054 0.526398 0.6832772 0.7453561 0.7416846 0.87123 " />
            <path d="M229.85,-96.17L227.62,-96.21L226.87,-95.48L229.85,-96.17" stroke-profile="0.8752607 0.8931249 0.9136795 0.7587724 " />
            <path d="M243.99,-97.43L235.07,-97.57L229.85,-96.17L237.31,-98.28L244.00,-98.18L243.99,-97.43" stroke-profile="0.8603125 0.8418547 0.8752607 0.7484707 0.7329224 0.7279789 " />
            <path d="M237.95,-91.59L218.46,-80.75L222.94,-82.16L228.19,-85.05L237.95,-91.59" stroke-profile="0.7997246 0.8373964 0.7622304 0.7572076 0.9047653 " />
            <path d="M237.95,-91.59L237.95,-91.59" stroke-profile="0.7997246 0.9047654 " />
            <path d="M239.45,-92.30L237.95,-91.59L239.45,-92.30" stroke-profile="0.8055328 0.7997246 0.8941118 " />
            <path d="M227.61,-95.46L227.62,-96.21L227.61,-95.46" stroke-profile="1.026508 1.029857 0.9931655 " />
            <path d="M227.60,-94.97L223.80,-89.58L222.30,-88.86L225.35,-93.27L227.60,-94.97" stroke-profile="1.019075 0.8937724 1.058215 0.9293501 0.9044499 " />
            <path d="M240.31,-99.72L249.96,-99.57L253.63,-96.54L253.61,-95.05L250.63,-94.36L246.95,-96.64L243.99,-97.43L244.71,-95.94L237.18,-90.11L227.35,-79.12L224.35,-76.94L222.86,-76.96L222.95,-82.91L225.25,-87.33L225.29,-89.56L227.60,-94.97L230.60,-96.90L240.31,-99.72" stroke-profile="0.6748646 0.7340481 0.6452967 0.3202673 0.2233659 0.8932139 0.8603125 0.7614339 0.859867 0.8231934 0.831012 0.8615386 0.9433849 0.9608351 0.9744415 1.019075 0.8843327 0.9435732 " />
            <path d="M252.12,-95.08L252.87,-95.06L252.12,-95.08" stroke-profile="0.9097387 0.9895118 1.107333 " />
            <path d="M222.91,-33.13L222.90,-32.38L222.91,-33.13" stroke-profile="0.8410082 0.8142312 0.1751931 " />
            <path d="M222.92,-33.87L222.91,-33.13L222.92,-33.87" stroke-profile="0.8521364 0.8410082 0.1542284 " />
            <path d="M190.07,-23.99L189.33,-24.00L189.32,-23.25L190.07,-23.99" stroke-profile="1.003118 0.989072 0.9691715 0.8704845 " />
            <path d="M209.01,-46.72L199.93,-36.46L197.64,-32.78L196.15,-32.06L190.07,-23.99L200.65,-34.96L209.01,-46.72" stroke-profile="0.8388003 0.860522 0.8848596 0.8940916 1.003118 0.9022831 0.9153399 " />
            <path d="M186.50,13.85L186.49,14.59L186.50,13.85" stroke-profile="0.9343989 0.9424189 0.9278543 " />
            <path d="M188.79,10.17L188.01,12.39L186.50,13.85L186.53,12.37L188.79,10.17" stroke-profile="0.934987 0.931839 0.9343989 0.891697 0.8723832 " />
            <path d="M220.69,-33.90L220.71,-34.65L220.69,-33.90" stroke-profile="0.9777811 1.037586 1.050668 " />
            <path d="M201.51,-7.21L216.17,-29.52L218.42,-30.97L219.95,-33.92L220.69,-33.90L220.63,-30.19L219.88,-29.46L219.83,-26.49L212.22,-14.72L198.58,2.15L195.48,10.28L194.65,15.47L191.60,20.62L191.58,22.10L190.05,24.31L189.31,24.30L201.51,-7.21" stroke-profile="0.8140849 0.9525974 0.940906 0.9698448 0.9777811 0.9561026 0.9444967 0.9910425 1.027919 0.9963365 0.9604701 0.9563158 0.9770873 0.9504631 0.9606854 1.078504 0.9017552 " />
            <path d="M192.69,-1.65L191.87,3.53L188.79,10.17L194.11,2.83L197.13,-0.10L201.51,-7.21L208.69,-26.66L209.50,-31.11L217.93,-47.32L208.82,-34.83L203.48,-26.00L192.69,-1.65" stroke-profile="0.8589209 0.9073157 0.934987 0.824149 0.8159021 0.8140849 0.8813891 0.8726798 1.009484 1.014599 1.056504 1.064641 " />
            <path d="M188.82,8.69L188.80,9.43L188.82,8.69" stroke-profile="0.9434592 0.982626 1.008397 " />
            <path d="M188.85,6.46L188.82,8.69L188.85,6.46" stroke-profile="0.9799901 0.9434592 1.03844 " />
            <path d="M192.74,-4.63L192.69,-1.65L188.85,6.46L189.66,2.01L192.74,-4.63" stroke-profile="0.8105322 0.8589209 0.9799901 1.025962 0.978331 " />
            <path d="M210.93,-3.60L211.31,-4.33L210.93,-3.60" stroke-profile="1.006294 1.026812 1.009598 " />
            <path d="M210.54,-2.86L210.93,-3.60L210.54,-2.86" stroke-profile="0.9862921 1.006294 0.9923833 " />
            <path d="M195.86,17.47L205.16,8.94L210.54,-2.86L195.86,17.47" stroke-profile="0.9425713 0.8507364 0.9862921 1.061798 " />
            <path d="M186.21,32.42L185.46,33.15L186.21,32.42" stroke-profile="1.035835 1.001445 0.6879634 " />
        </g>
        <g id="f2" style="--index:2; opacity:0;" class="frame">
            <path d="M210.96,-76.41L211.03,-80.87L213.37,-87.52L214.88,-88.98L217.95,-95.62L224.02,-103.69L225.52,-104.41L225.53,-105.16L229.27,-106.58L238.94,-107.17L247.78,-102.58L251.49,-101.77L246.88,-92.19L247.48,-83.26L242.22,-79.63L228.00,-73.17L225.74,-70.97L227.95,-70.20L227.65,-50.88L226.09,-46.45L220.01,-37.63L219.88,-29.46L214.45,-14.69L197.68,11.80L193.80,22.14L189.35,22.07L181.23,18.23L181.91,22.69L184.84,24.97L186.33,24.99" stroke-profile="0.5727403 0.6015471 0.6734161 0.6963699 0.6695742 0.6749463 0.6825831 0.6961195 0.7353092 0.804972 0.784431 0.7955025 0.7973457 0.6646906 0.9190807 0.9952549 0.9257005 0.9372606 1.029797 1.098677 1.032056 1.033757 1.132614 1.237787 1.245203 1.414896 1.407573 1.158246 1.185727 0.6011169 " />
            <path d="M209.42,-72.72L208.68,-72.73L209.42,-72.72" stroke-profile="0.9585348 0.9603112 0.721992 " />
            <path d="M249.88,-94.37L247.63,-92.92L243.09,-87.79L235.63,-85.68L220.63,-77.00L213.14,-73.40L209.42,-72.72L210.15,-71.96L221.29,-71.79L228.00,-73.17L234.73,-76.03L242.24,-81.12L248.28,-86.96L249.88,-94.37" stroke-profile="0.8262395 0.8235878 0.5029771 0.5534521 0.650075 0.819411 0.9585348 0.6530911 0.5960249 0.636498 0.6343297 0.6335925 0.7153325 0.9469308 " />
            <path d="M250.65,-95.84L249.88,-94.37L250.65,-95.84" stroke-profile="0.8213245 0.8262395 0.9437757 " />
            <path d="M251.41,-97.32L250.65,-95.84L251.41,-97.32" stroke-profile="0.8218139 0.8213245 0.9385899 " />
            <path d="M252.23,-101.76L253.71,-101.74L254.42,-99.50L251.41,-97.32L252.23,-101.76" stroke-profile="0.7991209 0.8014726 0.779956 0.8218139 0.9801525 " />
            <path d="M251.49,-101.77L252.23,-101.76L252.24,-102.50L251.49,-101.77" stroke-profile="0.7955025 0.7991209 1.063269 0.9131525 " />
            <path d="M217.11,-42.13L217.99,-51.04L218.76,-52.51L218.77,-53.25L218.02,-52.52L199.03,-26.82L183.76,-0.31L186.74,-1.01L198.06,-11.97L207.18,-25.20L217.11,-42.13" stroke-profile="1.13454 1.030471 1.050451 1.117479 1.061348 1.200305 1.026358 0.9480877 0.939976 0.895006 0.9526794 " />
            <path d="M219.42,-47.30L219.43,-48.04L219.42,-47.30" stroke-profile="1.033684 1.006964 0.9696713 " />
            <path d="M217.06,-39.16L217.13,-43.62L217.91,-45.84L219.42,-47.30L218.59,-42.11L217.06,-39.16" stroke-profile="1.162014 1.033369 1.063709 1.033684 0.9688051 1.024299 " />
            <path d="M191.72,13.19L191.81,7.25L188.84,7.20L185.83,9.38L178.37,11.49L177.59,13.71L180.46,20.44L183.43,20.49L191.72,13.19" stroke-profile="1.079031 1.229869 1.228739 1.255522 1.23461 1.064012 1.040175 0.9887061 1.043861 " />
            <path d="M198.77,5.62L196.16,14.00L190.08,22.82L190.95,14.66L198.77,5.62" stroke-profile="1.27204 1.305482 1.293048 1.04027 1.062658 " />
            <path d="M220.01,-37.63L217.77,-36.92L217.06,-39.16L215.53,-36.21L205.54,-15.57L200.89,-3.01L198.77,5.62L209.15,-8.82L213.74,-16.93L217.58,-25.04L219.96,-34.66L220.01,-37.63" stroke-profile="1.032056 1.136416 1.162014 1.065212 1.217161 1.245218 1.27204 1.046923 1.015872 1.013379 1.046048 1.0983 " />
            <path d="M227.42,-83.58L222.93,-81.42L219.31,-78.21L224.46,-84.37L228.98,-88.01L240.18,-91.55" stroke-profile="0.6718207 0.8430225 0.9304407 0.9252825 0.9190828 0.09092684 " />
            <path d="M221.93,-80.69L221.47,-82.93L224.52,-88.08L231.34,-96.15L229.01,-90.24L221.93,-80.69" stroke-profile="0.9578147 0.9256029 0.8515111 0.7707711 0.7224592 0.8416536 " />
            <path d="M218.41,-77.78L218.40,-77.03L218.41,-77.78" stroke-profile="0.9551225 1.036474 1.062714 " />
            <path d="M230.58,-95.42L232.87,-99.10L230.58,-95.42" stroke-profile="0.87321 1.008027 1.030833 " />
            <path d="M240.19,-92.29L240.92,-91.54L240.19,-92.29" stroke-profile="0.8536026 1.152002 1.1997 " />
            <path d="M229.89,-98.40L233.58,-96.86L240.19,-92.29L235.84,-99.05L231.39,-99.86L229.89,-98.40" stroke-profile="0.7826638 0.7835909 0.8536026 1.258081 1.14765 1.090385 " />
            <path d="M219.27,-84.70L219.31,-87.42L223.14,-94.79L225.42,-97.73L229.89,-98.40L226.88,-96.22L224.60,-93.28L219.27,-84.70" stroke-profile="1.153735 1.168059 0.9802639 0.8972207 0.7826638 1.057138 1.034641 1.008086 " />
            <path d="M219.31,-78.21L218.41,-77.78L219.19,-79.99L230.58,-95.42L225.29,-89.56L220.02,-85.18L220.01,-84.44L219.27,-84.70L215.45,-78.57L210.83,-68.24L211.58,-68.23L219.31,-78.21" stroke-profile="0.9304407 0.9551225 1.003384 0.87321 0.9758488 1.057664 1.087606 1.153735 0.9906336 0.9994372 0.8494672 0.9141341 " />
        </g>
        <g id="f3" style="--index:3; opacity:0;" class="frame">
            <path d="M209.49,-77.18L207.15,-70.52L206.40,-69.79L206.47,-74.25L208.82,-81.64L210.33,-83.11L212.64,-88.27L223.27,-102.96L225.57,-107.38L228.58,-109.57L232.29,-109.51L233.79,-110.23L243.43,-109.33L253.03,-105.46L253.75,-103.97L255.22,-103.20L255.91,-99.47L255.80,-92.79L255.05,-92.06L255.01,-89.83L252.71,-85.41L248.95,-82.50" stroke-profile="0.2004626 0.4374603 0.6253499 0.6253989 0.6197647 0.6314234 0.6557103 0.6901919 0.7235196 0.7274226 0.6719002 0.6738119 0.7974172 0.8237088 0.8290854 0.8284702 0.8140157 0.8076884 0.8062696 0.8022705 0.7996455 1.029972 " />
            <path d="M204.48,-66.11L204.10,-65.37L204.48,-66.11" stroke-profile="0.8496335 0.8893616 0.8557528 " />
            <path d="M213.23,-78.60L213.21,-77.86L213.23,-78.60" stroke-profile="0.681377 0.6683695 0.6481622 " />
            <path d="M228.43,-100.65L228.45,-101.39L228.43,-100.65" stroke-profile="0.6783321 0.7292196 0.7091753 " />
            <path d="M225.69,-96.24L228.43,-100.65L225.69,-96.24" stroke-profile="0.624133 0.6783321 0.6859754 " />
            <path d="M221.56,-88.87L213.23,-78.60L223.87,-94.04L221.56,-88.87" stroke-profile="0.7388014 0.681377 0.6834719 0.6871459 " />
            <path d="M216.47,-80.28L220.76,-85.17L228.36,-96.19L228.39,-97.68L226.89,-96.96L216.47,-80.28" stroke-profile="0.7144613 0.7630205 0.754204 0.7960771 0.8423643 0.6151958 " />
            <path d="M210.41,-69.88L204.86,-66.10L205.63,-68.32L216.47,-80.28L210.41,-69.88" stroke-profile="0.8239379 0.8469723 0.8273975 0.7144613 0.5552655 " />
            <path d="M211.61,-70.45L210.10,-68.99L211.61,-70.45" stroke-profile="0.8232502 0.5637456 0.5231762 " />
            <path d="M227.28,-93.09L231.43,-102.09L229.10,-95.44L227.28,-93.09" stroke-profile="0.7086318 0.8056135 0.734637 0.7268739 " />
            <path d="M225.89,-90.29L227.28,-93.09L225.89,-90.29" stroke-profile="0.6875564 0.7086318 0.7232631 " />
            <path d="M223.76,-86.86L225.89,-90.29L223.76,-86.86" stroke-profile="0.6544633 0.6875564 0.7279941 " />
            <path d="M222.69,-85.14L223.76,-86.86L222.69,-85.14" stroke-profile="0.6401567 0.6544633 0.7297737 " />
            <path d="M220.95,-81.45L218.41,-77.78L220.95,-81.45" stroke-profile="0.731141 0.76616 0.7342747 " />
            <path d="M222.60,-76.23L211.61,-70.45L222.69,-85.14L220.95,-81.45L222.95,-82.91L230.55,-93.19L237.41,-104.23L236.61,-100.52L227.42,-83.58L222.60,-76.23" stroke-profile="0.730898 0.8232502 0.6401567 0.731141 0.7344681 0.7411691 0.7457904 0.7108231 0.693549 0.721555 " />
            <path d="M222.85,-76.22L222.08,-74.75L222.85,-76.22" stroke-profile="0.7309102 0.7329334 0.7319089 " />
            <path d="M227.70,-77.63L222.85,-76.22L239.52,-96.76L241.05,-99.71L240.26,-96.75L237.99,-93.81L236.44,-90.12L227.70,-77.63" stroke-profile="0.7227771 0.7309102 0.7900091 0.7942181 0.774536 0.7724766 0.7714947 0.7999343 " />
            <path d="M228.07,-77.62L227.30,-76.15L228.07,-77.62" stroke-profile="0.7207553 0.8250806 0.8021886 " />
            <path d="M233.28,-78.29L231.79,-77.57L228.07,-77.62L229.59,-79.83L249.22,-99.58L233.28,-78.29" stroke-profile="0.7152142 0.7037219 0.7207553 0.8079148 0.7848049 0.874498 " />
            <path d="M233.78,-78.28L232.53,-77.55L233.78,-78.28" stroke-profile="0.7197031 0.8746443 0.8405041 " />
            <path d="M248.96,-82.87L239.24,-78.93L233.78,-78.28L240.07,-84.87L252.87,-95.06L253.61,-95.05L253.57,-92.82L251.30,-89.89L248.96,-82.87" stroke-profile="0.7993941 0.7495365 0.7197031 0.8358134 0.8223758 0.8371034 0.9004129 1.006796 1.090089 " />
            <path d="M222.59,-59.88L227.15,-66.49L227.90,-66.48L223.79,-57.38L226.32,-60.56L228.57,-62.01L230.05,-61.99L230.77,-60.49L230.64,-52.32L228.30,-44.93L216.03,-20.60L218.86,-27.74L211.52,-17.70L198.50,7.35L193.92,14.71L209.48,-29.62L188.79,10.17L192.61,3.55L201.95,-23.06L199.66,-19.38L189.25,4.61L193.55,-9.07L187.36,6.43L185.08,10.11L188.94,0.52L192.88,-13.54L189.79,-6.16L183.53,13.80L177.38,27.08L177.37,27.82L188.51,28.00L190.72,29.52L190.07,23.57L193.23,11.73L190.95,14.66L187.19,17.58L185.70,17.55" stroke-profile="0.345291 0.5571724 0.6080093 0.6254945 0.8797193 0.897329 0.9159588 0.8921659 0.9654445 1.041019 1.063019 0.9349008 1.039687 1.017268 1.005368 0.9219567 1.004536 0.9760087 0.9381793 0.9721308 0.9782499 1.004087 1.030942 1.055559 0.9849576 0.9842035 1.012638 1.026855 1.045131 1.012654 0.8823271 0.8425388 1.092696 0.8963031 1.017617 1.082722 0.8308445 " />
            <path d="M192.92,-15.77L192.17,-15.78L192.16,-15.04L192.92,-15.77" stroke-profile="0.5725537 0.5695916 0.5641906 0.55313 " />
            <path d="M222.82,-55.57L221.00,-53.22L219.44,-48.78L210.33,-36.30L192.92,-15.77L201.20,-23.07L213.32,-37.74L220.94,-49.50L222.82,-55.57" stroke-profile="0.6255669 0.6064897 0.6230638 0.6511475 0.5725537 0.626012 0.6750628 0.7258968 0.7853461 " />
            <path d="M223.79,-57.38L222.82,-55.57L223.79,-57.38" stroke-profile="0.6254945 0.6255669 0.8177472 " />
            <path d="M199.82,17.78L199.80,18.52L199.82,17.78" stroke-profile="0.8813831 0.8963418 0.8982095 " />
            <path d="M207.25,-1.42L199.82,17.78L201.41,11.11L207.25,-1.42" stroke-profile="1.000711 0.8813831 0.8633911 0.8665353 " />
            <path d="M216.03,-20.60L207.25,-1.42L216.03,-20.60" stroke-profile="1.063019 1.000711 0.8538993 " />
            <path d="M218.86,-27.74L219.13,-28.73L218.86,-27.74" stroke-profile="0.9349008 0.9724536 1.05879 " />
            <path d="M193.92,14.71L193.91,15.45L193.92,14.71" stroke-profile="1.005368 0.994111 0.9883216 " />
            <path d="M188.79,10.17L186.48,15.34L188.79,10.17" stroke-profile="1.004536 1.003145 0.9320469 " />
            <path d="M184.23,16.79L184.22,17.53L184.23,16.79" stroke-profile="0.9593667 0.9648557 0.9267542 " />
            <path d="M189.25,4.61L184.23,16.79L189.25,4.61" stroke-profile="0.9782499 0.9593667 1.010594 " />
            <path d="M194.36,-12.77L195.14,-15.73L194.36,-12.77" stroke-profile="0.9730996 0.9938878 0.9590207 " />
            <path d="M194.36,-12.77L194.36,-12.77" stroke-profile="0.9730996 0.9590207 " />
            <path d="M182.05,13.78L182.04,14.52L182.05,13.78" stroke-profile="0.9672268 0.9777324 0.9771721 " />
            <path d="M185.02,6.82L182.05,13.78L185.02,6.82" stroke-profile="0.9681251 0.9672268 0.9155798 " />
            <path d="M193.55,-9.07L194.36,-12.77L192.07,-9.09L185.02,6.82L189.75,-3.19L193.55,-9.07" stroke-profile="1.004087 0.9730996 0.9279267 0.9681251 0.8707212 0.8569598 " />
            <path d="M193.55,-9.07L194.33,-11.29L193.55,-9.07" stroke-profile="1.004087 0.9586444 0.9520006 " />
            <path d="M193.55,-9.07L193.55,-9.07" stroke-profile="1.004087 0.9520006 " />
            <path d="M178.17,24.12L178.16,24.86L178.17,24.12" stroke-profile="1.143197 1.143458 1.092402 " />
            <path d="M179.20,21.91L178.17,24.12L179.20,21.91" stroke-profile="1.138847 1.143197 1.047756 " />
            <path d="M185.08,10.11L179.20,21.91L185.08,10.11" stroke-profile="1.055559 1.138847 1.014464 " />
            <path d="M192.88,-13.54L192.89,-14.28L192.88,-13.54" stroke-profile="0.9842035 1.037448 1.074651 " />
            <path d="M194.37,33.29L194.36,34.04L194.37,33.29" stroke-profile="0.811359 0.8646362 0.895584 " />
            <path d="M195.15,31.08L198.25,22.95L199.76,21.49L201.31,17.06L202.06,17.07L202.02,19.30L199.71,24.46L195.15,31.08" stroke-profile="0.9359921 0.9416531 0.950593 0.8897575 0.8584517 0.8068288 0.8960581 0.9283097 " />
            <path d="M193.27,32.16L193.63,33.28L194.37,33.29L195.15,31.08L193.27,32.16" stroke-profile="0.8125268 0.8026728 0.811359 0.9359921 0.9700664 " />
            <path d="M190.72,29.52L192.19,30.29L192.90,32.53L191.41,32.50L190.72,29.52" stroke-profile="0.8425388 0.8295097 0.9837609 1.063012 1.090793 " />
            <path d="M193.23,11.73L193.24,10.99L193.98,11.00L193.23,11.73" stroke-profile="0.8963031 0.9334188 0.9934878 0.9945365 " />
        </g>
        <g id="f4" style="--index:4; opacity:0;" class="frame">
            <path d="M221.82,-104.83L218.12,-100.61L216.59,-97.06L215.11,-95.66L213.54,-90.66L213.45,-87.07L214.87,-86.31L224.49,-96.85L230.34,-100.29L232.49,-100.24L233.19,-99.50L233.21,-100.22" />
            <path d="M218.82,-86.21L221.34,-86.14L225.72,-88.91L230.17,-93.83L231.62,-94.51L233.89,-98.76L238.20,-98.65L238.22,-99.37L236.10,-100.86L236.12,-101.58L233.97,-101.64L231.81,-101.69L228.16,-99.63L223.02,-95.45L222.98,-94.01L222.26,-94.03L221.50,-92.61L222.94,-92.58L225.15,-94.68L229.52,-96.72L228.77,-95.30L218.82,-86.21" />
            <path d="M214.81,-84.16L214.79,-83.44L214.81,-84.16" />
            <path d="M215.11,-86.31L218.82,-86.21L216.25,-84.12L214.81,-84.16L215.11,-86.31" />
            <path d="M233.19,-99.50L234.59,-98.03L234.54,-95.87L233.15,-98.06L233.19,-99.50" />
            <path d="M224.87,-83.89L228.69,-92.43L229.41,-92.41L228.60,-88.83L221.79,-76.06L215.08,-66.89L209.03,-55.54L188.12,-25.87L199.94,-37.79L214.02,-53.97L222.21,-64.54L226.73,-72.34L235.60,-81.46L237.79,-82.84L222.74,-57.34L218.17,-47.39L214.24,-34.54L212.33,-16.61L207.66,-3.07L205.51,-3.12L201.36,-9.70L198.55,-11.94L195.91,-21.35L195.19,-21.37L195.21,-22.09L192.34,-22.17L195.25,-23.53L197.41,-23.47L204.40,-26.74L202.44,-23.34L200.09,-16.21L200.02,-13.34L205.29,-22.55L206.09,-25.41L205.20,-18.96L206.71,-21.79L215.41,-51.77L216.83,-51.02" />
            <path d="M208.99,-54.10L208.97,-53.38L208.99,-54.10" />
            <path d="M209.01,-54.82L208.99,-54.10L209.01,-54.82" />
            <path d="M209.79,-56.96L209.01,-54.82L209.07,-56.97L209.79,-56.96" />
            <path d="M210.54,-58.37L209.79,-56.96L210.54,-58.37" />
            <path d="M188.12,-25.87L188.10,-25.15L187.38,-25.17L188.12,-25.87" />
            <path d="M237.79,-82.84L237.81,-83.56L237.79,-82.84" />
            <path d="M196.78,-13.06L192.83,-13.52L191.38,-12.84L191.36,-12.12L196.78,-13.06" />
            <path d="M191.74,0.83L191.72,1.55L191.74,0.83" />
            <path d="M191.81,-2.04L191.83,-2.76L191.81,-2.04" />
            <path d="M191.78,-0.60L191.81,-2.04L191.78,-0.60" />
            <path d="M191.74,0.83L191.78,-0.60L191.74,0.83" />
            <path d="M186.80,-2.89L186.82,-3.61L186.80,-2.89" />
            <path d="M187.22,8.63L186.54,7.17L186.80,-2.89L187.48,-1.44L187.22,8.63" />
            <path d="M186.15,22.26L186.13,22.98L186.15,22.26" />
            <path d="M186.88,21.56L186.16,21.55L186.15,22.26L186.88,21.56" />
            <path d="M201.78,1.81L201.80,1.10L201.78,1.81" />
            <path d="M191.36,15.45L201.78,1.81L201.75,3.25L191.36,15.45" />
            <path d="M199.25,-11.56L196.78,-13.06L202.21,-14.72L202.23,-15.44L192.17,-15.70L191.36,-12.12L191.11,-2.78L191.04,0.10L191.74,0.83L190.02,11.58L189.28,12.28L187.86,11.52L187.22,8.63L186.88,21.56L187.66,19.43L191.36,15.45L192.95,9.50L196.77,0.96L199.11,-6.17L199.25,-11.56" />
            <path d="M205.44,-28.30L206.18,-29.00L205.44,-28.30" />
            <path d="M204.40,-26.74L205.44,-28.30L204.40,-26.74" />
            <path d="M209.21,-34.67L209.23,-35.39L209.21,-34.67" />
            <path d="M206.09,-25.41L207.60,-28.24L209.21,-34.67L206.09,-25.41" />
            <path d="M225.21,-96.83L223.13,-99.76L220.97,-99.82L222.47,-101.94L231.19,-105.31L240.59,-107.22L244.18,-107.13L244.12,-104.97L236.07,-99.43L235.31,-98.01L232.38,-95.93L232.34,-94.49" />
        </g>
        </g>
        <g id="t3" class="thread">
        <g id="f0" style="--index:0; opacity:1;" class="frame">
            <path d="M-2.49,-338.67L4.39,-341.90L65.89,-355.74L72.74,-358.13L78.70,-358.83L78.72,-359.68" stroke-profile="0.5132515 0.4670951 0.5844282 0.6283049 0.7527899 0.7249548 " />
            <path d="M132.08,-352.47L131.35,-357.59L130.50,-357.61L130.36,-351.66L133.50,-340.54L134.97,-331.16L139.71,-315.76L140.45,-311.49L140.23,-302.15L142.68,-297.85" stroke-profile="0.5141171 0.6996672 0.7554813 0.7800816 0.7794348 0.7547786 0.6945013 0.7593589 0.7695241 0.2192196 " />
            <path d="M130.50,-357.61L130.52,-358.46L130.50,-357.61" stroke-profile="0.7554813 0.8755571 0.8229966 " />
            <path d="M58.10,-242.07L53.87,-243.02L59.83,-243.73L106.88,-257.06L119.68,-259.31L129.89,-259.92L132.46,-260.70L133.32,-261.53L132.48,-261.55" stroke-profile="0.7107972 0.6844009 0.5459137 0.6038471 0.6545522 0.7643945 0.8201844 0.8433628 0.4366053 " />
            <path d="M53.87,-243.02L52.17,-243.06L53.87,-243.02" stroke-profile="0.6844009 0.7071782 0.5667335 " />
            <path d="M-8.19,-313.31L-13.14,-319.38L-13.99,-319.40L-14.09,-315.15L-11.82,-303.20L-2.42,-269.85" stroke-profile="0.6667827 0.9546269 0.9529434 0.8967665 0.8739218 0.3401777 " />
            <path d="M-8.92,-354.11" stroke-profile="0.1270614 " />
            <path d="M17.34,-243.04L14.00,-245.67L14.89,-247.34L16.59,-247.30" stroke-profile="0.8867602 0.8060354 0.9468331 1.135717 " />
            <path d="M121.60,-376.51L117.34,-375.76L113.66,-376.13L110.50,-374.22L108.81,-374.26L108.89,-377.66L113.21,-380.96" stroke-profile="0.5175348 0.5844113 0.805405 1.142216 1.160201 0.9155939 0.4759676 " />
            <path d="M113.66,-376.13L113.15,-378.41L114.04,-380.09L116.63,-381.73L119.18,-381.67L118.27,-379.14L113.66,-376.13" stroke-profile="0.805405 0.7769407 0.709768 0.7088488 0.8078383 0.9500412 1.060646 " />
            <path d="M143.17,-390.44L144.12,-394.67L146.75,-398.00L174.53,-422.84L209.42,-461.09L220.70,-471.02L230.20,-477.59L231.09,-479.27L240.53,-483.30L241.44,-485.82" stroke-profile="0.3723172 0.3167234 0.3290833 0.4943065 0.6330043 0.6581739 0.7509384 0.7672203 0.7636933 0.09274337 " />
            <path d="M279.08,-496.83L277.96,-498.40L274.01,-497.80L274.07,-500.34L274.94,-501.17L276.64,-501.13" stroke-profile="0.7507741 0.7780479 1.099124 0.9865685 0.6375762 0.4115388 " />
            <path d="M277.96,-498.40L275.81,-502.00L275.85,-503.70L279.23,-502.77L279.15,-499.37L277.96,-498.40" stroke-profile="0.7780479 0.9499617 0.9471883 0.5433586 0.8178771 0.9575171 " />
            <path d="M318.77,-486.54L316.31,-490.00L316.35,-491.70L342.63,-489.37L358.72,-487.29L379.00,-482.57L404.38,-477.72L415.40,-476.61L420.47,-475.64L417.07,-475.72" stroke-profile="0.3984666 0.4679835 0.7232715 0.5461094 0.5446658 0.5316603 0.4759065 0.5390465 0.6468815 0.3427316 " />
            <path d="M420.47,-475.64L421.32,-475.62L420.47,-475.64" stroke-profile="0.6468815 0.666836 0.6878608 " />
            <path d="M444.87,-465.71L441.58,-470.04L441.20,-472.17L442.51,-473.41L445.92,-474.18L451.02,-474.06L453.55,-473.15L456.84,-468.83" stroke-profile="0.6609684 0.7690204 0.8353824 1.115996 1.057315 1.017232 1.009981 0.3095195 " />
            <path d="M441.20,-472.17L440.83,-474.30L445.92,-474.18L447.60,-473.29L449.18,-468.16L449.10,-464.76L447.40,-464.80L446.53,-463.97L443.16,-464.90L440.69,-468.36L441.20,-472.17" stroke-profile="0.8353824 0.6588889 0.5201987 0.4971293 0.5701109 0.7438812 0.8879844 0.9795434 1.107728 1.173658 1.142715 " />
        </g>
        <g id="f1" style="--index:1; opacity:0;" class="frame">
            <path d="M-11.55,-350.78L-8.37,-341.35L-8.43,-338.81L-3.76,-320.85L2.77,-309.65L4.17,-296.88L5.77,-292.59L5.71,-290.04L9.71,-279.75L13.03,-276.28L15.43,-270.27" stroke-profile="0.6596623 0.6996038 0.6851693 0.6822778 0.6691404 0.6681614 0.670202 0.6702529 0.7688153 0.8161567 0.4950364 " />
            <path d="M26.61,-275.95L30.92,-278.40L70.26,-289.36L83.08,-292.46L98.42,-294.65L106.13,-297.01L113.77,-296.83L119.75,-298.39L122.34,-300.03L124.04,-299.99L124.06,-300.84L123.21,-300.86" stroke-profile="0.6519455 0.6231039 0.6006906 0.6077188 0.6727963 0.7682883 0.7735921 0.8033676 0.8110958 0.8093447 0.8157116 0.6205335 " />
            <path d="M-3.66,-360.78L1.45,-361.51L27.23,-373.65L82.06,-392.74L93.17,-395.88L109.49,-403.14" stroke-profile="0.3344435 0.3207284 0.3061405 0.3506747 0.3884947 0.6456996 " />
            <path d="M116.61,-380.88L122.21,-366.30L124.48,-354.35L124.64,-325.46L127.72,-311.79L131.74,-302.35" stroke-profile="0.5550826 0.6172742 0.6521842 0.5992126 0.6546244 0.9370246 " />
            <path d="M131.22,-423.86L126.92,-421.41L139.06,-432.17L155.60,-448.77L175.51,-464.44L187.68,-476.05L199.77,-484.26L228.36,-507.37L235.25,-511.46L241.34,-517.26L244.85,-522.28L250.03,-525.55L250.94,-528.08" stroke-profile="0.3387161 0.3875779 0.4791437 0.5506039 0.5811762 0.6013375 0.6005346 0.6014972 0.6300695 0.6376866 0.6618589 0.6869833 0.7448406 " />
            <path d="M126.05,-420.59L124.33,-419.78L126.05,-420.59" stroke-profile="0.4137793 0.4591617 0.4822474 " />
            <path d="M126.92,-421.41L126.07,-421.43L126.05,-420.59L126.92,-421.41" stroke-profile="0.3875779 0.4046561 0.4137793 0.4807267 " />
            <path d="M264.52,-527.76L270.51,-529.32L278.11,-527.44L295.90,-525.32L315.35,-521.46L364.99,-500.74L375.12,-497.95L390.38,-496.74L391.19,-495.02" stroke-profile="0.5900928 0.6357004 0.6732159 0.6836542 0.6683534 0.7199773 0.7639747 0.9256681 0.8813774 " />
        </g>
        <g id="f2" style="--index:2; opacity:0;" class="frame">
            <path d="M-8.29,-344.75L-6.94,-330.28L-2.36,-308.08L-2.44,-304.68L0.67,-292.71L4.76,-285.82L5.50,-281.55" stroke-profile="0.3514004 0.3811305 0.3865786 0.4171141 0.4362236 0.5003548 0.5380433 " />
            <path d="M29.83,-268.23L35.00,-271.51L65.75,-278.43L88.01,-285.55L104.23,-288.56L108.51,-290.16L126.45,-293.98" stroke-profile="0.4009336 0.3467594 0.4019992 0.4918192 0.5447218 0.5578986 0.6102241 " />
            <path d="M1.49,-363.21L4.12,-366.55L10.10,-368.11L28.97,-375.31L50.34,-380.75L71.66,-384.49L100.84,-396.54" stroke-profile="0.4496095 0.4160323 0.4591122 0.4848169 0.5180771 0.5682653 0.8697927 " />
            <path d="M118.27,-379.14L128.24,-333.87L128.89,-325.36L130.45,-319.38L130.33,-314.28L131.13,-312.56L130.93,-304.07" stroke-profile="0.5323487 0.7587964 0.71609 0.6754777 0.7221678 0.7242755 0.8927657 " />
            <path d="M142.40,-429.54L138.13,-428.80L153.72,-441.17L204.71,-477.35L214.29,-487.32L228.14,-498.03L234.16,-501.29L237.66,-505.45L256.66,-518.60L258.42,-521.11" stroke-profile="0.1699248 0.1897122 0.4973157 0.5788664 0.6284423 0.7053326 0.7210668 0.8334758 0.9037714 1.147507 " />
            <path d="M138.13,-428.80L136.44,-428.84L133.00,-427.22L132.11,-425.54L130.39,-424.73L130.35,-423.03L138.13,-428.80" stroke-profile="0.1897122 0.4369504 0.5511634 0.5625465 0.5466053 0.492659 0.5160629 " />
            <path d="M287.47,-528.06L298.47,-526.10L311.19,-524.95L342.46,-518.27L353.42,-514.61L364.34,-509.25L379.38,-498.70L381.93,-498.64L386.99,-496.82L402.23,-494.76L408.14,-492.92L409.77,-490.33" stroke-profile="0.9506177 0.9372368 0.9947711 1.026736 1.024673 0.9837632 0.9841269 1.005574 1.031121 1.113627 1.160353 1.245578 " />
        </g>
        <g id="f3" style="--index:3; opacity:0;" class="frame">
            <path d="M10.85,-363.84L35.70,-372.60L83.55,-384.21L90.35,-384.05L93.76,-384.82L98.92,-387.24" stroke-profile="0.5339987 0.6894787 0.5559256 0.4503216 0.4891848 0.2665015 " />
            <path d="M121.34,-365.47L119.78,-371.46L118.15,-374.04L118.19,-375.74L116.57,-379.18L114.89,-380.07L122.88,-358.64L123.61,-353.52L129.94,-333.83L132.20,-321.88L131.98,-312.54L129.32,-307.51L129.28,-305.81" stroke-profile="0.3382811 0.4394722 0.5620321 0.6265407 0.8091857 0.9266956 0.7431937 0.7966936 0.8557771 0.8303343 0.883464 0.7934344 0.3917772 " />
            <path d="M27.20,-264.90L60.62,-276.85L78.57,-281.52L94.79,-284.54L99.07,-286.13L110.17,-288.42L123.88,-293.19L128.99,-293.92" stroke-profile="0.4051874 0.570891 0.5747643 0.6145523 0.6407507 0.7115089 0.5229971 0.2209854 " />
            <path d="M-14.20,-346.59L-17.71,-341.58L-16.94,-338.16L-7.44,-309.05L-3.76,-285.17L-0.50,-279.15L2.86,-277.37L4.49,-274.78L4.39,-270.53L3.53,-269.70" stroke-profile="0.5941224 0.64368 0.6908911 0.8779125 0.9113457 0.8958319 0.9613292 1.005864 0.1363255 0.1 " />
            <path d="M136.16,-416.95L130.98,-413.67L130.13,-413.69L131.02,-415.37L133.61,-417.01L151.01,-434.44L180.49,-459.23L184.85,-464.22L195.24,-472.47L200.48,-478.30L216.09,-491.52L216.98,-493.20L236.85,-507.17L244.57,-510.39L248.90,-513.68L248.92,-514.53L252.39,-517.85L253.24,-517.83L253.26,-518.68" stroke-profile="0.343763 0.4345161 0.4804084 0.5803819 0.574124 0.5781211 0.550936 0.5511042 0.5373247 0.5122368 0.4829253 0.4790334 0.5709692 0.6332631 0.812545 0.8229195 0.9560679 0.9827889 0.9863582 " />
            <path d="M130.13,-413.69L130.11,-412.84L129.26,-412.86L130.13,-413.69" stroke-profile="0.4804084 0.549889 0.6662515 0.6140144 " />
            <path d="M290.79,-524.59L287.45,-527.21L295.94,-527.01L343.35,-519.94L364.42,-512.65L367.76,-510.02L382.07,-504.58L389.62,-500.16L408.20,-495.47L425.16,-494.22L427.69,-493.31L429.32,-490.72" stroke-profile="0.6462138 0.7935899 0.7250878 0.8489152 0.8417689 0.8242493 0.757511 0.7616399 0.8403684 0.8704875 0.8691402 1.136599 " />
        </g>
        <g id="f4" style="--index:4; opacity:0;" class="frame">
            <path d="M-3.72,-358.24" stroke-profile="1.275744 " />
            <path d="M11.80,-260.16" stroke-profile="1.428226 " />
            <path d="M138.31,-292.85" stroke-profile="1.060977 " />
            <path d="M122.09,-396.89" stroke-profile="1.623044 " />
            <path d="M277.99,-522.34L273.74,-522.44L273.76,-523.29L274.61,-523.27" stroke-profile="1.115155 1.278077 1.459524 0.4569645 " />
            <path d="M443.60,-483.58" stroke-profile="1.400103 " />
            <path d="M118.96,-372.32L118.01,-368.10L119.62,-364.66L121.91,-353.56L129.05,-332.15L134.77,-322.67L135.54,-319.26L135.32,-309.91" stroke-profile="0.5206692 0.5337735 0.564647 0.5720779 0.5359755 0.5621162 0.566329 0.1050394 " />
            <path d="M37.29,-260.41L66.44,-271.61L111.73,-282.44L111.75,-283.28L112.60,-283.26" stroke-profile="0.5528095 0.5045557 0.6787043 0.7930707 0.558217 " />
            <path d="M-15.57,-324.53L-9.44,-296.35L-5.45,-285.21L0.21,-273.18L2.72,-271.42" stroke-profile="0.3509463 0.74857 0.7524675 0.7344115 0.4276871 " />
            <path d="M-16.26,-331.35L-16.22,-333.04L-16.26,-331.35" stroke-profile="0.5269378 0.6910111 0.6311337 " />
            <path d="M-16.30,-329.65L-16.26,-331.35L-16.30,-329.65" stroke-profile="0.4589128 0.5269378 0.6459655 " />
            <path d="M22.66,-360.16L18.41,-360.26L20.13,-361.07L22.68,-361.01L25.27,-362.65L29.53,-363.40L39.82,-367.40L67.20,-375.25L97.10,-382.19L103.10,-384.59" stroke-profile="0.417534 0.5763541 0.5604141 0.5487196 0.5517041 0.5447298 0.5474477 0.5331372 0.4893211 0.7058568 " />
            <path d="M18.41,-360.26L17.56,-360.28L18.41,-360.26" stroke-profile="0.5763541 0.6665106 0.5753542 " />
            <path d="M141.35,-421.07L140.40,-416.85L142.99,-418.48L149.98,-426.82L182.97,-456.62L202.85,-470.59L215.89,-483.03L228.84,-492.07L234.06,-497.04L252.23,-511.06L253.12,-512.73L252.27,-512.75L252.25,-511.91" stroke-profile="0.3450752 0.5325579 0.5449528 0.5489369 0.5560148 0.4870893 0.4664307 0.5196615 0.630585 1.004518 1.127045 1.11481 0.4054339 " />
            <path d="M293.25,-521.13L301.75,-520.93L313.59,-518.95L326.25,-515.25L353.32,-510.36L362.60,-507.59L369.32,-504.04L397.95,-493.16L405.57,-492.13L415.70,-489.34L420.73,-486.67L422.43,-486.63L426.62,-483.99" stroke-profile="0.5002794 0.3338135 0.3857079 0.4490164 0.4851745 0.480447 0.4861829 0.6058385 0.6660666 0.6544977 0.6678379 0.6972379 0.8188403 " />
        </g>
        <g id="f5" style="--index:5; opacity:0;" class="frame">
            <path d="M-12.38,-351.65" stroke-profile="1.225612 " />
            <path d="M-17.37,-320.33L-14.25,-308.36L-12.63,-304.92L-11.14,-296.39L-7.07,-288.65L-2.95,-283.45L-2.99,-281.75L-1.29,-281.71" stroke-profile="0.2694991 0.7660744 0.7902537 0.8070952 0.7969323 0.8269338 0.8536128 0.3977263 " />
            <path d="M-19.75,-327.18L-20.58,-328.05L-19.75,-327.18" stroke-profile="0.3145213 0.6535643 0.575148 " />
            <path d="M-19.77,-326.33L-19.75,-327.18L-19.77,-326.33" stroke-profile="0.2484512 0.3145213 0.5948462 " />
            <path d="M-18.94,-325.46L-19.77,-326.33L-18.94,-325.46" stroke-profile="0.2176659 0.2484512 0.5986744 " />
            <path d="M17.70,-258.32L12.60,-258.44L12.58,-257.60L11.73,-257.62L12.58,-257.60" stroke-profile="1.172855 1.42283 1.542061 1.613806 0.6751792 " />
            <path d="M54.31,-261.70L47.48,-260.17L46.61,-259.34L50.86,-259.24L66.28,-264.82L84.23,-269.49L112.52,-279.87L113.37,-279.85L113.33,-278.15" stroke-profile="0.2834802 0.4338472 0.7606827 0.6989897 0.7269076 0.7686275 0.7382791 0.7539307 0.408957 " />
            <path d="M139.02,-286.89L133.93,-287.01" stroke-profile="0.8667553 1.531019 " />
            <path d="M108.71,-370.02L112.02,-366.54L112.81,-363.97L116.94,-358.78L120.90,-346.79L123.89,-329.73L127.17,-324.55L128.77,-320.27L129.62,-320.24" stroke-profile="0.5961012 0.6636519 0.7256722 0.7910414 0.8305758 0.7152222 0.6947135 0.4974069 0.3805161 " />
            <path d="M20.03,-356.83L27.75,-360.04L56.81,-367.00L80.76,-374.08L89.28,-374.73L101.28,-379.54" stroke-profile="0.4961397 0.3491294 0.3941261 0.2729977 0.2466342 0.3397036 " />
            <path d="M146.32,-415.86L142.87,-413.39L142.93,-415.94L148.14,-420.91L158.51,-428.31L172.40,-440.73L210.49,-470.41L225.29,-485.36L234.79,-491.93L245.20,-501.03L249.59,-506.87L251.30,-507.68L251.34,-509.38L256.52,-512.65L258.22,-512.61" stroke-profile="0.2532399 0.3960203 0.4795595 0.4468691 0.4202078 0.4337965 0.3873313 0.3813272 0.4092611 0.4482245 0.500654 0.5527311 0.7228043 0.7445277 0.6345963 " />
            <path d="M115.15,-391.11" stroke-profile="1.482519 " />
            <path d="M283.81,-517.11" stroke-profile="1.653856 " />
            <path d="M320.07,-505.20L316.73,-507.83L315.90,-508.70L316.75,-508.68L324.35,-506.80L335.37,-505.69L370.87,-498.05L391.13,-492.47L397.85,-488.92L401.22,-487.99L418.99,-485.02L420.65,-483.28L420.61,-481.58L424.01,-481.50" stroke-profile="0.4073653 0.555961 0.7116573 0.6735782 0.5883854 0.6467283 0.7156539 0.752524 0.6250783 0.6356478 0.760899 0.7882801 0.7245677 0.2095934 " />
            <path d="M451.10,-477.46L446.09,-480.98" stroke-profile="0.8912244 1.672956 " />
        </g>
        <g id="f6" style="--index:6; opacity:0;" class="frame">
            <path d="M-13.47,-341.48L-14.18,-347.44L-13.23,-351.67L-10.64,-353.30L-10.62,-354.15L-7.22,-354.07L-7.34,-348.98L-9.02,-349.87" stroke-profile="0.5128473 0.5545762 0.6278791 0.6088384 0.6170285 0.6433646 1.234187 1.335831 " />
            <path d="M116.00,-391.09L111.76,-391.19L114.34,-392.82L116.89,-392.76L116.87,-391.92L117.72,-391.90L117.68,-390.20" stroke-profile="0.5465268 0.9257426 0.8487899 0.9256932 0.9660544 1.094114 1.622891 " />
            <path d="M20.91,-250.60L18.45,-254.06L14.20,-254.16L13.33,-253.33L12.48,-253.35L12.50,-254.20" stroke-profile="1.035975 1.05325 1.184103 1.192558 1.285841 1.759947 " />
            <path d="M12.48,-253.35L11.63,-253.37L12.48,-253.35" stroke-profile="1.285841 1.61836 1.662044 " />
            <path d="M133.02,-284.48" stroke-profile="1.61277 " />
            <path d="M271.66,-506.35L270.07,-510.63L270.15,-514.03L271.00,-514.01L271.88,-515.69L273.58,-515.65L273.54,-513.95" stroke-profile="1.09779 1.147883 1.168908 1.176395 1.212642 1.327286 1.556449 " />
            <path d="M446.77,-474.16L440.83,-474.30L440.85,-475.15" stroke-profile="0.4465611 1.159615 1.547601 " />
            <path d="M148.85,-414.95L154.96,-421.60L169.65,-432.30L186.17,-448.05L201.76,-460.42L216.61,-477.91L223.55,-483.70L227.05,-487.86L227.89,-487.84" stroke-profile="0.1726168 0.1418946 0.1223744 0.1200004 0.150027 0.1448947 0.09579532 0.06064224 0.05702165 " />
            <path d="M325.02,-499.14L320.79,-500.09L319.14,-501.83L319.18,-503.52L325.91,-500.82L336.06,-498.88L384.36,-493.48L394.49,-490.69L403.69,-484.53L415.48,-480.00L420.55,-479.03" stroke-profile="0.2425796 0.1624532 0.2665546 0.3701276 0.200234 0.185196 0.2074325 0.2003928 0.1823605 0.1845207 0.1738018 " />
            <path d="M30.18,-354.89L25.07,-354.16L25.09,-355.01L29.37,-356.60L53.29,-361.98L75.53,-368.26L86.59,-368.84L89.17,-370.48L90.87,-370.44" stroke-profile="0.2745992 0.4187598 0.4478782 0.3539776 0.3764817 0.3836872 0.333426 0.255021 0.1318631 " />
            <path d="M116.98,-360.48L116.88,-356.23L117.66,-353.66L123.29,-339.94L124.01,-334.82L129.60,-319.40L129.38,-310.06L130.14,-306.64" stroke-profile="0.4107124 0.4062862 0.4181869 0.4523522 0.4315136 0.3463594 0.1703894 0.007833864 " />
            <path d="M58.40,-254.81L54.17,-255.76L63.59,-258.94L100.35,-268.26L116.62,-273.82L119.17,-273.76" stroke-profile="0.2770717 0.4045749 0.3251891 0.3370046 0.4422143 0.08842135 " />
            <path d="M-17.49,-315.23L-18.12,-324.59L-16.48,-322.01L-16.54,-319.46L-14.21,-310.06L-10.25,-298.07L-3.80,-283.47L-3.07,-278.36L-2.22,-278.34" stroke-profile="0.2675319 0.3659866 0.5203748 0.5331656 0.5759586 0.611471 0.6165001 0.5037937 0.2860802 " />
            <path d="M-18.12,-324.59L-18.09,-325.44L-18.12,-324.59" stroke-profile="0.3659866 0.5157673 0.5398296 " />
        </g>
        <g id="f7" style="--index:7; opacity:0;" class="frame">
            <path d="M-11.67,-345.68L-12.52,-345.70" stroke-profile="1.231126 0.2687758 " />
            <path d="M-11.67,-345.68L-9.04,-349.02L-8.19,-349.00L-8.27,-345.60L-11.67,-345.68" stroke-profile="1.231126 0.7920679 0.8296382 1.083152 1.192641 " />
            <path d="M102.05,-376.12L99.59,-379.58L99.67,-382.98L103.93,-383.73L105.59,-381.99L105.69,-386.23L107.45,-388.74L110.00,-388.68L111.63,-386.09L111.53,-381.85L110.69,-381.87" stroke-profile="0.6891991 0.7681084 0.7723292 0.6788174 0.7112826 1.157504 1.108586 0.9593173 0.9711828 1.134965 1.012056 " />
            <path d="M105.59,-381.99L107.27,-381.10L107.21,-378.55L106.36,-378.57L105.59,-381.99" stroke-profile="0.7112826 0.7455831 1.092708 1.130805 1.138874 " />
            <path d="M132.92,-280.23L138.03,-280.96L138.84,-279.24L139.69,-279.22" stroke-profile="0.8959558 0.653812 0.7032319 0.5568744 " />
            <path d="M138.01,-280.11L137.08,-276.74L132.80,-275.14L129.40,-275.22L127.74,-276.96L127.84,-281.20L130.43,-282.84L134.68,-282.74L138.03,-280.96L138.01,-280.11" stroke-profile="0.7245673 0.9604429 1.048622 1.085813 1.080952 0.9866266 0.8615769 0.8270105 0.9232565 0.8877826 " />
            <path d="M5.63,-250.96L6.78,-250.70L9.11,-254.28L13.35,-254.18L14.99,-251.59L14.87,-246.50L14.00,-245.67L11.45,-245.73L10.64,-247.45L11.53,-249.12" stroke-profile="0.5153481 0.5249968 1.015189 0.9214065 0.9380028 1.16562 1.253676 1.256861 1.042899 0.2910116 " />
            <path d="M6.78,-250.70L9.86,-250.01L10.66,-248.29L10.46,-239.80L9.61,-239.82L9.59,-238.97L7.90,-239.01L7.11,-241.58L6.36,-245.85L6.78,-250.70" stroke-profile="0.5249968 0.5507275 0.5665537 0.7339661 0.7889116 0.8718316 0.9995893 1.087176 1.115539 1.082276 " />
            <path d="M279.31,-506.17L274.98,-502.87L273.28,-502.91L272.45,-503.78L272.51,-506.33L273.38,-507.16L275.10,-507.97L279.35,-507.87" stroke-profile="1.368525 1.150822 1.166836 1.156168 1.1416 1.135332 1.075818 0.3151102 " />
            <path d="M279.31,-506.17L274.21,-506.29L274.23,-507.14L276.82,-508.77L279.37,-508.71L279.31,-506.17" stroke-profile="1.368525 1.359144 1.188234 0.9904564 1.026819 1.09598 " />
            <path d="M448.35,-469.03L444.15,-470.83L440.75,-470.91L439.94,-472.63L439.09,-472.65L439.15,-475.19L440.85,-475.15L443.32,-471.70L445.00,-470.81" stroke-profile="0.7060462 0.7838084 0.9775182 0.9875723 0.9739991 0.8258935 0.7918072 1.148785 0.2043951 " />
        </g>
        <g id="f8" style="--index:8; opacity:0;" class="frame">
            <path d="M133.93,-394.91L149.62,-411.53L158.27,-418.12L164.36,-423.93L168.66,-426.37L191.31,-449.63L201.68,-457.03L214.69,-468.61L219.06,-473.61L220.01,-477.83L220.88,-478.66" stroke-profile="0.1983818 0.2608087 0.2516016 0.210783 0.2099885 0.2394514 0.2358154 0.2880435 0.3254174 0.3913021 0.3249456 " />
            <path d="M13.12,-351.89L17.40,-353.49L38.71,-356.38L62.63,-361.76L73.69,-362.35" stroke-profile="0.4497073 0.3407614 0.2953753 0.337354 0.3511942 " />
            <path d="M-21.00,-310.22L-19.17,-316.12L-18.36,-314.40L-17.63,-309.29L-16.01,-305.85L-14.51,-297.32L-9.76,-282.76L-9.03,-277.65L-4.99,-269.06L-1.63,-267.28L0.07,-267.24L0.94,-268.07" stroke-profile="0.2057775 0.2533648 0.4407676 0.4601499 0.4669453 0.4768127 0.4601655 0.4599843 0.4562827 0.456484 0.3695287 0.2523888 " />
            <path d="M-19.17,-316.12L-19.15,-316.97L-19.17,-316.12" stroke-profile="0.2533648 0.4605143 0.4345429 " />
            <path d="M44.69,-250.04L48.92,-249.09L83.16,-260.17L91.70,-261.67L105.40,-266.44L116.50,-268.73" stroke-profile="0.4309893 0.4117859 0.4475634 0.4543945 0.4660489 0.4802656 " />
            <path d="M132.93,-352.45L130.46,-355.91L128.78,-356.80L128.80,-357.65L127.95,-357.67L127.91,-355.97L134.97,-331.16L136.47,-322.63L138.09,-319.19L138.01,-315.80L139.59,-310.66L139.46,-305.57L141.20,-307.23" stroke-profile="0.3103258 0.3935499 0.584136 0.6186908 0.5899867 0.567462 0.5700438 0.5768209 0.5776189 0.5652132 0.5650149 0.5829903 0.2859169 " />
            <path d="M127.95,-357.67L127.97,-358.52L127.95,-357.67" stroke-profile="0.5899867 0.7009764 0.609639 " />
            <path d="M321.52,-494.97L324.98,-497.44L346.15,-494.39L364.81,-493.10L397.00,-488.94L402.90,-487.10L412.22,-486.03L416.43,-484.23" stroke-profile="0.4981728 0.3944162 0.4052057 0.4174426 0.4774961 0.4939754 0.5270659 0.04038468 " />
            <path d="M412.22,-486.03L413.07,-486.01L412.22,-486.03" stroke-profile="0.5270659 0.535362 0.4441496 " />
            <path d="M445.02,-471.66L441.54,-468.34L441.50,-466.64L442.33,-465.77L445.68,-463.99L449.08,-463.91L450.78,-463.87L453.37,-465.51L455.14,-468.87L455.25,-473.11L452.80,-477.42L449.40,-477.50" stroke-profile="0.3082807 0.3021969 0.2965309 0.310041 0.3412431 0.3751807 0.4117349 0.560788 0.7151598 0.8714394 0.9189066 0.604255 " />
            <path d="M276.70,-503.68L272.39,-501.23L272.31,-497.84L277.39,-496.87L279.97,-498.50L280.07,-502.75L276.70,-503.68" stroke-profile="0.4147085 0.3183612 0.3110852 0.3931111 0.5304475 0.624677 0.4120116 " />
            <path d="M112.34,-380.13L111.50,-380.49L111.43,-377.60L110.58,-377.62" stroke-profile="0.7751855 0.7657401 0.7821468 0.4751982 " />
            <path d="M111.50,-380.49L108.14,-381.93L108.20,-384.47L110.75,-384.41L111.57,-383.54L111.50,-380.49" stroke-profile="0.7657401 0.7279604 0.4498459 0.4749466 0.5408646 0.7492797 " />
            <path d="M-28.06,-335.02L-27.11,-339.25L-23.72,-339.17L-23.68,-340.87" stroke-profile="0.5401501 0.4328681 0.4588426 0.6942217 " />
            <path d="M-23.72,-339.17L-22.87,-339.15L-22.89,-338.30L-22.87,-339.15L-23.72,-339.17" stroke-profile="0.4588518 0.6890374 0.8752695 0.8776012 0.8559117 " />
            <path d="M-23.72,-339.17L-23.72,-339.17" stroke-profile="0.4588426 0.8559084 " />
            <path d="M11.57,-250.82L15.82,-250.72L16.65,-249.85L16.53,-244.76L13.11,-243.99" stroke-profile="0.9099056 0.6332272 0.6230806 1.092596 0.7827543 " />
            <path d="M148.97,-276.46L145.61,-277.89L144.71,-275.71L145.55,-275.69" stroke-profile="0.5701787 0.6659033 0.5595443 0.0764148 " />
            <path d="M141.33,-276.64L141.31,-275.79L141.33,-276.64" stroke-profile="0.7899499 0.8106627 0.7824985 " />
            <path d="M145.61,-277.89L143.07,-278.29L143.03,-276.60L141.33,-276.64L141.35,-277.49L142.20,-277.47L143.96,-279.97L145.65,-279.93L145.61,-277.89" stroke-profile="0.6659033 0.6996577 0.7153724 0.7899499 0.7776661 0.7801873 0.917868 1.090216 1.036079 " />
        </g>
        </g>
    </g>
</svg>