<?xml version="1.0" encoding="utf-8" ?>
<svg width="297.0mm" height="210.0mm" viewBox="0,0,297.0,210.0" baseProfile="tiny" version="1.2" xmlns="http://www.w3.org/2000/svg" xmlns:ev="http://www.w3.org/2001/xml-events" xmlns:xlink="http://www.w3.org/1999/xlink" ><defs/><g id="label" fill="none" stroke="black" stroke-width="0.2"><g id="label_black" fill="none" stroke="black" stroke-width="0.2"><path d="M187.38 160.74 L187.38 163.26000000000002M187.18 160.74 L187.18 163.26000000000002M187.28 160.64000000000001 L188.3760182243007 160.64129125423625 L188.77257311121193 160.77493491916482 L188.92112421851755 160.92152897153363 L189.05732489894677 161.19702470794525 L189.05732489894677 161.60297529205477 L188.92112421851755 161.87847102846638 L188.77257311121193 162.0250650808352 L188.3760182243007 162.15870874576376 L187.28 162.16M187.28 160.84 L188.34398177569932 160.83870874576377 L188.66742688878807 160.9450650808352 L188.75887578148246 161.0384710284664 L188.86267510105324 161.24297529205475 L188.86267510105324 161.55702470794526 L188.75887578148246 161.7615289715336 L188.66742688878807 161.8549349191648 L188.34398177569932 161.96129125423624 L187.28 161.96M191.2134487734929 160.7755995327592 L190.25344877349292 163.2955995327592M191.0265512265071 160.70440046724082 L190.06655122650713 163.22440046724083M191.2134487734929 160.70440046724082 L192.1734487734929 163.22440046724083M191.0265512265071 160.7755995327592 L191.98655122650712 163.2955995327592M190.52 162.32000000000002 L191.72 162.32000000000002M190.52 162.52 L191.72 162.52M193.98000000000002 160.74 L193.98000000000002 163.26000000000002M193.78000000000003 160.74 L193.78000000000003 163.26000000000002M193.04000000000002 160.64000000000001 L194.72 160.64000000000001M193.04000000000002 160.84 L194.72 160.84M196.14000000000001 160.74 L196.14000000000001 163.26000000000002M195.94000000000003 160.74 L195.94000000000003 163.26000000000002M196.04000000000002 160.64000000000001 L197.1360182243007 160.64129125423625 L197.53257311121195 160.77493491916482 L197.68112421851757 160.92152897153363 L197.81732489894677 161.19702470794527 L197.81732489894677 161.48297529205473 L197.68112421851757 161.7584710284664 L197.53257311121192 161.9050650808352 L197.1360182243007 162.03870874576376 L196.04000000000002 162.04M196.04000000000002 160.84 L197.1039817756993 160.83870874576377 L197.4274268887881 160.9450650808352 L197.51887578148248 161.0384710284664 L197.62267510105323 161.24297529205472 L197.62267510105323 161.43702470794528 L197.51887578148248 161.64152897153363 L197.42742688878812 161.7349349191648 L197.1039817756993 161.84129125423624 L196.04000000000002 161.84M196.96436614877322 161.88631245078068 L197.8043661487732 163.2063124507807M196.79563385122682 161.99368754921932 L197.6356338512268 163.31368754921934M199.38 160.74 L199.38 163.26000000000002M199.18 160.74 L199.18 163.26000000000002M202.55055728090002 161.38472135954999 L202.43887578148247 161.15847102846638 L202.22152897153362 160.94112421851756 L202.01702470794527 160.83732489894678 L201.58297529205475 160.83732489894678 L201.3784710284664 160.94112421851756 L201.16112421851756 161.15847102846638 L201.05238795325113 161.3782683432365 L200.93870874576376 161.7160182243007 L200.93870874576376 162.28398177569932 L201.05238795325113 162.62173165676347 L201.16112421851756 162.84152897153362 L201.3784710284664 163.05887578148247 L201.58297529205475 163.16267510105325 L202.01702470794527 163.16267510105325 L202.22152897153362 163.05887578148247 L202.43887578148247 162.84152897153362 L202.55055728090002 162.61527864045001M202.7294427191 161.29527864045002 L202.60112421851755 161.0415289715336 L202.3384710284664 160.77887578148247 L202.06297529205477 160.64267510105324 L201.53702470794525 160.64267510105324 L201.26152897153364 160.77887578148247 L200.99887578148247 161.0415289715336 L200.8676120467489 161.3017316567635 L200.74129125423624 161.68398177569932 L200.74129125423624 162.3160182243007 L200.8676120467489 162.69826834323652 L200.99887578148247 162.9584710284664 L201.26152897153364 163.22112421851756 L201.53702470794525 163.35732489894679 L202.06297529205477 163.35732489894679 L202.3384710284664 163.22112421851756 L202.60112421851755 162.9584710284664 L202.7294427191 162.70472135954998M204.3 160.74 L204.3 163.26000000000002M204.10000000000002 160.74 L204.10000000000002 163.26000000000002M206.52472135955 160.8294427191 L206.2984710284664 160.94112421851756 L206.08112421851754 161.15847102846638 L205.97238795325111 161.3782683432365 L205.85870874576378 161.7160182243007 L205.85870874576378 162.28398177569932 L205.97238795325111 162.6217316567635 L206.08112421851754 162.84152897153362 L206.2984710284664 163.05887578148247 L206.50297529205474 163.16267510105325 L206.93702470794528 163.16267510105325 L207.14152897153363 163.05887578148247 L207.35887578148245 162.84152897153362 L207.46761204674888 162.62173165676347 L207.58129125423625 162.28398177569932 L207.58129125423625 161.7160182243007 L207.46761204674888 161.3782683432365 L207.35887578148245 161.15847102846638 L207.14152897153363 160.94112421851756 L206.93702470794528 160.83732489894678 L206.48000000000002 160.84M206.43527864045004 160.65055728090002 L206.18152897153362 160.77887578148247 L205.91887578148246 161.0415289715336 L205.78761204674888 161.3017316567635 L205.66129125423626 161.68398177569932 L205.66129125423626 162.3160182243007 L205.78761204674888 162.6982683432365 L205.91887578148246 162.9584710284664 L206.18152897153362 163.22112421851756 L206.4570247079453 163.35732489894679 L206.98297529205473 163.35732489894679 L207.2584710284664 163.22112421851756 L207.52112421851754 162.9584710284664 L207.65238795325112 162.69826834323652 L207.77870874576377 162.3160182243007 L207.77870874576377 161.68398177569932 L207.65238795325112 161.3017316567635 L207.52112421851754 161.0415289715336 L207.2584710284664 160.77887578148247 L206.98297529205473 160.64267510105324 L206.48000000000002 160.64000000000001M213.4705572809 161.38472135954999 L213.35887578148245 161.15847102846638 L213.14152897153363 160.94112421851756 L212.93702470794528 160.83732489894678 L212.50297529205474 160.83732489894678 L212.2984710284664 160.94112421851756 L212.08112421851754 161.15847102846638 L211.97238795325111 161.3782683432365 L211.85870874576378 161.7160182243007 L211.85870874576378 162.28398177569932 L211.97238795325111 162.6217316567635 L212.08112421851754 162.84152897153362 L212.2984710284664 163.05887578148247 L212.50297529205474 163.16267510105325 L212.93702470794528 163.16267510105325 L213.14152897153363 163.05887578148247 L213.35887578148245 162.84152897153362 L213.46267510105324 162.63702470794527 L213.46 162.3M213.6494427191 161.29527864045002 L213.52112421851754 161.0415289715336 L213.2584710284664 160.77887578148247 L212.98297529205473 160.64267510105324 L212.4570247079453 160.64267510105324 L212.18152897153362 160.77887578148247 L211.91887578148246 161.0415289715336 L211.78761204674888 161.3017316567635 L211.66129125423626 161.68398177569932 L211.66129125423626 162.3160182243007 L211.78761204674888 162.6982683432365 L211.91887578148246 162.9584710284664 L212.18152897153362 163.22112421851756 L212.4570247079453 163.35732489894679 L212.98297529205473 163.35732489894679 L213.2584710284664 163.22112421851756 L213.52112421851754 162.9584710284664 L213.65732489894677 162.68297529205472 L213.66 162.3M212.96 162.20000000000002 L213.56 162.20000000000002M212.96 162.4 L213.56 162.4M215.76472135955 160.8294427191 L215.5384710284664 160.94112421851756 L215.32112421851755 161.15847102846638 L215.21238795325112 161.3782683432365 L215.09870874576376 161.7160182243007 L215.09870874576376 162.28398177569932 L215.21238795325112 162.62173165676347 L215.32112421851755 162.84152897153362 L215.5384710284664 163.05887578148247 L215.74297529205475 163.16267510105325 L216.17702470794526 163.16267510105325 L216.3815289715336 163.05887578148247 L216.59887578148246 162.84152897153362 L216.7076120467489 162.62173165676347 L216.82129125423626 162.28398177569932 L216.82129125423626 161.7160182243007 L216.7076120467489 161.3782683432365 L216.59887578148246 161.15847102846638 L216.3815289715336 160.94112421851756 L216.17702470794526 160.83732489894678 L215.72 160.84M215.67527864045 160.65055728090002 L215.42152897153363 160.77887578148247 L215.15887578148246 161.0415289715336 L215.02761204674889 161.3017316567635 L214.90129125423624 161.68398177569932 L214.90129125423624 162.3160182243007 L215.02761204674889 162.69826834323652 L215.15887578148246 162.9584710284664 L215.42152897153363 163.22112421851756 L215.69702470794525 163.35732489894679 L216.22297529205477 163.35732489894679 L216.49847102846638 163.22112421851756 L216.76112421851755 162.9584710284664 L216.89238795325113 162.69826834323652 L217.01870874576377 162.3160182243007 L217.01870874576377 161.68398177569932 L216.89238795325113 161.3017316567635 L216.76112421851755 161.0415289715336 L216.49847102846638 160.77887578148247 L216.22297529205477 160.64267510105324 L215.72 160.64000000000001M218.58 160.74 L218.58 163.26000000000002M218.38000000000002 160.74 L218.38000000000002 163.26000000000002M218.5632050294338 160.68452998037748 L220.2432050294338 163.2045299803775M218.39679497056625 160.79547001962254 L220.07679497056625 163.31547001962255M220.26000000000002 160.74 L220.26000000000002 163.26000000000002M220.06000000000003 160.74 L220.06000000000003 163.26000000000002M223.4832050294338 160.79547001962254 L221.80320502943383 163.31547001962255M223.3167949705662 160.68452998037748 L221.63679497056623 163.2045299803775M221.72000000000003 160.64000000000001 L223.4 160.64000000000001M221.72000000000003 160.84 L223.4 160.84M221.72000000000003 163.16000000000003 L223.4 163.16000000000003M221.72000000000003 163.36 L223.4 163.36M225.6534487734929 160.7755995327592 L224.69344877349292 163.2955995327592M225.4665512265071 160.70440046724082 L224.50655122650713 163.22440046724083M225.6534487734929 160.70440046724082 L226.6134487734929 163.22440046724083M225.4665512265071 160.7755995327592 L226.42655122650712 163.2955995327592M224.96 162.32000000000002 L226.16000000000003 162.32000000000002M224.96 162.52 L226.16000000000003 162.52M227.94 160.74 L227.94 163.26000000000002M227.74 160.74 L227.74 163.26000000000002M227.84 163.16000000000003 L229.28 163.16000000000003M227.84 163.36 L229.28 163.36M230.70000000000002 160.74 L230.70000000000002 163.26000000000002M230.50000000000003 160.74 L230.50000000000003 163.26000000000002M230.60000000000002 160.64000000000001 L232.16000000000003 160.64000000000001M230.60000000000002 160.84 L232.16000000000003 160.84M230.60000000000002 161.84 L231.56 161.84M230.60000000000002 162.04 L231.56 162.04M230.60000000000002 163.16000000000003 L232.16000000000003 163.16000000000003M230.60000000000002 163.36 L232.16000000000003 163.36M235.2432050294338 160.79547001962254 L233.5632050294338 163.31547001962255M235.07679497056625 160.68452998037748 L233.39679497056625 163.2045299803775M233.48000000000002 160.64000000000001 L235.16000000000003 160.64000000000001M233.48000000000002 160.84 L235.16000000000003 160.84M233.48000000000002 163.16000000000003 L235.16000000000003 163.16000000000003M233.48000000000002 163.36 L235.16000000000003 163.36M239.0934487734929 160.70440046724082 L240.0534487734929 163.22440046724083M238.9065512265071 160.7755995327592 L239.8665512265071 163.2955995327592M241.0134487734929 160.7755995327592 L240.0534487734929 163.2955995327592M240.82655122650712 160.70440046724082 L239.8665512265071 163.22440046724083M242.34 160.74 L242.34 163.26000000000002M242.14000000000001 160.74 L242.14000000000001 163.26000000000002M243.6534487734929 160.70440046724082 L244.6134487734929 163.22440046724083M243.4665512265071 160.7755995327592 L244.42655122650712 163.2955995327592M245.5734487734929 160.7755995327592 L244.6134487734929 163.2955995327592M245.38655122650712 160.70440046724082 L244.42655122650712 163.22440046724083M247.44472135955002 160.8294427191 L247.2184710284664 160.94112421851756 L247.00112421851756 161.15847102846638 L246.89238795325113 161.3782683432365 L246.77870874576377 161.7160182243007 L246.77870874576377 162.28398177569932 L246.89238795325113 162.62173165676347 L247.00112421851756 162.84152897153362 L247.2184710284664 163.05887578148247 L247.42297529205476 163.16267510105325 L247.85702470794527 163.16267510105325 L248.06152897153362 163.05887578148247 L248.27887578148247 162.84152897153362 L248.3876120467489 162.62173165676347 L248.50129125423626 162.28398177569932 L248.50129125423626 161.7160182243007 L248.3876120467489 161.3782683432365 L248.27887578148247 161.15847102846638 L248.06152897153362 160.94112421851756 L247.85702470794527 160.83732489894678 L247.4 160.84M247.35527864045 160.65055728090002 L247.10152897153364 160.77887578148247 L246.83887578148247 161.0415289715336 L246.7076120467489 161.3017316567635 L246.58129125423625 161.68398177569932 L246.58129125423625 162.3160182243007 L246.7076120467489 162.69826834323652 L246.83887578148247 162.9584710284664 L247.10152897153364 163.22112421851756 L247.37702470794525 163.35732489894679 L247.90297529205472 163.35732489894679 L248.1784710284664 163.22112421851756 L248.44112421851756 162.9584710284664 L248.57238795325114 162.69826834323652 L248.69870874576378 162.3160182243007 L248.69870874576378 161.68398177569932 L248.57238795325114 161.3017316567635 L248.44112421851756 161.0415289715336 L248.1784710284664 160.77887578148247 L247.90297529205472 160.64267510105324 L247.4 160.64000000000001" fill="none" stroke="black" stroke-width="0.2" />
<path d="M185.0 167.3 L275.0 167.3M185.0 167.5 L275.0 167.5" fill="none" stroke="black" stroke-width="0.2" />
<path d="M186.995 170.30499999999998 L186.995 172.195M186.995 170.30499999999998 L187.80499999999998 170.30499999999998 L188.075 170.39499999999998 L188.165 170.48499999999999 L188.255 170.665 L188.255 170.935 L188.165 171.11499999999998 L188.075 171.20499999999998 L187.80499999999998 171.295 L186.995 171.295M189.695 170.30499999999998 L189.515 170.39499999999998 L189.33499999999998 170.575 L189.245 170.755 L189.155 171.02499999999998 L189.155 171.475 L189.245 171.745 L189.33499999999998 171.92499999999998 L189.515 172.105 L189.695 172.195 L190.05499999999998 172.195 L190.23499999999999 172.105 L190.415 171.92499999999998 L190.505 171.745 L190.595 171.475 L190.595 171.02499999999998 L190.505 170.755 L190.415 170.575 L190.23499999999999 170.39499999999998 L190.05499999999998 170.30499999999998 L189.695 170.30499999999998M191.58499999999998 170.30499999999998 L191.58499999999998 172.195M191.58499999999998 170.30499999999998 L192.39499999999998 170.30499999999998 L192.665 170.39499999999998 L192.755 170.48499999999999 L192.845 170.665 L192.845 170.845 L192.755 171.02499999999998 L192.665 171.11499999999998 L192.39499999999998 171.20499999999998 L191.58499999999998 171.20499999999998M192.215 171.20499999999998 L192.845 172.195M194.195 170.30499999999998 L194.195 172.195M193.565 170.30499999999998 L194.825 170.30499999999998M195.635 170.30499999999998 L195.635 172.195M195.635 170.30499999999998 L196.80499999999998 170.30499999999998M195.635 171.20499999999998 L196.355 171.20499999999998M198.065 170.30499999999998 L197.885 170.39499999999998 L197.70499999999998 170.575 L197.61499999999998 170.755 L197.52499999999998 171.02499999999998 L197.52499999999998 171.475 L197.61499999999998 171.745 L197.70499999999998 171.92499999999998 L197.885 172.105 L198.065 172.195 L198.42499999999998 172.195 L198.605 172.105 L198.785 171.92499999999998 L198.875 171.745 L198.965 171.475 L198.965 171.02499999999998 L198.875 170.755 L198.785 170.575 L198.605 170.39499999999998 L198.42499999999998 170.30499999999998 L198.065 170.30499999999998M199.95499999999998 170.30499999999998 L199.95499999999998 172.195M199.95499999999998 172.195 L201.035 172.195M201.845 170.30499999999998 L201.845 172.195M203.375 170.30499999999998 L203.195 170.39499999999998 L203.015 170.575 L202.92499999999998 170.755 L202.83499999999998 171.02499999999998 L202.83499999999998 171.475 L202.92499999999998 171.745 L203.015 171.92499999999998 L203.195 172.105 L203.375 172.195 L203.73499999999999 172.195 L203.915 172.105 L204.095 171.92499999999998 L204.185 171.745 L204.27499999999998 171.475 L204.27499999999998 171.02499999999998 L204.185 170.755 L204.095 170.575 L203.915 170.39499999999998 L203.73499999999999 170.30499999999998 L203.375 170.30499999999998" fill="none" stroke="black" stroke-width="0.2" />
<path d="M185.0 174.8 L275.0 174.8M185.0 175.0 L275.0 175.0" fill="none" stroke="black" stroke-width="0.2" />
<path d="M186.85 177.70000000000002 L186.85 179.8M186.65 177.70000000000002 L186.65 179.8M186.75 177.60000000000002 L188.04999999999998 177.60000000000002M186.75 177.8 L188.04999999999998 177.8M186.75 178.60000000000002 L187.54999999999998 178.60000000000002M186.75 178.8 L187.54999999999998 178.8M188.99472135954997 178.4894427191 L188.80847102846639 178.58112421851754 L188.63506508083518 178.75257311121194 L188.54870874576375 179.0160182243007 L188.54870874576375 179.18398177569932 L188.63506508083518 179.44742688878807 L188.80847102846639 179.61887578148247 L188.9729752920547 179.70267510105325 L189.22702470794528 179.70267510105325 L189.3915289715336 179.61887578148247 L189.5649349191648 179.44742688878807 L189.65129125423624 179.18398177569932 L189.65129125423624 179.0160182243007 L189.5649349191648 178.75257311121194 L189.3915289715336 178.58112421851754 L189.22702470794528 178.49732489894677 L188.95 178.5M188.90527864045 178.3105572809 L188.69152897153361 178.41887578148246 L188.4649349191648 178.6474268887881 L188.35129125423623 178.9839817756993 L188.35129125423623 179.2160182243007 L188.4649349191648 179.55257311121193 L188.69152897153361 179.78112421851756 L188.92702470794526 179.89732489894678 L189.27297529205472 179.89732489894678 L189.50847102846637 179.78112421851756 L189.7350650808352 179.55257311121193 L189.84870874576376 179.2160182243007 L189.84870874576376 178.9839817756993 L189.7350650808352 178.6474268887881 L189.50847102846637 178.41887578148246 L189.27297529205472 178.30267510105324 L188.95 178.3M190.54999999999998 178.4 L190.54999999999998 179.8M190.35 178.4 L190.35 179.8M190.35513167019494 178.9683772233983 L190.4649349191648 178.6474268887881 L190.69152897153361 178.41887578148246 L190.92702470794526 178.30267510105324 L191.25 178.3M190.54486832980504 179.0316227766017 L190.63506508083518 178.75257311121194 L190.80847102846639 178.58112421851754 L190.9729752920547 178.49732489894677 L191.25 178.5" fill="none" stroke="black" stroke-width="0.2" />
<path d="M196.79999999999998 177.35000000000002 L196.79999999999998 179.45000000000002M196.79999999999998 177.35000000000002 L197.7 177.35000000000002 L197.99999999999997 177.45000000000002 L198.09999999999997 177.55 L198.2 177.75 L198.2 178.05 L198.09999999999997 178.25 L197.99999999999997 178.35000000000002 L197.7 178.45000000000002 L196.79999999999998 178.45000000000002M199.39999999999998 177.35000000000002 L199.2 177.45000000000002 L198.99999999999997 177.65 L198.89999999999998 177.85000000000002 L198.79999999999998 178.15 L198.79999999999998 178.65 L198.89999999999998 178.95000000000002 L198.99999999999997 179.15 L199.2 179.35000000000002 L199.39999999999998 179.45000000000002 L199.79999999999998 179.45000000000002 L199.99999999999997 179.35000000000002 L200.2 179.15 L200.29999999999998 178.95000000000002 L200.39999999999998 178.65 L200.39999999999998 178.15 L200.29999999999998 177.85000000000002 L200.2 177.65 L199.99999999999997 177.45000000000002 L199.79999999999998 177.35000000000002 L199.39999999999998 177.35000000000002M202.39999999999998 177.65 L202.2 177.45000000000002 L201.89999999999998 177.35000000000002 L201.49999999999997 177.35000000000002 L201.2 177.45000000000002 L200.99999999999997 177.65 L200.99999999999997 177.85000000000002 L201.09999999999997 178.05 L201.2 178.15 L201.39999999999998 178.25 L201.99999999999997 178.45000000000002 L202.2 178.55 L202.29999999999998 178.65 L202.39999999999998 178.85000000000002 L202.39999999999998 179.15 L202.2 179.35000000000002 L201.89999999999998 179.45000000000002 L201.49999999999997 179.45000000000002 L201.2 179.35000000000002 L200.99999999999997 179.15M203.09999999999997 177.35000000000002 L203.09999999999997 179.45000000000002M204.49999999999997 177.35000000000002 L204.49999999999997 179.45000000000002M203.09999999999997 178.35000000000002 L204.49999999999997 178.35000000000002M208.29999999999998 177.85000000000002 L208.2 177.65 L207.99999999999997 177.45000000000002 L207.79999999999998 177.35000000000002 L207.39999999999998 177.35000000000002 L207.2 177.45000000000002 L206.99999999999997 177.65 L206.89999999999998 177.85000000000002 L206.79999999999998 178.15 L206.79999999999998 178.65 L206.89999999999998 178.95000000000002 L206.99999999999997 179.15 L207.2 179.35000000000002 L207.39999999999998 179.45000000000002 L207.79999999999998 179.45000000000002 L207.99999999999997 179.35000000000002 L208.2 179.15 L208.29999999999998 178.95000000000002 L208.29999999999998 178.65M207.79999999999998 178.65 L208.29999999999998 178.65M210.09999999999997 178.05 L210.09999999999997 179.45000000000002M210.09999999999997 178.35000000000002 L209.89999999999998 178.15 L209.7 178.05 L209.39999999999998 178.05 L209.2 178.15 L208.99999999999997 178.35000000000002 L208.89999999999998 178.65 L208.89999999999998 178.85000000000002 L208.99999999999997 179.15 L209.2 179.35000000000002 L209.39999999999998 179.45000000000002 L209.7 179.45000000000002 L209.89999999999998 179.35000000000002 L210.09999999999997 179.15M210.89999999999998 177.35000000000002 L210.89999999999998 179.45000000000002M211.7 177.35000000000002 L211.7 179.45000000000002M212.39999999999998 178.65 L213.59999999999997 178.65 L213.59999999999997 178.45000000000002 L213.49999999999997 178.25 L213.39999999999998 178.15 L213.2 178.05 L212.89999999999998 178.05 L212.7 178.15 L212.49999999999997 178.35000000000002 L212.39999999999998 178.65 L212.39999999999998 178.85000000000002 L212.49999999999997 179.15 L212.7 179.35000000000002 L212.89999999999998 179.45000000000002 L213.2 179.45000000000002 L213.39999999999998 179.35000000000002 L213.59999999999997 179.15M214.29999999999998 178.05 L214.29999999999998 179.45000000000002M214.29999999999998 178.65 L214.39999999999998 178.35000000000002 L214.59999999999997 178.15 L214.79999999999998 178.05 L215.09999999999997 178.05M215.39999999999998 178.05 L215.99999999999997 179.45000000000002M216.59999999999997 178.05 L215.99999999999997 179.45000000000002 L215.79999999999998 179.85000000000002 L215.59999999999997 180.05 L215.39999999999998 180.15 L215.29999999999998 180.15" fill="none" stroke="black" stroke-width="0.2" />
<path d="M239.2 175.0 L239.2 182.5M239.0 175.0 L239.0 182.5" fill="none" stroke="black" stroke-width="0.2" />
<path d="M240.95 177.70000000000002 L240.95 179.8M240.75 177.70000000000002 L240.75 179.8M240.85 177.60000000000002 L241.56601822430068 177.60129125423626 L241.9025731112119 177.71493491916482 L242.13112421851753 177.94152897153361 L242.2423879532511 178.1617316567635 L242.34870874576376 178.4839817756993 L242.34870874576376 179.0160182243007 L242.2423879532511 179.33826834323654 L242.13112421851753 179.55847102846639 L241.90257311121192 179.7850650808352 L241.56601822430068 179.89870874576377 L240.85 179.9M240.85 177.8 L241.5339817756993 177.79870874576378 L241.7974268887881 177.8850650808352 L241.96887578148244 178.05847102846639 L242.05761204674886 178.23826834323654 L242.15129125423624 178.5160182243007 L242.15129125423624 178.9839817756993 L242.05761204674886 179.2617316567635 L241.96887578148244 179.44152897153361 L241.79742688878807 179.61493491916482 L241.5339817756993 179.70129125423625 L240.85 179.70000000000002M244.14999999999998 178.4 L244.14999999999998 179.8M243.95 178.4 L243.95 179.8M243.9792893218813 178.77071067811866 L243.7915289715336 178.58112421851754 L243.62702470794525 178.49732489894677 L243.37297529205472 178.49732489894677 L243.20847102846636 178.58112421851754 L243.03506508083518 178.75257311121192 L242.94870874576375 179.0160182243007 L242.94870874576375 179.18398177569932 L243.03506508083518 179.4474268887881 L243.20847102846636 179.61887578148247 L243.37297529205472 179.70267510105325 L243.62702470794525 179.70267510105325 L243.7915289715336 179.61887578148247 L243.9792893218813 179.42928932188136M244.12071067811866 178.62928932188137 L243.90847102846638 178.41887578148246 L243.6729752920547 178.30267510105324 L243.32702470794527 178.30267510105324 L243.0915289715336 178.41887578148246 L242.8649349191648 178.64742688878812 L242.75129125423624 178.9839817756993 L242.75129125423624 179.2160182243007 L242.8649349191648 179.5525731112119 L243.0915289715336 179.78112421851756 L243.32702470794527 179.89732489894678 L243.6729752920547 179.89732489894678 L243.90847102846638 179.78112421851756 L244.12071067811866 179.57071067811864M245.04999999999998 177.70000000000002 L245.04870874576375 179.3839817756993 L245.12554539549956 179.634479825864 L245.27297529205472 179.70267510105325 L245.45 179.70000000000002M244.85 177.70000000000002 L244.85129125423623 179.4160182243007 L244.9744546045004 179.76552017413604 L245.22702470794528 179.89732489894678 L245.45 179.9M244.64999999999998 178.3 L245.35 178.3M244.64999999999998 178.5 L245.35 178.5M245.95 178.9 L247.07928932188133 178.92928932188136 L247.0526751010532 178.82297529205474 L246.96887578148244 178.65847102846638 L246.8915289715336 178.58112421851754 L246.72702470794528 178.49732489894677 L246.4729752920547 178.49732489894677 L246.30847102846639 178.58112421851754 L246.13506508083518 178.75257311121194 L246.04870874576375 179.0160182243007 L246.04870874576375 179.18398177569932 L246.13506508083518 179.44742688878807 L246.30847102846639 179.61887578148247 L246.4729752920547 179.70267510105325 L246.72702470794528 179.70267510105325 L246.8915289715336 179.61887578148247 L247.0792893218813 179.42928932188136M245.95 179.1 L247.22071067811862 179.07071067811864 L247.24732489894674 178.7770247079453 L247.13112421851753 178.5415289715336 L247.00847102846637 178.41887578148246 L246.77297529205472 178.30267510105324 L246.42702470794526 178.30267510105324 L246.19152897153361 178.41887578148246 L245.9649349191648 178.6474268887881 L245.85129125423623 178.9839817756993 L245.85129125423623 179.2160182243007 L245.9649349191648 179.55257311121193 L246.19152897153361 179.78112421851756 L246.42702470794526 179.89732489894678 L246.77297529205472 179.89732489894678 L247.00847102846637 179.78112421851756 L247.22071067811865 179.57071067811864" fill="none" stroke="black" stroke-width="0.2" />
<path d="M185.0 182.3 L275.0 182.3M185.0 182.5 L275.0 182.5" fill="none" stroke="black" stroke-width="0.2" />
<path d="M186.84728062146854 185.1768379472694 L187.34728062146854 187.2768379472694M186.65271937853146 185.22316205273063 L187.15271937853146 187.32316205273062M187.84728062146854 185.22316205273063 L187.34728062146854 187.32316205273062M187.65271937853146 185.1768379472694 L187.15271937853146 187.2768379472694M187.84728062146854 185.1768379472694 L188.34728062146854 187.2768379472694M187.65271937853146 185.22316205273063 L188.15271937853146 187.32316205273062M188.84728062146854 185.22316205273063 L188.34728062146854 187.32316205273062M188.65271937853146 185.1768379472694 L188.15271937853146 187.2768379472694M189.25 186.4 L190.37928932188137 186.42928932188136 L190.35267510105325 186.32297529205474 L190.26887578148248 186.15847102846638 L190.19152897153364 186.08112421851757 L190.0270247079453 185.99732489894677 L189.77297529205472 185.99732489894677 L189.6084710284664 186.08112421851754 L189.43506508083522 186.25257311121194 L189.34870874576376 186.5160182243007 L189.34870874576376 186.68398177569932 L189.43506508083522 186.94742688878807 L189.6084710284664 187.11887578148247 L189.77297529205472 187.20267510105325 L190.0270247079453 187.20267510105325 L190.19152897153361 187.11887578148247 L190.37928932188137 186.92928932188136M189.25 186.6 L190.52071067811866 186.57071067811864 L190.54732489894678 186.2770247079453 L190.43112421851757 186.0415289715336 L190.30847102846636 185.91887578148243 L190.07297529205474 185.80267510105324 L189.72702470794528 185.80267510105324 L189.49152897153363 185.91887578148246 L189.26493491916483 186.1474268887881 L189.15129125423624 186.4839817756993 L189.15129125423624 186.7160182243007 L189.26493491916483 187.05257311121193 L189.49152897153363 187.28112421851756 L189.72702470794528 187.39732489894678 L190.07297529205474 187.39732489894678 L190.30847102846639 187.28112421851756 L190.52071067811866 187.07071067811864M191.25 185.20000000000002 L191.25 187.3M191.05 185.20000000000002 L191.05 187.3M191.07928932188136 186.12928932188137 L191.29152897153364 185.91887578148246 L191.5270247079453 185.80267510105324 L191.87297529205475 185.80267510105324 L192.1084710284664 185.91887578148246 L192.3350650808352 186.1474268887881 L192.44870874576378 186.4839817756993 L192.44870874576378 186.7160182243007 L192.3350650808352 187.05257311121193 L192.1084710284664 187.28112421851756 L191.87297529205475 187.39732489894678 L191.5270247079453 187.39732489894678 L191.29152897153364 187.28112421851756 L191.07928932188136 187.07071067811864M191.22071067811865 186.27071067811866 L191.4084710284664 186.08112421851754 L191.57297529205474 185.99732489894677 L191.8270247079453 185.99732489894677 L191.99152897153363 186.08112421851754 L192.1649349191648 186.25257311121194 L192.25129125423626 186.5160182243007 L192.25129125423626 186.68398177569932 L192.1649349191648 186.94742688878807 L191.99152897153363 187.11887578148247 L191.8270247079453 187.20267510105325 L191.57297529205474 187.20267510105325 L191.4084710284664 187.11887578148247 L191.22071067811865 186.92928932188136" fill="none" stroke="black" stroke-width="0.2" />
<path d="M196.9 185.6 L196.9 187.7M196.9 185.9 L197.1 185.7 L197.3 185.6 L197.6 185.6 L197.8 185.7 L198.0 185.9 L198.1 186.2 L198.1 186.4 L198.0 186.7 L197.8 186.9 L197.6 187.0 L197.3 187.0 L197.1 186.9 L196.9 186.7M199.9 185.6 L199.9 187.0M199.9 185.9 L199.7 185.7 L199.5 185.6 L199.2 185.6 L199.0 185.7 L198.8 185.9 L198.7 186.2 L198.7 186.4 L198.8 186.7 L199.0 186.9 L199.2 187.0 L199.5 187.0 L199.7 186.9 L199.9 186.7M200.8 184.9 L200.8 186.6 L200.9 186.9 L201.1 187.0 L201.3 187.0M200.5 185.6 L201.2 185.6M201.9 185.6 L201.9 187.0M201.9 186.2 L202.0 185.9 L202.2 185.7 L202.4 185.6 L202.7 185.6M203.1 184.9 L203.2 185.0 L203.3 184.9 L203.2 184.79999999999998 L203.1 184.9M203.2 185.6 L203.2 187.0M205.1 185.9 L204.9 185.7 L204.7 185.6 L204.4 185.6 L204.2 185.7 L204.0 185.9 L203.9 186.2 L203.9 186.4 L204.0 186.7 L204.2 186.9 L204.4 187.0 L204.7 187.0 L204.9 186.9 L205.1 186.7M205.7 184.9 L205.8 185.0 L205.9 184.9 L205.8 184.79999999999998 L205.7 184.9M205.8 185.6 L205.8 187.0M207.0 185.6 L206.8 185.7 L206.6 185.9 L206.5 186.2 L206.5 186.4 L206.6 186.7 L206.8 186.9 L207.0 187.0 L207.3 187.0 L207.5 186.9 L207.7 186.7 L207.8 186.4 L207.8 186.2 L207.7 185.9 L207.5 185.7 L207.3 185.6 L207.0 185.6M209.6 185.6 L209.6 187.2 L209.5 187.5 L209.4 187.6 L209.2 187.7 L208.9 187.7 L208.7 187.6M209.6 185.9 L209.4 185.7 L209.2 185.6 L208.9 185.6 L208.7 185.7 L208.5 185.9 L208.4 186.2 L208.4 186.4 L208.5 186.7 L208.7 186.9 L208.9 187.0 L209.2 187.0 L209.4 186.9 L209.6 186.7M210.8 185.6 L210.6 185.7 L210.4 185.9 L210.3 186.2 L210.3 186.4 L210.4 186.7 L210.6 186.9 L210.8 187.0 L211.1 187.0 L211.3 186.9 L211.5 186.7 L211.6 186.4 L211.6 186.2 L211.5 185.9 L211.3 185.7 L211.1 185.6 L210.8 185.6M212.3 185.6 L212.3 187.0M212.3 186.0 L212.6 185.7 L212.8 185.6 L213.1 185.6 L213.3 185.7 L213.4 186.0 L213.4 187.0M215.2 185.6 L214.1 187.0M214.1 185.6 L215.2 185.6M214.1 187.0 L215.2 187.0M217.0 185.6 L217.0 187.0M217.0 185.9 L216.8 185.7 L216.6 185.6 L216.3 185.6 L216.1 185.7 L215.9 185.9 L215.8 186.2 L215.8 186.4 L215.9 186.7 L216.1 186.9 L216.3 187.0 L216.6 187.0 L216.8 186.9 L217.0 186.7M217.8 184.9 L217.8 187.0M218.5 186.2 L219.7 186.2 L219.7 186.0 L219.6 185.79999999999998 L219.5 185.7 L219.3 185.6 L219.0 185.6 L218.8 185.7 L218.6 185.9 L218.5 186.2 L218.5 186.4 L218.6 186.7 L218.8 186.9 L219.0 187.0 L219.3 187.0 L219.5 186.9 L219.7 186.7M221.4 185.6 L220.3 187.0M220.3 185.6 L221.4 185.6M220.3 187.0 L221.4 187.0M221.9 185.6 L222.5 187.0M223.1 185.6 L222.5 187.0M223.6 184.9 L223.7 185.0 L223.8 184.9 L223.7 184.79999999999998 L223.6 184.9M223.7 185.6 L223.7 187.0M224.3 185.6 L224.9 187.0M225.5 185.6 L224.9 187.0M226.5 185.6 L226.3 185.7 L226.1 185.9 L226.0 186.2 L226.0 186.4 L226.1 186.7 L226.3 186.9 L226.5 187.0 L226.8 187.0 L227.0 186.9 L227.2 186.7 L227.3 186.4 L227.3 186.2 L227.2 185.9 L227.0 185.7 L226.8 185.6 L226.5 185.6M228.0 186.5 L227.9 186.6 L228.0 186.7 L228.1 186.6 L228.0 186.5M229.9 185.9 L229.7 185.7 L229.5 185.6 L229.2 185.6 L229.0 185.7 L228.8 185.9 L228.7 186.2 L228.7 186.4 L228.8 186.7 L229.0 186.9 L229.2 187.0 L229.5 187.0 L229.7 186.9 L229.9 186.7M231.0 185.6 L230.8 185.7 L230.6 185.9 L230.5 186.2 L230.5 186.4 L230.6 186.7 L230.8 186.9 L231.0 187.0 L231.3 187.0 L231.5 186.9 L231.7 186.7 L231.8 186.4 L231.8 186.2 L231.7 185.9 L231.5 185.7 L231.3 185.6 L231.0 185.6M232.5 185.6 L232.5 187.0M232.5 186.0 L232.8 185.7 L233.0 185.6 L233.3 185.6 L233.5 185.7 L233.6 186.0 L233.6 187.0M233.6 186.0 L233.9 185.7 L234.1 185.6 L234.4 185.6 L234.6 185.7 L234.7 186.0 L234.7 187.0" fill="none" stroke="black" stroke-width="0.2" />
</g><g id="label_red" fill="none" stroke="red" stroke-width="0.2"><path d="M251.40000000000003 177.70000000000002 L251.10000000000002 177.8 L250.90000000000003 178.1 L250.80000000000004 178.6 L250.80000000000004 178.9 L250.90000000000003 179.4 L251.10000000000002 179.70000000000002 L251.40000000000003 179.8 L251.60000000000002 179.8 L251.90000000000003 179.70000000000002 L252.10000000000002 179.4 L252.20000000000002 178.9 L252.20000000000002 178.6 L252.10000000000002 178.1 L251.90000000000003 177.8 L251.60000000000002 177.70000000000002 L251.40000000000003 177.70000000000002M254.00000000000003 177.70000000000002 L253.00000000000003 177.70000000000002 L252.90000000000003 178.6 L253.00000000000003 178.5 L253.30000000000004 178.4 L253.60000000000002 178.4 L253.90000000000003 178.5 L254.10000000000002 178.70000000000002 L254.20000000000002 179.0 L254.20000000000002 179.20000000000002 L254.10000000000002 179.5 L253.90000000000003 179.70000000000002 L253.60000000000002 179.8 L253.30000000000004 179.8 L253.00000000000003 179.70000000000002 L252.90000000000003 179.6 L252.80000000000004 179.4M254.90000000000003 178.9 L256.70000000000005 178.9M257.70000000000005 178.1 L257.90000000000003 178.0 L258.20000000000005 177.70000000000002 L258.20000000000005 179.8M260.0 177.70000000000002 L259.70000000000005 177.8 L259.5 178.1 L259.40000000000003 178.6 L259.40000000000003 178.9 L259.5 179.4 L259.70000000000005 179.70000000000002 L260.0 179.8 L260.20000000000005 179.8 L260.5 179.70000000000002 L260.70000000000005 179.4 L260.8 178.9 L260.8 178.6 L260.70000000000005 178.1 L260.5 177.8 L260.20000000000005 177.70000000000002 L260.0 177.70000000000002M261.5 178.9 L263.3 178.9M264.1 178.20000000000002 L264.1 178.1 L264.20000000000005 177.9 L264.3 177.8 L264.5 177.70000000000002 L264.90000000000003 177.70000000000002 L265.1 177.8 L265.20000000000005 177.9 L265.3 178.1 L265.3 178.3 L265.20000000000005 178.5 L265.0 178.8 L264.0 179.8 L265.40000000000003 179.8M266.6 177.70000000000002 L266.3 177.8 L266.1 178.1 L266.0 178.6 L266.0 178.9 L266.1 179.4 L266.3 179.70000000000002 L266.6 179.8 L266.8 179.8 L267.1 179.70000000000002 L267.3 179.4 L267.40000000000003 178.9 L267.40000000000003 178.6 L267.3 178.1 L267.1 177.8 L266.8 177.70000000000002 L266.6 177.70000000000002M268.1 178.20000000000002 L268.1 178.1 L268.20000000000005 177.9 L268.3 177.8 L268.5 177.70000000000002 L268.90000000000003 177.70000000000002 L269.1 177.8 L269.20000000000005 177.9 L269.3 178.1 L269.3 178.3 L269.20000000000005 178.5 L269.0 178.8 L268.0 179.8 L269.40000000000003 179.8M271.3 178.0 L271.20000000000005 177.8 L270.90000000000003 177.70000000000002 L270.70000000000005 177.70000000000002 L270.40000000000003 177.8 L270.20000000000005 178.1 L270.1 178.6 L270.1 179.1 L270.20000000000005 179.5 L270.40000000000003 179.70000000000002 L270.70000000000005 179.8 L270.8 179.8 L271.1 179.70000000000002 L271.3 179.5 L271.40000000000003 179.20000000000002 L271.40000000000003 179.1 L271.3 178.8 L271.1 178.6 L270.8 178.5 L270.70000000000005 178.5 L270.40000000000003 178.6 L270.20000000000005 178.8 L270.1 179.1" fill="none" stroke="red" stroke-width="0.2" />
</g></g></svg>