<?xml version="1.0" encoding="utf-8" ?>
<svg width="297.0mm" height="210.0mm" viewBox="0,0,297.0,210.0" baseProfile="tiny" version="1.2" xmlns="http://www.w3.org/2000/svg" xmlns:ev="http://www.w3.org/2001/xml-events" xmlns:xlink="http://www.w3.org/1999/xlink" ><defs/><path d="M20.0 19.6 L30.0 19.6M20.0 19.8 L30.0 19.8M20.0 20.0 L30.0 20.0M20.0 20.2 L30.0 20.2" fill="none" stroke-width="0.2" />
<path d="M20.4 20.0 L20.4 30.0M20.2 20.0 L20.2 30.0M20.0 20.0 L20.0 30.0M19.8 20.0 L19.8 30.0" fill="none" stroke-width="0.2" />
<path d="M277.0 20.4 L267.0 20.4M277.0 20.2 L267.0 20.2M277.0 20.0 L267.0 20.0M277.0 19.8 L267.0 19.8" fill="none" stroke-width="0.2" />
<path d="M277.4 20.0 L277.4 30.0M277.2 20.0 L277.2 30.0M277.0 20.0 L277.0 30.0M276.8 20.0 L276.8 30.0" fill="none" stroke-width="0.2" />
<path d="M20.0 189.6 L30.0 189.6M20.0 189.8 L30.0 189.8M20.0 190.0 L30.0 190.0M20.0 190.2 L30.0 190.2" fill="none" stroke-width="0.2" />
<path d="M19.6 190.0 L19.6 180.0M19.8 190.0 L19.8 180.0M20.0 190.0 L20.0 180.0M20.2 190.0 L20.2 180.0" fill="none" stroke-width="0.2" />
<path d="M277.0 190.4 L267.0 190.4M277.0 190.2 L267.0 190.2M277.0 190.0 L267.0 190.0M277.0 189.8 L267.0 189.8" fill="none" stroke-width="0.2" />
<path d="M276.6 190.0 L276.6 180.0M276.8 190.0 L276.8 180.0M277.0 190.0 L277.0 180.0M277.2 190.0 L277.2 180.0" fill="none" stroke-width="0.2" />
</svg>